<svg id="erNXZo4e8bO1" xmlns="http://www.w3.org/2000/svg" xmlns:xlink="http://www.w3.org/1999/xlink" viewBox="0 0 300 300" shape-rendering="geometricPrecision" text-rendering="geometricPrecision"><g transform="translate(-26.999999 0.000001)"><path d="M85.518254,99.614319v99.577767c1.577347,17.740485,33.869171,25.462909,67.738341,25.462912v-100.088417l-2.561169.955577c-22.06836-9.07476-54.508838-22.473005-65.177172-25.907839Z" transform="translate(0 0.000004)" fill="#e8d6b7" stroke="#8e6a2c"/><path d="M150,125.522162c-40.783863.040147-64.481746-13.634318-64.481746-25.907844c0-10.416801,19.572369-25.907844,64.481746-25.907844c37.33873,0,64.681756,12.472913,64.481746,25.907844c0,0,0,1.455266-.419936,2.6854C194.843267,109.266451,150,125.522162,150,125.522162Z" fill="#e8d6b7" stroke="#8e6a2c"/><rect width="181.125256" height="78.940662" rx="0" ry="0" transform="matrix(.338028-.123032 0 1.268574 153.256586 124.468509)" fill="#e8d6b7" stroke="#8e6a2c"/><rect width="201.652784" height="78.940662" rx="0" ry="0" transform="matrix(.888699-.32346 0 1.268574 97.734416 144.676926)" fill="rgba(115,250,117,0.41)" stroke="#01a500"/></g></svg>
