<svg id="egubO0BVN6W1" xmlns="http://www.w3.org/2000/svg" xmlns:xlink="http://www.w3.org/1999/xlink" viewBox="0 0 300 300" shape-rendering="geometricPrecision" text-rendering="geometricPrecision"><path d="M0,20C0,8.954305,8.954305,0,20,0h76.007194c11.045695,0,20,8.954305,20,20v110.36151c0,32.052793-34.954305,74-46,74h-22.007194c-11.045695,0-48-42.503295-48-74L0,20Z" transform="translate(92.151342 32.111341)" fill="#f9fbbc" stroke="#ffbe68" stroke-width="3"/><path d="M120.28319,211.95182c1.57179,1.949549,4.764377,6.926107,7.736757,7.736757c8.46688,2.30915,2.422263-9.403757.587603-11.849967" fill="none" stroke="#854a4a" stroke-width="3" stroke-linecap="round"/><path d="M102.67496,185.97735c-1.90363-3.17271-7.90008-21.07232-.44835-21.07232c4.88465,0,8.917122,9.797615,10.924732,13.143635" fill="none" stroke="#854a4a" stroke-width="3" stroke-linecap="round"/><path d="M127.342819,218.025409C125.7414,216.411311,94.5571,182.20837,101.14452,167.38666c.92528-2.08188,1.96622-.80962,2.8915,0c2.19142,1.91749,13.23953,20.01277,14.81896,18.43334.37219-.37219-.17453-3.50855-.36144-3.97582-5.59187-13.97967-12.69838-26.55203-14.09608-41.92681-.24332-2.67657-2.20538-14.81896,1.80719-14.81896c8.96454,0,13.01986,19.455826,15.65033,24.901589c10.894984,22.55548,6.894983,17.386662,15.296362,31.844181c2.362234,4.065052,15.434766,43.444303,13.871628,48.4327-3.97582,12.687918-34.240845-54.799248-23.680151-23.063403c1.094902,3.29028,3.898701,7.144199,4.407144,9.46044.508443,1.920785-2.805726,2.96559-4.407144,1.351492Z" transform="translate(0 0.000001)" fill="#cdb859" stroke="#bca438"/><path d="M150.154939,32.111341l-.15494-12.360605" transform="translate(.000001 0.000001)" fill="none" stroke="#000"/><path d="M122.812688,83.358698h34.450711" transform="translate(-49.112057 47.641302)" fill="none" stroke="#000"/><path d="M122.812688,83.358698h34.450711" transform="translate(-55.012438 85.694235)" fill="none" stroke="#000"/><path d="M106.498929,83.358698h50.76447" transform="translate(-51.713855 113.149832)" fill="none" stroke="#000"/><path d="M136.927955,104.411631l27.039082,47.911194" transform="translate(-45.112057 67.641302)" fill="none" stroke="#000"/><text dx="0" dy="0" font-family="&quot;Linux Libertine&quot;" font-size="15" font-weight="400" transform="translate(70.065034 18.121848)" stroke-width="0"><tspan y="0" font-weight="400" stroke-width="0"><![CDATA[
Complejo Pericarpio-testa
]]></tspan></text><text dx="0" dy="0" font-family="&quot;Linux Libertine&quot;" font-size="15" font-weight="400" transform="translate(13.622006 135.838779)" stroke-width="0"><tspan y="0" font-weight="400" stroke-width="0"><![CDATA[
Cotiledón
]]></tspan></text><text dx="0" dy="0" font-family="&quot;Linux Libertine&quot;" font-size="15" font-weight="400" transform="translate(208.158536 244.346927)" stroke-width="0"><tspan y="0" font-weight="400" stroke-width="0"><![CDATA[
Endosperma
]]></tspan></text><text dx="0" dy="0" font-family="&quot;Linux Libertine&quot;" font-size="15" font-weight="400" transform="translate(9.037061 154.742247)" stroke-width="0"><tspan y="0" font-weight="400" stroke-width="0"><![CDATA[
Coleoptilo
]]></tspan></text><text dx="0" dy="0" font-family="&quot;Linux Libertine&quot;" font-size="15" font-weight="400" transform="translate(81.323194 265.792379)" stroke-width="0"><tspan y="0" font-weight="400" stroke-width="0"><![CDATA[
Coleoptilo
]]></tspan></text><path d="M122.812688,81.358698l27.443889,14.90503" transform="translate(-49.112057 68.641302)" fill="none" stroke="#000"/><text dx="0" dy="0" font-family="&quot;Linux Libertine&quot;" font-size="15" font-weight="400" transform="translate(16.727543 173.876739)" stroke-width="0"><tspan y="0" font-weight="400" stroke-width="0"><![CDATA[
Plúmula
]]></tspan></text><text dx="0" dy="0" font-family="&quot;Linux Libertine&quot;" font-size="15" font-weight="400" transform="translate(43.682358 237.822714)" stroke-width="0"><tspan y="0" font-weight="400" stroke-width="0"><![CDATA[
Radícola
]]></tspan></text><path d="M124.402071,99.894652l32.861328-16.535954" transform="translate(-28.476084 133.104266)" fill="none" stroke="#000"/><path d="M138.13418,120.095389l19.129219-36.736691" transform="translate(-25.777529 136.605429)" fill="none" stroke="#000"/><path d="M138.13418,120.095389L74.072845,65.398833" transform="translate(107.383503 112.649832)" fill="none" stroke="#000"/><text dx="0" dy="0" font-family="&quot;Linux Libertine&quot;" font-size="15" font-weight="400" transform="translate(30.589205 199.42551)" stroke-width="0"><tspan y="0" font-weight="400" stroke-width="0"><![CDATA[
Eje
]]></tspan><tspan x="0" y="15" font-weight="400" stroke-width="0"><![CDATA[
embrionario
]]></tspan></text></svg>
