<svg id="eD6fCJ4VKHs1" xmlns="http://www.w3.org/2000/svg" xmlns:xlink="http://www.w3.org/1999/xlink" viewBox="0 0 550 300" shape-rendering="geometricPrecision" text-rendering="geometricPrecision"><g transform="translate(.000001 0.000001)"><path d="M121.782894,214.329993q6.198383,61.360774,34.377789,61.360774q26.94925,0,31.825871-61.360774h-66.20366Z" transform="translate(.000002 0.000003)" fill="#87776c" stroke="#63564c" stroke-width="0.6"/><path d="M96.054888,76.168295c-33.883957,4.709854-53.069436-2.58478-69.228431.292103-2.617908,5.293062,40.110887,2.533361,69.228431,5.696012v-5.988115Z" transform="translate(7 0.000003)" fill="#d3cdc0" stroke="#63564c" stroke-width="0.6"/><path d="M96.054888,76.168295c-33.883957,4.709854-53.069436-2.58478-69.228431.292103-2.617908,5.293062,40.110887,2.533361,69.228431,5.696012v-5.988115Z" transform="matrix(-1 0 0 1 302.341862 0.000003)" fill="#d3cdc0" stroke="#63564c" stroke-width="0.6"/><path d="M96.054888,76.168295c-33.883957,4.709854-53.069436-2.58478-69.228431.292103-2.617908,5.293062,40.110887,2.533361,69.228431,5.696012v-5.988115Z" transform="matrix(-1 0 0 1 298.56799 12.313417)" fill="#d3cdc0" stroke="#63564c" stroke-width="0.6"/><path d="M96.054888,76.168295c-33.883957,4.709854-53.069436-2.58478-69.228431.292103-2.617908,5.293062,40.110887,2.533361,69.228431,5.696012v-5.988115Z" transform="matrix(-1 0 0 1 294.56799 23.003035)" fill="#d3cdc0" stroke="#63564c" stroke-width="0.6"/><path d="M96.054888,76.168295c-33.883957,4.709854-53.069436-2.58478-69.228431.292103-2.617908,5.293062,40.110887,2.533361,69.228431,5.696012v-5.988115Z" transform="translate(9.226128 12.313417)" fill="#d3cdc0" stroke="#63564c" stroke-width="0.6"/><path d="M96.054888,76.168295c-33.883957,4.709854-53.069436-2.58478-69.228431.292103-2.617908,5.293062,40.110887,2.533361,69.228431,5.696012v-5.988115Z" transform="translate(12.226128 23.003035)" fill="#d3cdc0" stroke="#63564c" stroke-width="0.6"/><path d="M66.53273,42.570841Q78.184974,269.764832,125,269.764832t56.033217-227.193991h-114.500487Z" transform="matrix(.953706 0 0 1 36.947434-6.167836)" fill="#d3cdc0" stroke="#63564c" stroke-width="0.6"/></g><g transform="translate(-1.999999 0)"><line x1="-14.50011" y1="0" x2="16.50011" y2="0" transform="translate(184.012993 112.123855)" fill="none" stroke="#3f5787" stroke-width="3"/><line x1="-14.50011" y1="0" x2="13.50011" y2="0" transform="translate(184.012993 142.123855)" fill="none" stroke="#3f5787" stroke-width="3"/><line x1="-14.50011" y1="0" x2="9.50011" y2="0" transform="translate(184.012993 171.721591)" fill="none" stroke="#3f5787" stroke-width="3"/><line x1="-14.50011" y1="0" x2="8.50011" y2="0" transform="translate(184.012993 177.721591)" fill="none" stroke="#3f5787" stroke-width="3"/><line x1="-14.50011" y1="0" x2="7.50011" y2="0" transform="translate(184.012993 183.721591)" fill="none" stroke="#3f5787" stroke-width="3"/><line x1="-14.50011" y1="0" x2="6.50011" y2="0" transform="translate(184.012993 189.721591)" fill="none" stroke="#3f5787" stroke-width="3"/><line x1="-14.50011" y1="0" x2="5.50011" y2="0" transform="translate(184.012993 195.721591)" fill="none" stroke="#3f5787" stroke-width="3"/><line x1="-14.50011" y1="0" x2="4.50011" y2="0" transform="translate(184.012993 201.721591)" fill="none" stroke="#3f5787" stroke-width="3"/><line x1="-14.50011" y1="0" x2="13.50011" y2="0" transform="translate(184.012993 148.123855)" fill="none" stroke="#3f5787" stroke-width="3"/><line x1="-14.50011" y1="0" x2="12.50011" y2="0" transform="translate(184.012993 154.123855)" fill="none" stroke="#3f5787" stroke-width="3"/><line x1="-14.50011" y1="0" x2="11.50011" y2="0" transform="translate(184.012993 160.123855)" fill="none" stroke="#3f5787" stroke-width="3"/><line x1="-14.50011" y1="0" x2="10.50011" y2="0" transform="translate(184.012993 166.123855)" fill="none" stroke="#3f5787" stroke-width="3"/><line x1="-14.50011" y1="0" x2="16.50011" y2="0" transform="translate(184.012993 118.123855)" fill="none" stroke="#3f5787" stroke-width="3"/><line x1="-14.50011" y1="0" x2="15.50011" y2="0" transform="translate(184.012993 124.123855)" fill="none" stroke="#3f5787" stroke-width="3"/><line x1="-14.50011" y1="0" x2="14.50011" y2="0" transform="translate(184.012993 130.123855)" fill="none" stroke="#3f5787" stroke-width="3"/><line x1="-14.50011" y1="0" x2="14.50011" y2="0" transform="translate(184.012993 136.311042)" fill="none" stroke="#3f5787" stroke-width="3"/></g><g transform="matrix(-1 0 0 1 312.026017 0)"><line x1="-14.50011" y1="0" x2="16.50011" y2="0" transform="translate(184.012993 112.123855)" fill="none" stroke="#3f5787" stroke-width="3"/><line x1="-14.50011" y1="0" x2="13.50011" y2="0" transform="translate(184.012993 142.123855)" fill="none" stroke="#3f5787" stroke-width="3"/><line x1="-14.50011" y1="0" x2="9.50011" y2="0" transform="translate(184.012993 171.721591)" fill="none" stroke="#3f5787" stroke-width="3"/><line x1="-14.50011" y1="0" x2="8.50011" y2="0" transform="translate(184.012993 177.721591)" fill="none" stroke="#3f5787" stroke-width="3"/><line x1="-14.50011" y1="0" x2="7.50011" y2="0" transform="translate(184.012993 183.721591)" fill="none" stroke="#3f5787" stroke-width="3"/><line x1="-14.50011" y1="0" x2="6.50011" y2="0" transform="translate(184.012993 189.721591)" fill="none" stroke="#3f5787" stroke-width="3"/><line x1="-14.50011" y1="0" x2="5.50011" y2="0" transform="translate(184.012993 195.721591)" fill="none" stroke="#3f5787" stroke-width="3"/><line x1="-14.50011" y1="0" x2="4.50011" y2="0" transform="translate(184.012993 201.721591)" fill="none" stroke="#3f5787" stroke-width="3"/><line x1="-14.50011" y1="0" x2="13.50011" y2="0" transform="translate(184.012993 148.123855)" fill="none" stroke="#3f5787" stroke-width="3"/><line x1="-14.50011" y1="0" x2="12.50011" y2="0" transform="translate(184.012993 154.123855)" fill="none" stroke="#3f5787" stroke-width="3"/><line x1="-14.50011" y1="0" x2="11.50011" y2="0" transform="translate(184.012993 160.123855)" fill="none" stroke="#3f5787" stroke-width="3"/><line x1="-14.50011" y1="0" x2="10.50011" y2="0" transform="translate(184.012993 166.123855)" fill="none" stroke="#3f5787" stroke-width="3"/><line x1="-14.50011" y1="0" x2="16.50011" y2="0" transform="translate(184.012993 118.123855)" fill="none" stroke="#3f5787" stroke-width="3"/><line x1="-14.50011" y1="0" x2="15.50011" y2="0" transform="translate(184.012993 124.123855)" fill="none" stroke="#3f5787" stroke-width="3"/><line x1="-14.50011" y1="0" x2="14.50011" y2="0" transform="translate(184.012993 130.123855)" fill="none" stroke="#3f5787" stroke-width="3"/><line x1="-14.50011" y1="0" x2="14.50011" y2="0" transform="translate(184.012993 136.311042)" fill="none" stroke="#3f5787" stroke-width="3"/></g><g transform="translate(0 0.000001)"><line x1="0" y1="46.245047" x2="0" y2="-46.245047" transform="translate(154.884726 157.368902)" fill="none" stroke="#4a7c49" stroke-width="3"/><line x1="0" y1="46.245047" x2="0" y2="-46.245047" transform="translate(158.884726 156.368902)" fill="none" stroke="#4a7c49" stroke-width="3"/><line x1="0" y1="46.245047" x2="0" y2="-46.245047" transform="translate(150.884726 156.368902)" fill="none" stroke="#4a7c49" stroke-width="3"/><line x1="0" y1="46.245047" x2="0" y2="-46.245047" transform="translate(146.884726 158.368902)" fill="none" stroke="#4a7c49" stroke-width="3"/><line x1="0" y1="46.245047" x2="0" y2="-46.245047" transform="translate(162.884726 158.368902)" fill="none" stroke="#4a7c49" stroke-width="3"/></g><g transform="translate(0 0.000001)"><path d="M108.281017,110.123855q5.231787,56.092918,13.231897,93.597736" transform="translate(.000001 0)" fill="none" stroke="#936f1f" stroke-width="2"/><path d="M108.281017,110.123855q5.231787,56.092918,13.231897,93.597736" transform="matrix(-1 0 0 1 310.533567 0)" fill="none" stroke="#936f1f" stroke-width="2"/><ellipse rx="15.494021" ry="15.494021" transform="matrix(.93382 0 0 0.93382 156 229.94625)" fill="none" stroke="#812f95" stroke-width="2" stroke-dashoffset="6.5" stroke-dasharray="12,12.5"/><ellipse rx="15.064134" ry="15.064134" transform="matrix(.764257 0 0 0.764257 156 229.94625)" fill="#edd2d2" stroke="#f00"/><line x1="-8.516673" y1="8.516673" x2="7.516673" y2="-8.060245" transform="translate(156.47838 229.565286)" fill="none" stroke="#f00"/><line x1="-8.516673" y1="8.516673" x2="7.516673" y2="-8.112448" transform="matrix(-1 0 0 1 155.47838 229.617489)" fill="none" stroke="#f00"/></g><path d="M150.884726,262.668037v12.320522c2.759273.9121,8.061967.800178,10.661349-.000001v-12.320521c-2.565406,1.090219-7.755925,1.219182-10.661349,0Z" transform="matrix(1 0 0 0.960229 0.000001 11.021677)" fill="#63564c" stroke="#63564c" stroke-width="0.6"/><g transform="translate(99.000001 0.000001)"><line x1="0" y1="26.901593" x2="0" y2="-53.901592" transform="translate(311.225463 82.222264)" fill="none" stroke="#e45959" stroke-width="3"/><line x1="0" y1="-46.245047" x2="0" y2="46.245047" transform="translate(311.225463 157.43021)" fill="none" stroke="#e45959" stroke-width="3"/><line x1="0" y1="-28.314597" x2="0" y2="41.145118" transform="translate(311.225463 233.928547)" fill="none" stroke="#e45959" stroke-width="3"/><text dx="0" dy="0" font-family="&quot;Linux Libertine&quot;" font-size="15" font-weight="400" transform="translate(319.690295 66.901268)" fill="#e45959" stroke-width="0"><tspan y="0" font-weight="400" stroke-width="0"><![CDATA[
Zona de
]]></tspan><tspan x="0" y="15" font-weight="400" stroke-width="0"><![CDATA[
diferenciación
]]></tspan></text><text dx="0" dy="0" font-family="&quot;Linux Libertine&quot;" font-size="15" font-weight="400" transform="translate(319.533314 152.728581)" fill="#e45959" stroke-width="0"><tspan y="0" font-weight="400" stroke-width="0"><![CDATA[
Zona de
]]></tspan><tspan x="0" y="15" font-weight="400" stroke-width="0"><![CDATA[
elongación
]]></tspan><tspan x="0" y="45" font-weight="400" stroke-width="0"><![CDATA[
 
]]></tspan></text><text dx="0" dy="0" font-family="&quot;Linux Libertine&quot;" font-size="15" font-weight="400" transform="translate(319.121719 239.198614)" fill="#e45959" stroke-width="0"><tspan y="0" font-weight="400" stroke-width="0"><![CDATA[
Zona de
]]></tspan><tspan x="0" y="15" font-weight="400" stroke-width="0"><![CDATA[
división 
]]></tspan></text></g><g transform="translate(0 0.000001)"><line x1="-17.113123" y1="0" x2="10.850371" y2="23.299983" transform="translate(284.854657 76.993763)" fill="none" stroke="#000"/><line x1="-23.087785" y1="13.313414" x2="10.850371" y2="23.130295" transform="translate(284.854657 77.163451)" fill="none" stroke="#000"/><line x1="-24.087785" y1="23.469671" x2="25.113122" y2="23.469671" transform="translate(284.854657 76.824075)" fill="none" stroke="#000"/><text dx="0" dy="0" font-family="&quot;Linux Libertine&quot;" font-size="15" font-weight="400" transform="translate(309.967779 96.56429)" stroke-width="0"><tspan y="0" font-weight="400" stroke-width="0"><![CDATA[
Pelos
]]></tspan><tspan x="0" y="15" font-weight="400" stroke-width="0"><![CDATA[
radicales
]]></tspan></text></g><g transform="translate(.000001 0)"><text dx="0" dy="0" font-family="&quot;Linux Libertine&quot;" font-size="15" font-weight="400" transform="translate(229.3749 126.187781)" stroke-width="0"><tspan y="0" font-weight="400" stroke-width="0"><![CDATA[
Procambium
]]></tspan></text><text dx="0" dy="0" font-family="&quot;Linux Libertine&quot;" font-size="15" font-weight="400" transform="translate(246.472876 153.205915)" stroke-width="0"><tspan y="0" font-weight="400" stroke-width="0"><![CDATA[
Meristema fundamental
]]></tspan></text><line x1="-17.113123" y1="0" x2="52.585623" y2="0" transform="translate(193.610971 148.14199)" fill="none" stroke="#000"/><line x1="-17.113123" y1="0" x2="52.585623" y2="0" transform="translate(175.997849 121.123856)" fill="none" stroke="#000"/><text dx="0" dy="0" font-family="&quot;Linux Libertine&quot;" font-size="15" font-weight="400" transform="translate(264.859754 183.187781)" stroke-width="0"><tspan y="0" font-weight="400" stroke-width="0"><![CDATA[
Protodermis
]]></tspan></text><line x1="-17.113123" y1="0" x2="52.585623" y2="0" transform="translate(210.997849 178.123856)" fill="none" stroke="#000"/></g><g transform="translate(0 0.000001)"><line x1="0" y1="46.245047" x2="-0.115274" y2="-22.586572" transform="translate(155 60.989577)" fill="none" stroke="#227a7c" stroke-width="20"/><line x1="0" y1="-34.415809" x2="0" y2="34.415809" transform="translate(144.48713 72.818816)" fill="none" stroke="#caca52" stroke-width="3"/><line x1="0" y1="-34.415809" x2="0" y2="34.415809" transform="translate(141.48713 72.818816)" fill="none" stroke="#ca5252" stroke-width="1.5"/><line x1="0" y1="-34.415809" x2="0" y2="34.415809" transform="translate(166.48713 72.818816)" fill="none" stroke="#ca5252" stroke-width="1.5"/><line x1="0" y1="-34.415809" x2="0" y2="34.415809" transform="translate(163.48713 72.818816)" fill="none" stroke="#caca52" stroke-width="3"/><path d="M108.281017,107.234625c-2.262045-23.77777-5.249007-59.834553-5.226128-68.831618" fill="none" stroke="#ca9217" stroke-width="2"/><path d="M202.513103,107.234625c1.997496-16.107942,3.15325-48.330204,3.773872-68.831618" transform="translate(0 0.092671)" fill="none" stroke="#ca9217" stroke-width="2"/></g><g transform="translate(.000001 0)"><text dx="0" dy="0" font-family="&quot;Linux Libertine&quot;" font-size="15" font-weight="400" transform="translate(229.3749 240.187781)" stroke-width="0"><tspan y="0" font-weight="400" stroke-width="0"><![CDATA[
Centro quiescente
]]></tspan></text><line x1="-17.113123" y1="0" x2="52.585623" y2="0" transform="translate(176.512995 235.123856)" fill="none" stroke="#000"/><line x1="-17.113123" y1="0" x2="52.585623" y2="0" transform="translate(173.328525 215.448294)" fill="none" stroke="#000"/><line x1="-6.113123" y1="0" x2="52.585623" y2="0" transform="translate(173.328525 28.448294)" fill="none" stroke="#000"/><line x1="-6.113123" y1="0" x2="-18.328525" y2="14.725673" transform="translate(173.328525 28.448294)" fill="none" stroke="#000" stroke-linecap="round"/><line x1="-10.443799" y1="0" x2="42.585623" y2="0" transform="translate(173.328525 44.619368)" fill="none" stroke="#000"/><line x1="-10.443799" y1="0" x2="75.413009" y2="0" transform="translate(192.328525 58.619368)" fill="none" stroke="#000"/><text dx="0" dy="0" font-family="&quot;Linux Libertine&quot;" font-size="15" font-weight="400" transform="translate(267.741534 63.636892)" stroke-width="0"><tspan y="0" font-weight="400" stroke-width="0"><![CDATA[
Parénquima cortical
]]></tspan></text><text dx="0" dy="0" font-family="&quot;Linux Libertine&quot;" font-size="15" font-weight="400" transform="translate(215.914148 49.512219)" stroke-width="0"><tspan y="0" font-weight="400" stroke-width="0"><![CDATA[
Periciclo
]]></tspan></text><text dx="0" dy="0" font-family="&quot;Linux Libertine&quot;" font-size="15" font-weight="400" transform="translate(4.582356 48.275582)" stroke-width="0"><tspan y="0" font-weight="400" stroke-width="0"><![CDATA[
Endodermis
]]></tspan></text><text dx="0" dy="0" font-family="&quot;Linux Libertine&quot;" font-size="15" font-weight="400" transform="translate(4.515236 66.688158)" stroke-width="0"><tspan y="0" font-weight="400" stroke-width="0"><![CDATA[
Rizodermis
]]></tspan></text><line x1="-9.082563" y1="0" x2="21.808" y2="0" transform="translate(82.749365 61.580743)" fill="none" stroke="#000"/><line x1="-9.841395" y1="0" x2="54.578226" y2="0" transform="translate(86.908904 43.173967)" fill="none" stroke="#000"/><text dx="0" dy="0" font-family="&quot;Linux Libertine&quot;" font-size="15" font-weight="400" transform="translate(226.098618 33.474056)" stroke-width="0"><tspan y="0" font-weight="400" stroke-width="0"><![CDATA[
Haz radial (xilema y floema) 
]]></tspan></text><text dx="0" dy="0" font-family="&quot;Linux Libertine&quot;" font-size="15" font-weight="400" transform="translate(226.190424 220.512219)" stroke-width="0"><tspan y="0" font-weight="400" stroke-width="0"><![CDATA[
Tejido meristemático 
]]></tspan></text><line x1="-17.113123" y1="0" x2="52.585623" y2="0" transform="translate(173.512995 269.123856)" fill="none" stroke="#000"/><text dx="0" dy="0" font-family="&quot;Linux Libertine&quot;" font-size="15" font-weight="400" transform="translate(226.3749 274.187781)" stroke-width="0"><tspan y="0" font-weight="400" stroke-width="0"><![CDATA[
Células de la columela
]]></tspan></text><line x1="-17.113123" y1="0" x2="52.585623" y2="0" transform="translate(193.512995 253.123856)" fill="none" stroke="#000"/><text dx="0" dy="0" font-family="&quot;Linux Libertine&quot;" font-size="15" font-weight="400" transform="translate(246.3749 258.187781)" stroke-width="0"><tspan y="0" font-weight="400" stroke-width="0"><![CDATA[
Caliptra
]]></tspan></text></g></svg>
