<svg id="eHyezW6nGus1" xmlns="http://www.w3.org/2000/svg" xmlns:xlink="http://www.w3.org/1999/xlink" viewBox="0 0 200 300" shape-rendering="geometricPrecision" text-rendering="geometricPrecision"><g transform="matrix(1.727003 0 0 1.727004-204.517896-131.704114)"><g transform="translate(.000001 0)"><path d="M150,205.275684l-22.610075,34.510115" transform="translate(.000001 0.000001)" fill="none" stroke="#716140" stroke-width="2" stroke-linecap="round"/><path d="M150,205.275685L144.04998,239.7858" transform="translate(0 0.000001)" fill="none" stroke="#716140" stroke-width="2" stroke-linecap="round"/><path d="M150.000001,205.275686l8.330027,34.510115" transform="translate(0 0.000001)" fill="none" stroke="#716140" stroke-width="2" stroke-linecap="round"/><path d="M150.000001,205.275687L177.965093,239.7858" transform="translate(0 0.000001)" fill="none" stroke="#716140" stroke-width="2" stroke-linecap="round"/></g><path d="M150,205.275685l.000002-50.422976" fill="none" stroke="#5c973e" stroke-width="4" stroke-linecap="round"/><g transform="translate(.000001 0)"><path d="M149.973896,180.653266c-1.013897-7.291436,8.579458-10.703648,16.593211-9.711527-1.450683,5.37272-6.764987,12.590156-16.194992,11.21913-.398218-1.507603,0,0-.398219-1.507603Z" transform="translate(2 4.515935)" fill="#5c973e" stroke="#265110" stroke-width="0.6"/><path d="M149.973896,180.653266c-1.013897-7.291436,8.579458-10.703648,16.593211-9.711527-1.450683,5.37272-6.764987,12.590156-16.194992,11.21913-.398218-1.507603,0,0-.398219-1.507603Z" transform="matrix(-1 0 0 1 298.000004 4.515935)" fill="#5c973e" stroke="#265110" stroke-width="0.6"/><path d="M149.973896,180.653266c-1.013897-7.291436,8.579458-10.703648,16.593211-9.711527-1.450683,5.37272-6.764987,12.590156-16.194992,11.21913-.398218-1.507603,0,0-.398219-1.507603Z" transform="matrix(-1 0 0 1 297.699704-9.033491)" fill="#5c973e" stroke="#265110" stroke-width="0.6"/><path d="M149.973896,180.653266c-1.013897-7.291436,8.579458-10.703648,16.593211-9.711527-1.450683,5.37272-6.764987,12.590156-16.194992,11.21913-.398218-1.507603,0,0-.398219-1.507603Z" transform="matrix(-1 0 0 1 297.899904 18.240093)" fill="#5c973e" stroke="#265110" stroke-width="0.6"/><path d="M149.973896,180.653266c-1.013897-7.291436,8.579458-10.703648,16.593211-9.711527-1.450683,5.37272-6.764987,12.590156-16.194992,11.21913-.398218-1.507603,0,0-.398219-1.507603Z" transform="translate(2.1001-9.033491)" fill="#5c973e" stroke="#265110" stroke-width="0.6"/><path d="M149.973896,180.653266c-1.013897-7.291436,8.579458-10.703648,16.593211-9.711527-1.450683,5.37272-6.764987,12.590156-16.194992,11.21913-.398218-1.507603,0,0-.398219-1.507603Z" transform="translate(2.1001 18.240093)" fill="#5c973e" stroke="#265110" stroke-width="0.6"/></g><path d="M150.000002,154.852709q-1.999999-64.738812,18.667206-63.806719" transform="translate(0 0.000001)" fill="none" stroke="#5c973e"/><path d="M149.973896,180.653266c-1.81116-9.983152,7.920757-14.231141,15.93451-13.23902-6.882809,8.394175-6.106286,16.117649-15.536291,14.746623-.398218-1.507603,0,0-.398219-1.507603Z" transform="matrix(.266625 0.9638-.9638 0.266625 303.826635-102.483504)" fill="#5c973e" stroke="#265110" stroke-width="0.6"/></g><text dx="0" dy="0" font-family="&quot;Linux Libertine&quot;" font-size="15" font-weight="400" transform="translate(110.725279 257.664886)" stroke-width="0"><tspan y="0" font-weight="400" stroke-width="0"><![CDATA[
Rizoides
]]></tspan></text><text dx="0" dy="0" font-family="&quot;Linux Libertine&quot;" font-size="15" font-weight="400" transform="translate(110.725279 209.753688)" stroke-width="0"><tspan y="0" font-weight="400" stroke-width="0"><![CDATA[
Filodios
]]></tspan></text><text dx="0" dy="0" font-family="&quot;Linux Libertine&quot;" font-size="15" font-weight="400" transform="translate(110.725279 167.451533)" stroke-width="0"><tspan y="0" font-weight="400" stroke-width="0"><![CDATA[
Caulidio
]]></tspan></text><text dx="0" dy="0" font-family="&quot;Linux Libertine&quot;" font-size="15" font-weight="400" transform="translate(110.725279 109.509394)" stroke-width="0"><tspan y="0" font-weight="400" stroke-width="0"><![CDATA[
Filamento
]]></tspan></text><text dx="0" dy="0" font-family="&quot;Linux Libertine&quot;" font-size="15" font-weight="400" transform="translate(114.443359 62.035487)" stroke-width="0"><tspan y="0" font-weight="400" stroke-width="0"><![CDATA[
Cápsula
]]></tspan><tspan x="0" y="15" font-weight="400" stroke-width="0"><![CDATA[
esporangial
]]></tspan></text><path d="M161.857342,252.607369h32.044822" transform="translate(-83.176885 0)" fill="none" stroke="#000"/><path d="M150.000001,273.493178l43.902163-20.885809" transform="translate(-83.176885 0)" fill="none" stroke="#000"/><path d="M161.857342,252.607369h32.044822" transform="translate(-83.176885-47.911198)" fill="none" stroke="#000"/><path d="M161.857342,227.178673l32.044822,25.428696" transform="translate(-83.176885-47.911198)" fill="none" stroke="#000"/><path d="M161.857342,227.178673l35.784937,20.367131" transform="translate(-59.933819-196.136577)" fill="none" stroke="#000"/><path d="M137.709444,252.607369h56.19272" transform="translate(-83.176885-90.255001)" fill="none" stroke="#000"/><path d="M137.709444,252.607369h56.19272" transform="translate(-83.120198-148.128204)" fill="none" stroke="#000"/></svg>
