<svg id="ehwq2zcHX8W1" xmlns="http://www.w3.org/2000/svg" xmlns:xlink="http://www.w3.org/1999/xlink" viewBox="0 0 300 140" shape-rendering="geometricPrecision" text-rendering="geometricPrecision"><path d="M164.515232,157.611825h-112.692105c0,19.75365,16.896652,29.988892,43.168803,29.988892l97.788206.318094c-17.9577-1.036701-28.264901-16.478861-28.264904-30.306986Z" transform="matrix(1 0.176327 0 1-1.165038-128.21277)" fill="#efb3b3" stroke="#c37171" stroke-width="0.6"/><rect width="149.671537" height="46.744564" rx="0" ry="0" transform="matrix(.761679 0.132264-1.815502 0.320122 135.177052 23.668947)" fill="#efb3b3" stroke="#c37171"/><path d="M71.694921,137.594208c.359819,17.33273,14.987369,42.988893,43.348712,42.988893c28.49327,0,42.988893-26.133933,42.988893-42.988893h-86.337605Z" transform="matrix(1-.176327 0 1 91.655276-66.412101)" fill="#efb3b3" stroke="#c37171" stroke-width="0.6"/><path d="M176.38225,186.04665c8.06148-2.68716,19.07467.31578,26.19603-4.8634c2.01564-1.46592,2.4751-3.91201,4.08968-5.52659c2.26549-2.26549,5.36186-4.97821,6.18978-8.28988.69823-2.79292-1.629403-6.339666-1.629403-9.128196l-112.2055-20.217036" transform="translate(-6.278211-106.870619)" fill="none" stroke="#c37171" stroke-width="0.6"/><path d="M247.67524,175.7672c-5.12479,0-10.38895,1.93864-15.47445,1.54744-4.34226-.33402-6.63416-3.20542-11.05318-3.20542-2.3003,0-10.07039.85425-10.94264-1.32638" transform="translate(-6.278211-106.870618)" fill="none" stroke="#c37171" stroke-width="0.6"/><path d="M225.90048,196.43664c-4.12384,0-19.50353-4.5711-21.00104-9.0636-1.05122-3.15365.88425-6.63823.88425-9.83733" transform="translate(-6.27821-106.870619)" fill="none" stroke="#c37171" stroke-width="0.6"/><path d="M176.38225,186.04665L63.949695,165.278148" transform="translate(-6.278211-106.870619)" fill="none" stroke="#c37171" stroke-width="0.6"/><path d="M99.88958,172.23818c-6.46775-4.85081-13.25024-12.16585-7.09347-20.37487" transform="translate(-6.27821-106.870619)" fill="none" stroke="#c37171" stroke-width="0.6"/><path d="M99.43681,172.08725c.74305,3.71526-4.40842,7.59802-1.05647,10.11197" transform="translate(-6.278211-106.870619)" fill="none" stroke="#c37171" stroke-width="0.6"/><path d="M92.56175,151.88799c5.1116-6.81547,19.88728-2.27573,26.22437-1.82308c3.88758.27768,9.872838-1.969645,7.813978-7.116765" transform="translate(-6.278211-106.870619)" fill="none" stroke="#c37171" stroke-width="0.6"/><path d="M122.085824,142.159633c0-1.58187-1.644644-2.882383-1.055904-4.295363c1.44998-3.47996,5.789823-3.863259,8.939263-5.123039" transform="translate(-6.27821-106.870619)" fill="none" stroke="#c37070" stroke-width="0.6" stroke-linecap="round"/><line x1="-15" y1="0" x2="98.655823" y2="22.03333" transform="translate(65.658089 86.305602)" fill="none" stroke="#000" stroke-width="1.5"/><text dx="0" dy="0" font-family="&quot;Linux Libertine&quot;" font-size="15" font-weight="400" transform="matrix(1 0.176327 0 1 80.908672 107.148663)" stroke-width="0"><tspan y="0" font-weight="400" stroke-width="0"><![CDATA[
1µm
]]></tspan></text></svg>
