<svg id="ehN9gxORUEH1" xmlns="http://www.w3.org/2000/svg" xmlns:xlink="http://www.w3.org/1999/xlink" viewBox="0 0 300 200" shape-rendering="geometricPrecision" text-rendering="geometricPrecision"><text dx="0" dy="0" font-family="&quot;Linux Libertine&quot;" font-size="15" font-weight="400" transform="translate(94.572644 19.635066)" stroke-width="0"><tspan y="0" font-weight="400" stroke-width="0"><![CDATA[
Sistemas radicales
]]></tspan></text><text dx="0" dy="0" font-family="&quot;Linux Libertine&quot;" font-size="15" font-weight="400" transform="translate(18.453427 45.517652)" stroke-width="0"><tspan y="0" font-weight="400" stroke-width="0"><![CDATA[
Axomorfo alorrizo
]]></tspan></text><text dx="0" dy="0" font-family="&quot;Linux Libertine&quot;" font-size="15" font-weight="400" transform="translate(168.445069 45.517652)" stroke-width="0"><tspan y="0" font-weight="400" stroke-width="0"><![CDATA[
Fibroso homorrizo
]]></tspan></text><path d="M56.730011,69.854286c27.419877,7.755256,13.892261,40.608295,18.299737,114.514722c5.033319-73.251317-7.837011-106.317623,18.616196-114.514722q-37.33066-.000002-36.915933,0Z" transform="translate(.000002 0.000003)" fill="#ae8f60" stroke="#6a4a19"/><g transform="translate(.000001 0)"><path d="M80.41087,81.226742q13.235076,4.045025,32.876026,3.877685" transform="translate(0 0.000001)" fill="none" stroke="#6a4a19"/><path d="M80.41087,81.226742q13.235076,4.045025,29.876026,3.877685" transform="translate(-4 36.000001)" fill="none" stroke="#6a4a19"/><path d="M80.41087,81.226742q13.235076,4.045025,27.876026,3.877685" transform="translate(-4 54.000001)" fill="none" stroke="#6a4a19"/><path d="M80.41087,81.226742q13.235076,4.045025,24.876026,3.877685" transform="translate(-4 81.000001)" fill="none" stroke="#6a4a19"/><path d="M80.41087,81.226742q13.235076,4.045025,23.876026,3.877685" transform="translate(-5 90.210248)" fill="none" stroke="#6a4a19"/><path d="M80.41087,81.226742q13.235076,4.045025,25.876026,3.877685" transform="translate(-4 72.210248)" fill="none" stroke="#6a4a19"/><path d="M80.41087,81.226742q13.235076,4.045025,26.876026,3.877685" transform="translate(-4 63.210248)" fill="none" stroke="#6a4a19"/><path d="M80.41087,81.226742q13.235076,4.045025,28.876026,3.877685" transform="translate(-4 45.210248)" fill="none" stroke="#6a4a19"/><path d="M80.41087,81.226742q13.235076,4.045025,32.876026,3.877685" transform="translate(-4 18.000001)" fill="none" stroke="#6a4a19"/><path d="M80.41087,81.226742q13.235076,4.045025,30.876026,3.877685" transform="translate(-4 27.210248)" fill="none" stroke="#6a4a19"/><path d="M80.41087,81.226742q13.235076,4.045025,32.876026,3.877685" transform="translate(-3 9.210248)" fill="none" stroke="#6a4a19"/></g><g transform="matrix(-1 0 0 1 150.697769 0)"><path d="M80.41087,81.226742q13.235076,4.045025,32.876026,3.877685" transform="translate(0 0.000001)" fill="none" stroke="#6a4a19"/><path d="M80.41087,81.226742q13.235076,4.045025,29.876026,3.877685" transform="translate(-4 36.000001)" fill="none" stroke="#6a4a19"/><path d="M80.41087,81.226742q13.235076,4.045025,27.876026,3.877685" transform="translate(-4 54.000001)" fill="none" stroke="#6a4a19"/><path d="M80.41087,81.226742q13.235076,4.045025,24.876026,3.877685" transform="translate(-4 81.000001)" fill="none" stroke="#6a4a19"/><path d="M80.41087,81.226742q13.235076,4.045025,23.876026,3.877685" transform="translate(-5 90.210248)" fill="none" stroke="#6a4a19"/><path d="M80.41087,81.226742q13.235076,4.045025,25.876026,3.877685" transform="translate(-4 72.210248)" fill="none" stroke="#6a4a19"/><path d="M80.41087,81.226742q13.235076,4.045025,26.876026,3.877685" transform="translate(-4 63.210248)" fill="none" stroke="#6a4a19"/><path d="M80.41087,81.226742q13.235076,4.045025,28.876026,3.877685" transform="translate(-4 45.210248)" fill="none" stroke="#6a4a19"/><path d="M80.41087,81.226742q13.235076,4.045025,32.876026,3.877685" transform="translate(-4 18.000001)" fill="none" stroke="#6a4a19"/><path d="M80.41087,81.226742q13.235076,4.045025,30.876026,3.877685" transform="translate(-4 27.210248)" fill="none" stroke="#6a4a19"/><path d="M80.41087,81.226742q13.235076,4.045025,32.876026,3.877685" transform="translate(-3 9.210248)" fill="none" stroke="#6a4a19"/></g><path d="M209.315262,102.972506c7.250042-2.37178,22.62674-2.802882,31.128267,0c.678518,4.838537-5.338793,10.603581-15.496751,10.131922-10.547566.691686-16.635741-5.096718-15.631516-10.131922Z" transform="translate(.15183 0)" fill="#ae8f60" stroke="#6a4a19"/><g transform="translate(.000001 0.000001)"><path d="M240.638448,104.854289q7.338467,2.238176,18.000781,20.582701" fill="none" stroke="#6a4a19"/><path d="M238.754873,108.33822q5.441983,3.136107,10.883966,19.040789" transform="translate(0 0.000001)" fill="none" stroke="#6a4a19"/><path d="M235.373441,110.968223q5.221918,5.25852,6.086578,17.884018" fill="none" stroke="#6a4a19"/><path d="M230.466195,112.684219q3.148484,3.542524,3.593332,16.630456" fill="none" stroke="#6a4a19"/><path d="M225.734513,113.104428q3.050387,4.280024,2.41489,16.735769" transform="translate(.000001 0.000001)" fill="none" stroke="#6a4a19"/></g><g transform="matrix(-1 0 0 1 450.065662 0.000001)"><path d="M240.638448,104.854289q7.338467,2.238176,18.000781,20.582701" fill="none" stroke="#6a4a19"/><path d="M238.754873,108.33822q5.441983,3.136107,10.883966,19.040789" transform="translate(0 0.000001)" fill="none" stroke="#6a4a19"/><path d="M235.373441,110.968223q5.221918,5.25852,6.086578,17.884018" fill="none" stroke="#6a4a19"/><path d="M230.466195,112.684219q3.148484,3.542524,3.593332,16.630456" fill="none" stroke="#6a4a19"/><path d="M225.734513,113.104428q3.050387,4.280024,2.41489,16.735769" transform="translate(.000001 0.000001)" fill="none" stroke="#6a4a19"/></g></svg>
