<svg id="ez2XPWbwC3o1" xmlns="http://www.w3.org/2000/svg" xmlns:xlink="http://www.w3.org/1999/xlink" viewBox="0 0 300 500" shape-rendering="geometricPrecision" text-rendering="geometricPrecision"><defs><linearGradient id="ez2XPWbwC3o8-fill" x1="0" y1="0.5" x2="1" y2="0.5" spreadMethod="pad" gradientUnits="objectBoundingBox" gradientTransform="translate(0 0)"><stop id="ez2XPWbwC3o8-fill-0" offset="6%" stop-color="#bae4b7"/><stop id="ez2XPWbwC3o8-fill-1" offset="21%" stop-color="#edd6be"/></linearGradient><linearGradient id="ez2XPWbwC3o162-fill" x1="0.5" y1="1" x2="0.5" y2="0" spreadMethod="pad" gradientUnits="objectBoundingBox" gradientTransform="translate(0 0)"><stop id="ez2XPWbwC3o162-fill-0" offset="0%" stop-color="rgba(169,248,169,0)"/><stop id="ez2XPWbwC3o162-fill-1" offset="59%" stop-color="#8483c1"/></linearGradient></defs><text dx="0" dy="0" font-family="&quot;Linux Libertine&quot;" font-size="22.5" font-weight="400" transform="translate(86.936312 23.914446)" stroke-width="0"><tspan y="0" font-size="15" font-weight="400" stroke-width="0"><![CDATA[
Haz vascular abierto
]]></tspan><tspan x="0" y="10" font-size="10" font-weight="400" stroke-width="0"><![CDATA[
(como en varias dicotiledóneas)
]]></tspan></text><g transform="translate(.000001 0.000001)"><g transform="translate(.000001 0)"><ellipse rx="36.73331" ry="36.73331" transform="translate(150.233578 86.249026)" fill="#bae4b7" stroke="#b30909" stroke-width="2"/><path d="M150.233578,86.249026c0-20.28725,0-36.73331,0-36.73331c20.28725,0,36.733322,16.446064,36.733322,36.733314s-16.44607,36.73332-36.73332,36.73332c0,.546347-.000002-16.446074-.000002-36.733324Z" transform="matrix(.972226 0 0 0.972228 4.172587 2.395308)" fill="url(#ez2XPWbwC3o8-fill)" stroke-width="0"/></g><g transform="translate(.000001 0.000001)"><ellipse rx="36.73331" ry="36.73331" transform="translate(150.233578 169.715646)" fill="#bae4b7" stroke="#d18029" stroke-width="2"/><ellipse rx="3.963539" ry="3.963539" transform="translate(150.233578 145.591136)" fill="#1245ae" stroke-width="0"/><ellipse rx="3.963539" ry="3.963539" transform="matrix(-.707107-.707107 0.707107-.707107 133.174973 186.774251)" fill="#1245ae" stroke-width="0"/><ellipse rx="3.963539" ry="3.963539" transform="matrix(0-1 1 0 126.109068 169.715646)" fill="#1245ae" stroke-width="0"/><ellipse rx="3.963539" ry="3.963539" transform="matrix(.707107-.707107 0.707107 0.707107 133.174973 152.657041)" fill="#1245ae" stroke-width="0"/><ellipse rx="3.963539" ry="3.963539" transform="matrix(-1 0 0-1 150.233578 193.840156)" fill="#1245ae" stroke-width="0"/><ellipse rx="3.963539" ry="3.963539" transform="matrix(-.707107 0.707107-.707107-.707107 167.292183 186.774251)" fill="#1245ae" stroke-width="0"/><ellipse rx="3.963539" ry="3.963539" transform="matrix(0 1-1 0 174.358088 169.715646)" fill="#1245ae" stroke-width="0"/><ellipse rx="3.963539" ry="3.963539" transform="matrix(.707107 0.707107-.707107 0.707107 167.292183 152.657041)" fill="#1245ae" stroke-width="0"/><ellipse rx="3.963539" ry="3.963539" transform="translate(150.233578 145.591136)" fill="#1245ae" stroke-width="0"/></g><g transform="translate(.000001 0.000001)"><ellipse rx="36.73331" ry="36.73331" transform="translate(150.233578 253.182266)" fill="#bae4b7" stroke="#d18029" stroke-width="2"/><g transform="translate(99.27304 126.048861)"><rect width="6.956148" height="5.023885" rx="0" ry="0" transform="translate(47.482463 97.275982)" fill="#4aca53" stroke-width="0"/><rect width="6.956148" height="5.023885" rx="0" ry="0" transform="translate(47.482463 102.299867)" fill="#1245ae" stroke-width="0"/><rect width="6.956148" height="5.023885" rx="0" ry="0" transform="translate(47.482463 107.323752)" fill="#b461cd" stroke-width="0"/></g><g transform="matrix(.5-.866025 0.866025 0.5 14.652551 233.748685)"><rect width="6.956148" height="5.023885" rx="0" ry="0" transform="translate(47.482463 97.275982)" fill="#4aca53" stroke-width="0"/><rect width="6.956148" height="5.023885" rx="0" ry="0" transform="translate(47.482463 102.299867)" fill="#1245ae" stroke-width="0"/><rect width="6.956148" height="5.023885" rx="0" ry="0" transform="translate(47.482463 107.323752)" fill="#b461cd" stroke-width="0"/></g><g transform="matrix(-.5-.866025 0.866025-.5 65.61309 360.88209)"><rect width="6.956148" height="5.023885" rx="0" ry="0" transform="translate(47.482463 97.275982)" fill="#4aca53" stroke-width="0"/><rect width="6.956148" height="5.023885" rx="0" ry="0" transform="translate(47.482463 102.299867)" fill="#1245ae" stroke-width="0"/><rect width="6.956148" height="5.023885" rx="0" ry="0" transform="translate(47.482463 107.323752)" fill="#b461cd" stroke-width="0"/></g><g transform="matrix(-1 0 0-1 201.194118 380.315671)"><rect width="6.956148" height="5.023885" rx="0" ry="0" transform="translate(47.482463 97.275982)" fill="#4aca53" stroke-width="0"/><rect width="6.956148" height="5.023885" rx="0" ry="0" transform="translate(47.482463 102.299867)" fill="#1245ae" stroke-width="0"/><rect width="6.956148" height="5.023885" rx="0" ry="0" transform="translate(47.482463 107.323752)" fill="#b461cd" stroke-width="0"/></g><g transform="matrix(-.5 0.866025-.866025-.5 285.814607 272.615847)"><rect width="6.956148" height="5.023885" rx="0" ry="0" transform="translate(47.482463 97.275982)" fill="#4aca53" stroke-width="0"/><rect width="6.956148" height="5.023885" rx="0" ry="0" transform="translate(47.482463 102.299867)" fill="#1245ae" stroke-width="0"/><rect width="6.956148" height="5.023885" rx="0" ry="0" transform="translate(47.482463 107.323752)" fill="#b461cd" stroke-width="0"/></g><g transform="matrix(.5 0.866025-.866025 0.5 234.854068 145.482442)"><rect width="6.956148" height="5.023885" rx="0" ry="0" transform="translate(47.482463 97.275982)" fill="#4aca53" stroke-width="0"/><rect width="6.956148" height="5.023885" rx="0" ry="0" transform="translate(47.482463 102.299867)" fill="#1245ae" stroke-width="0"/><rect width="6.956148" height="5.023885" rx="0" ry="0" transform="translate(47.482463 107.323752)" fill="#b461cd" stroke-width="0"/></g></g><g transform="translate(.000001 0)"><ellipse rx="36.73331" ry="36.73331" transform="translate(150.233578 336.648886)" fill="#bae4b7" stroke="#d18029" stroke-width="2"/><g transform="matrix(.5-.866025 0.866025 0.5-183.993503 210.485517)"><rect width="6.956148" height="4.052544" rx="0" ry="0" transform="matrix(1 0 0 0.619364 54.374781 322.777769)" fill="#4aca53" stroke-width="0"/><rect width="6.956148" height="4.052544" rx="0" ry="0" transform="matrix(1 0 0 0.619364 54.374785 335.130711)" fill="#b461cd" stroke-width="0"/><rect width="6.956148" height="4.052544" rx="0" ry="0" transform="matrix(1 0 0 0.619364 54.374781 325.287769)" fill="#bbfb0d" stroke-width="0"/><rect width="6.956148" height="5.023885" rx="0" ry="0" transform="translate(54.374785 327.735889)" fill="#1245ae" stroke-width="0"/><rect width="6.956148" height="4.052544" rx="0" ry="0" transform="matrix(1 0 0 0.619364 54.374785 332.620711)" fill="#fb3fcc" stroke-width="0"/></g><g transform="matrix(-.5-.866025 0.866025-.5-126.140643 563.016348)"><rect width="6.956148" height="4.052544" rx="0" ry="0" transform="matrix(1 0 0 0.619364 54.374781 322.777769)" fill="#4aca53" stroke-width="0"/><rect width="6.956148" height="4.052544" rx="0" ry="0" transform="matrix(1 0 0 0.619364 54.374785 335.130711)" fill="#b461cd" stroke-width="0"/><rect width="6.956148" height="4.052544" rx="0" ry="0" transform="matrix(1 0 0 0.619364 54.374781 325.287769)" fill="#bbfb0d" stroke-width="0"/><rect width="6.956148" height="5.023885" rx="0" ry="0" transform="translate(54.374785 327.735889)" fill="#1245ae" stroke-width="0"/><rect width="6.956148" height="4.052544" rx="0" ry="0" transform="matrix(1 0 0 0.619364 54.374785 332.620711)" fill="#fb3fcc" stroke-width="0"/></g><g transform="matrix(-1 0 0-1 208.086442 689.179717)"><rect width="6.956148" height="4.052544" rx="0" ry="0" transform="matrix(1 0 0 0.619364 54.374781 322.777769)" fill="#4aca53" stroke-width="0"/><rect width="6.956148" height="4.052544" rx="0" ry="0" transform="matrix(1 0 0 0.619364 54.374785 335.130711)" fill="#b461cd" stroke-width="0"/><rect width="6.956148" height="4.052544" rx="0" ry="0" transform="matrix(1 0 0 0.619364 54.374781 325.287769)" fill="#bbfb0d" stroke-width="0"/><rect width="6.956148" height="5.023885" rx="0" ry="0" transform="translate(54.374785 327.735889)" fill="#1245ae" stroke-width="0"/><rect width="6.956148" height="4.052544" rx="0" ry="0" transform="matrix(1 0 0 0.619364 54.374785 332.620711)" fill="#fb3fcc" stroke-width="0"/></g><g transform="matrix(-.5 0.866025-.866025-.5 484.460667 462.812255)"><rect width="6.956148" height="4.052544" rx="0" ry="0" transform="matrix(1 0 0 0.619364 54.374781 322.777769)" fill="#4aca53" stroke-width="0"/><rect width="6.956148" height="4.052544" rx="0" ry="0" transform="matrix(1 0 0 0.619364 54.374785 335.130711)" fill="#b461cd" stroke-width="0"/><rect width="6.956148" height="4.052544" rx="0" ry="0" transform="matrix(1 0 0 0.619364 54.374781 325.287769)" fill="#bbfb0d" stroke-width="0"/><rect width="6.956148" height="5.023885" rx="0" ry="0" transform="translate(54.374785 327.735889)" fill="#1245ae" stroke-width="0"/><rect width="6.956148" height="4.052544" rx="0" ry="0" transform="matrix(1 0 0 0.619364 54.374785 332.620711)" fill="#fb3fcc" stroke-width="0"/></g><g transform="matrix(.5 0.866025-.866025 0.5 426.607807 110.281424)"><rect width="6.956148" height="4.052544" rx="0" ry="0" transform="matrix(1 0 0 0.619364 54.374781 322.777769)" fill="#4aca53" stroke-width="0"/><rect width="6.956148" height="4.052544" rx="0" ry="0" transform="matrix(1 0 0 0.619364 54.374785 335.130711)" fill="#b461cd" stroke-width="0"/><rect width="6.956148" height="4.052544" rx="0" ry="0" transform="matrix(1 0 0 0.619364 54.374781 325.287769)" fill="#bbfb0d" stroke-width="0"/><rect width="6.956148" height="5.023885" rx="0" ry="0" transform="translate(54.374785 327.735889)" fill="#1245ae" stroke-width="0"/><rect width="6.956148" height="4.052544" rx="0" ry="0" transform="matrix(1 0 0 0.619364 54.250374 332.548883)" fill="#fb3fcc" stroke-width="0"/></g><g transform="translate(92.380722-15.881945)"><rect width="6.956148" height="4.052544" rx="0" ry="0" transform="matrix(1 0 0 0.619364 54.374781 322.777769)" fill="#4aca53" stroke-width="0"/><rect width="6.956148" height="4.052544" rx="0" ry="0" transform="matrix(1 0 0 0.619364 54.374785 335.130711)" fill="#b461cd" stroke-width="0"/><rect width="6.956148" height="4.052544" rx="0" ry="0" transform="matrix(1 0 0 0.619364 54.374781 325.287769)" fill="#bbfb0d" stroke-width="0"/><rect width="6.956148" height="5.023885" rx="0" ry="0" transform="translate(54.374785 327.735889)" fill="#1245ae" stroke-width="0"/><rect width="6.956148" height="4.052544" rx="0" ry="0" transform="matrix(1 0 0 0.619364 54.374785 332.620711)" fill="#fb3fcc" stroke-width="0"/></g></g><g><text dx="0" dy="0" font-family="&quot;Linux Libertine&quot;" font-size="10" font-weight="400" transform="translate(216.302768 79.395528)" stroke-width="0"><tspan y="0" font-weight="400" stroke-width="0"><![CDATA[
Túnica
]]></tspan></text><text dx="0" dy="0" font-family="&quot;Linux Libertine&quot;" font-size="10" font-weight="400" transform="translate(212.369366 95.675777)" stroke-width="0"><tspan y="0" font-weight="400" stroke-width="0"><![CDATA[
Corpus
]]></tspan></text><text dx="0" dy="0" font-family="&quot;Linux Libertine&quot;" font-size="10" font-weight="400" transform="translate(201.461958 155.92744)" stroke-width="0"><tspan y="0" font-weight="400" stroke-width="0"><![CDATA[
Procambium
]]></tspan></text><text dx="0" dy="0" font-family="&quot;Linux Libertine&quot;" font-size="10" font-weight="400" transform="translate(198.201374 198.968863)" stroke-width="0"><tspan y="0" font-weight="400" stroke-width="0"><![CDATA[
Meristema fundamental
]]></tspan></text><path d="M167.476254,152.657043h32.985703" transform="translate(-3.260586 43.041422)" fill="none" stroke="#000" stroke-width="1.2"/><text dx="0" dy="0" font-family="&quot;Linux Libertine&quot;" font-size="10" font-weight="400" transform="translate(212.369366 176.966479)" stroke-width="0"><tspan y="0" font-weight="400" stroke-width="0"><![CDATA[
Protodermis
]]></tspan></text><text dx="0" dy="0" font-family="&quot;Linux Libertine&quot;" font-size="10" font-weight="400" transform="translate(192.406485 233.115973)" stroke-width="0"><tspan y="0" font-weight="400" stroke-width="0"><![CDATA[
Procambium
]]></tspan></text><text dx="0" dy="0" font-family="&quot;Linux Libertine&quot;" font-size="10" font-weight="400" transform="translate(208.899336 244.76483)" stroke-width="0"><tspan y="0" font-weight="400" stroke-width="0"><![CDATA[
Protofloema
]]></tspan></text><path d="M83.818649,86.249027h29.681621" transform="translate(101.802498-10.280249)" fill="none" stroke="#000" stroke-width="1.2"/><path d="M211.369366,86.249034l-40.099102-.000007" transform="translate(0 6.000001)" fill="none" stroke="#000" stroke-width="1.2"/><text dx="0" dy="0" font-family="&quot;Linux Libertine&quot;" font-size="14" font-weight="400" transform="translate(10.831579 91.039924)" fill="#2d3bbc" stroke-width="0"><tspan y="0" font-weight="400" stroke-width="0"><![CDATA[
Zona de división
]]></tspan></text><text dx="0" dy="0" font-family="&quot;Linux Libertine&quot;" font-size="14" font-weight="400" transform="translate(10.233109 172.884269)" fill="#2d3bbc" stroke-width="0"><tspan y="0" font-weight="400" stroke-width="0"><![CDATA[
Inicio de zona de
]]></tspan><tspan x="0" y="14" font-weight="400" stroke-width="0"><![CDATA[
elongación
]]></tspan></text><text dx="0" dy="0" font-family="&quot;Linux Libertine&quot;" font-size="14" font-weight="400" transform="translate(10.233109 250.026977)" fill="#2d3bbc" stroke-width="0"><tspan y="0" font-weight="400" stroke-width="0"><![CDATA[
Final de zona de
]]></tspan><tspan x="0" y="14" font-weight="400" stroke-width="0"><![CDATA[
elongación
]]></tspan></text><text dx="0" dy="0" font-family="&quot;Linux Libertine&quot;" font-size="14" font-weight="400" transform="translate(10.936113 334.026979)" fill="#2d3bbc" stroke-width="0"><tspan y="0" font-weight="400" stroke-width="0"><![CDATA[
Zona de
]]></tspan><tspan x="0" y="14" font-weight="400" stroke-width="0"><![CDATA[
diferenciación
]]></tspan><tspan x="0" y="42" font-weight="400" stroke-width="0"><![CDATA[
 
]]></tspan></text><text dx="0" dy="0" font-family="&quot;Linux Libertine&quot;" font-size="14" font-weight="400" transform="translate(20.114966 434.50186)" stroke-width="0"><tspan y="0" font-weight="400" stroke-width="0"><![CDATA[
Haz vascular
]]></tspan><tspan x="0" y="14" font-weight="400" stroke-width="0"><![CDATA[
colateral maduro
]]></tspan></text><path d="M167.476254,152.657043h32.985703" transform="translate(.000001 0)" fill="none" stroke="#000" stroke-width="1.2"/><path d="M167.476254,152.657043h32.985703" transform="translate(7.437379 88.852483)" fill="none" stroke="#000" stroke-width="1.2"/><path d="M167.476254,152.657043l35.594116.000001" transform="translate(-2.60841 109.174082)" fill="none" stroke="#000" stroke-width="1.2"/><path d="M167.476254,152.657043h41.172896" transform="translate(-17.242665 77.20363)" fill="none" stroke="#000" stroke-width="1.2"/><path d="M186.96689,173.679187h24.402476" fill="none" stroke="#000" stroke-width="1.2"/><text dx="0" dy="0" font-family="&quot;Linux Libertine&quot;" font-size="10" font-weight="400" transform="translate(201.168128 264.586267)" stroke-width="0"><tspan y="0" font-weight="400" stroke-width="0"><![CDATA[
Protoxilema
]]></tspan><tspan x="0" y="20" font-weight="400" stroke-width="0"><![CDATA[
 
]]></tspan></text><text dx="0" dy="0" font-family="&quot;Linux Libertine&quot;" font-size="10" font-weight="400" transform="translate(186.533875 311.251005)" stroke-width="0"><tspan y="0" font-weight="400" stroke-width="0"><![CDATA[
Protofloema 
]]></tspan></text><path d="M167.476254,152.657043l35.594116.000001" transform="translate(-17.242665 155.83882)" fill="none" stroke="#000" stroke-width="1.2"/><path d="M167.476254,152.657043l35.594116.000001" transform="translate(5.229723 170.881025)" fill="none" stroke="#000" stroke-width="1.2"/><path d="M167.476254,152.657043l35.594116.000001" transform="translate(-2.60841 190.178652)" fill="none" stroke="#000" stroke-width="1.2"/><text dx="0" dy="0" font-family="&quot;Linux Libertine&quot;" font-size="10" font-weight="400" transform="translate(209.006264 326.29321)" stroke-width="0"><tspan y="0" font-weight="400" stroke-width="0"><![CDATA[
Metafloema 
]]></tspan></text><text dx="0" dy="0" font-family="&quot;Linux Libertine&quot;" font-size="10" font-weight="400" transform="translate(201.168131 345.590836)" stroke-width="0"><tspan y="0" font-weight="400" stroke-width="0"><![CDATA[
Protoxilema
]]></tspan><tspan x="0" y="20" font-weight="400" stroke-width="0"><![CDATA[
 
]]></tspan></text><path d="M167.476254,152.657043l35.594116.000001" transform="translate(-17.242665 202.553669)" fill="none" stroke="#000" stroke-width="1.2"/><path d="M163.512714,137.533535l39.557656,15.123509" transform="translate(-13.279135 221.398352)" fill="none" stroke="#000" stroke-width="1.2"/><text dx="0" dy="0" font-family="&quot;Linux Libertine&quot;" font-size="10" font-weight="400" transform="translate(186.533875 357.965852)" stroke-width="0"><tspan y="0" font-weight="400" stroke-width="0"><![CDATA[
Metaxilema 
]]></tspan></text><text dx="0" dy="0" font-family="&quot;Linux Libertine&quot;" font-size="10" font-weight="400" transform="translate(190.497405 376.810535)" stroke-width="0"><tspan y="0" font-weight="400" stroke-width="0"><![CDATA[
Cambium fascicular
]]></tspan></text><text dx="0" dy="0" font-family="&quot;Linux Libertine&quot;" font-size="10" font-weight="400" transform="translate(186.533877 411.878499)" stroke-width="0"><tspan y="0" font-weight="400" stroke-width="0"><![CDATA[
Protofloema 
]]></tspan></text><path d="M167.476254,152.657043l35.594116.000001" transform="translate(-17.242665 256.466313)" fill="none" stroke="#000" stroke-width="1.2"/><path d="M167.476254,152.657043l35.594116.000001" transform="translate(-17.242665 268.724409)" fill="none" stroke="#000" stroke-width="1.2"/><path d="M167.476254,152.657043l35.594116.000001" transform="translate(-17.242665 289.873452)" fill="none" stroke="#000" stroke-width="1.2"/><path d="M167.476254,152.657043l35.594116.000001" transform="translate(-17.242665 309.373987)" fill="none" stroke="#000" stroke-width="1.2"/><path d="M167.476254,152.657043l35.594116.000001" transform="translate(-17.242663 322.865712)" fill="none" stroke="#000" stroke-width="1.2"/><text dx="0" dy="0" font-family="&quot;Linux Libertine&quot;" font-size="10" font-weight="400" transform="translate(186.533879 478.277897)" stroke-width="0"><tspan y="0" font-weight="400" stroke-width="0"><![CDATA[
Protoxilema
]]></tspan></text><text dx="0" dy="0" font-family="&quot;Linux Libertine&quot;" font-size="10" font-weight="400" transform="translate(186.533877 464.786173)" stroke-width="0"><tspan y="0" font-weight="400" stroke-width="0"><![CDATA[
Metaxilema
]]></tspan></text><text dx="0" dy="0" font-family="&quot;Linux Libertine&quot;" font-size="10" font-weight="400" transform="translate(186.533877 445.285636)" stroke-width="0"><tspan y="0" font-weight="400" stroke-width="0"><![CDATA[
Cambium fascicular
]]></tspan></text><text dx="0" dy="0" font-family="&quot;Linux Libertine&quot;" font-size="10" font-weight="400" transform="translate(186.533877 424.136593)" stroke-width="0"><tspan y="0" font-weight="400" stroke-width="0"><![CDATA[
Metafloema 
]]></tspan></text></g><g transform="matrix(5.375189 0 0 5.375189-160.736472-1333.090183)"><rect width="6.956148" height="4.052544" rx="0" ry="0" transform="matrix(1 0 0 0.619364 54.374781 322.777769)" fill="#4aca53" stroke-width="0"/><rect width="6.956148" height="4.052544" rx="0" ry="0" transform="matrix(1 0 0 0.619364 54.374785 335.130711)" fill="#b461cd" stroke-width="0"/><rect width="6.956148" height="4.052544" rx="0" ry="0" transform="matrix(1 0 0 0.619364 54.374781 325.287769)" fill="#bbfb0d" stroke-width="0"/><rect width="6.956148" height="5.023885" rx="0" ry="0" transform="translate(54.374785 327.735889)" fill="#1245ae" stroke-width="0"/><rect width="6.956148" height="4.052544" rx="0" ry="0" transform="matrix(1 0 0 0.619364 54.374785 332.620711)" fill="#fb3fcc" stroke-width="0"/></g></g><path d="M129.538253,412.316607l20.695305-32.407921l20.695303,32.407921h-41.390608Z" transform="translate(-.800581-13.415043)" fill="url(#ez2XPWbwC3o162-fill)" stroke-width="1.2"/></svg>
