<svg id="e8go5KQxHaG1" xmlns="http://www.w3.org/2000/svg" xmlns:xlink="http://www.w3.org/1999/xlink" viewBox="0 0 300 210" shape-rendering="geometricPrecision" text-rendering="geometricPrecision"><g><rect width="76.300525" height="31.890746" rx="5" ry="5" transform="translate(144.849738 6.326655)" fill="#edd2d2" stroke="#b17676"/><rect width="76.300525" height="31.890746" rx="5" ry="5" transform="translate(144.849738 38.217401)" fill="#edd2d2" stroke="#b17676"/><line x1="-72.608394" y1="0" x2="72.608395" y2="0" transform="translate(183 38.217401)" fill="none" stroke="#767fb1" stroke-width="1.5" stroke-dasharray="4,2"/><text dx="0" dy="0" font-family="&quot;Linux Libertine&quot;" font-size="9" font-weight="400" transform="translate(226.701919 25.420823)" fill="#a14e4e" stroke-width="0"><tspan y="0" font-weight="400" stroke-width="0"><![CDATA[
Célula embrionaria
]]></tspan></text><text dx="0" dy="0" font-family="&quot;Linux Libertine&quot;" font-size="9" font-weight="400" transform="translate(226.211404 57.311569)" fill="#a14e4e" stroke-width="0"><tspan y="0" font-weight="400" stroke-width="0"><![CDATA[
Célula derivada
]]></tspan></text></g><g transform="matrix(0 1-1 0 301.109254 39.608384)"><rect width="76.300525" height="31.890746" rx="5" ry="5" transform="translate(72.241344 75.218512)" fill="#edd2d2" stroke="#b17676"/><rect width="76.300525" height="31.890746" rx="5" ry="5" transform="translate(72.241344 107.109259)" fill="#edd2d2" stroke="#b17676"/><line x1="-47.230254" y1="0" x2="56.028149" y2="-0.000001" transform="matrix(0 1-1 0 110.391606 102.710311)" fill="none" stroke="#767fb1" stroke-width="1.5" stroke-dasharray="4,2"/></g><text dx="0" dy="0" font-family="&quot;Linux Libertine&quot;" font-size="15" font-weight="400" transform="translate(9.632321 38.774098)" stroke-width="0"><tspan y="0" font-size="15" font-weight="400" stroke-width="0"><![CDATA[
Periclinales
]]></tspan><tspan x="0" y="10" font-size="10" font-weight="400" stroke-width="0"><![CDATA[
(paralelas a la superficie)
]]></tspan><tspan x="0" y="20" font-size="10" font-weight="400" stroke-width="0"><![CDATA[
 
]]></tspan></text><text dx="0" dy="0" font-family="&quot;Linux Libertine&quot;" font-size="15" font-weight="400" transform="translate(9.384099 150.611947)" stroke-width="0"><tspan y="0" font-size="15" font-weight="400" stroke-width="0"><![CDATA[
Anticlinales
]]></tspan><tspan x="0" y="10" font-size="10" font-weight="400" stroke-width="0"><![CDATA[
(perpendiculares a la superficie)
]]></tspan><tspan x="0" y="20" font-size="10" font-weight="400" stroke-width="0"><![CDATA[
 
]]></tspan></text></svg>
