<svg id="eL18sqvdXT71" xmlns="http://www.w3.org/2000/svg" xmlns:xlink="http://www.w3.org/1999/xlink" viewBox="0 0 650 350" shape-rendering="geometricPrecision" text-rendering="geometricPrecision"><path d="M62.576519,227.740691l65.94432-.000002-8.030078-91.693586q27.26849-10.387996,29.216239-25.96999t.175643-10.566253q-17.341027,20.526113-31.143069,20.526113c0,0-2.477289-19.110519-2.477289-19.110519q14.716888-10.516144,14.716888-17.146617v-4.736427q-.052823,6.038419-19.839754,11.3669c0,0-4.144378-6.827827-15.59074-6.630473-11.446365,0-15.59074,6.630473-15.59074,6.630473q-19.786931-5.328481-19.839754-11.3669v4.736427q0,6.630473,14.716888,17.146617c0,0-2.477289,19.110519-2.477289,19.110519q-13.802042,0-31.143069-20.526113-1.772106-5.015741.175643,10.566253t29.216239,25.96999l-8.030078,91.693586" transform="matrix(1.826445 0 0 1.826444-24.514414-114.116025)" fill="#d2f3d1" stroke="#587f57" stroke-width="0.6"/><path d="M126.927279,28.013343q5.782316-7.867757,23.072714-7.867757t22.587226,7.867756" transform="translate(0 22.000001)" fill="none" stroke="#985f5f" stroke-width="2" stroke-linecap="round"/><path d="M171.587219,32.433769l-43.65994.299713q7.893371-8.654017,21.82997-8.654017t21.82997,8.354304Z" transform="translate(0 23.599426)" fill="#d6b9b9" stroke="#d6b9b9" stroke-width="4" stroke-linecap="round" stroke-linejoin="round"/><text dx="0" dy="0" font-family="&quot;Linux Libertine&quot;" font-size="15" font-weight="400" transform="translate(215.255353 22.695046)" stroke-width="0"><tspan y="0" font-weight="400" stroke-width="0"><![CDATA[
Túnica
]]></tspan></text><text dx="0" dy="0" font-family="&quot;Linux Libertine&quot;" font-size="15" font-weight="400" transform="translate(64.365154 22.593877)" stroke-width="0"><tspan y="0" font-weight="400" stroke-width="0"><![CDATA[
Corpus
]]></tspan></text><path d="M168.368842,46.079466l27.186492-28.276018h19.156507" transform="translate(.000001 0)" fill="none" stroke="#000"/><path d="M140.318392,52.0059L126.850156,17.803448h-17.052619" transform="translate(.000001 0)" fill="none" stroke="#000"/><g transform="translate(0 0.000001)"><path d="M104.444652,140.545963h7.723079l-7.723079,91.425478h-8.666494l8.666494-91.425478Z" fill="#eadeca" stroke="#b87c23" stroke-width="0.6"/><path d="M103.230198,153.855687h7.727437" transform="translate(0 0.000001)" fill="none" stroke="#b87c23" stroke-width="0.6"/><path d="M103.230198,153.855687h7.727437" transform="matrix(1.020404 0 0 1-3.345985 14.643828)" fill="none" stroke="#b87c23" stroke-width="0.6"/><path d="M103.230198,153.855687h7.727437" transform="translate(-2.609653 29.040645)" fill="none" stroke="#b87c23" stroke-width="0.6"/><path d="M103.041913,153.855687h7.915722" transform="translate(-3.863718 43.690566)" fill="none" stroke="#b87c23" stroke-width="0.6"/><path d="M102.532876,153.855687c2.054294,0,6.340586,0,8.424759,0" transform="translate(-5.024559 61.270057)" fill="none" stroke="#b87c23" stroke-width="0.6"/></g><g transform="matrix(-1 0 0 1 299.945892 0.000001)"><path d="M104.444652,140.545963h7.723079l-7.723079,91.425478h-8.666494l8.666494-91.425478Z" fill="#eadeca" stroke="#b87c23" stroke-width="0.6"/><path d="M103.230198,153.855687h7.727437" transform="translate(0 0.000001)" fill="none" stroke="#b87c23" stroke-width="0.6"/><path d="M103.230198,153.855687h7.727437" transform="matrix(1.020404 0 0 1-3.345985 14.643828)" fill="none" stroke="#b87c23" stroke-width="0.6"/><path d="M103.230198,153.855687h7.727437" transform="translate(-2.609653 29.040645)" fill="none" stroke="#b87c23" stroke-width="0.6"/><path d="M103.041913,153.855687h7.915722" transform="translate(-3.863718 43.690566)" fill="none" stroke="#b87c23" stroke-width="0.6"/><path d="M102.532876,153.855687c2.054294,0,6.340586,0,8.424759,0" transform="translate(-5.024559 61.270057)" fill="none" stroke="#b87c23" stroke-width="0.6"/></g><path d="M192.851976,161.385462l13.369851-7.529773l14.811937-.000001" transform="translate(.000001 0.000001)" fill="none" stroke="#000"/><text dx="0" dy="0" font-family="&quot;Linux Libertine&quot;" font-size="15" font-weight="400" transform="translate(221.033765 158.761966)" stroke-width="0"><tspan y="0" font-weight="400" stroke-width="0"><![CDATA[
Protodermis
]]></tspan></text><text dx="0" dy="0" font-family="&quot;Linux Libertine&quot;" font-size="15" font-weight="400" transform="translate(485.113407 278.308366)" stroke-width="0"><tspan y="0" font-weight="400" stroke-width="0"><![CDATA[
Protodermis
]]></tspan></text><text dx="0" dy="0" font-family="&quot;Linux Libertine&quot;" font-size="15" font-weight="400" transform="translate(317.878605 84.133029)" fill="#e45959" stroke-width="0"><tspan y="0" font-weight="400" stroke-width="0"><![CDATA[
Zona de
]]></tspan><tspan x="0" y="15" font-weight="400" stroke-width="0"><![CDATA[
división
]]></tspan></text><text dx="0" dy="0" font-family="&quot;Linux Libertine&quot;" font-size="15" font-weight="400" transform="translate(317.878605 183.775835)" fill="#e45959" stroke-width="0"><tspan y="0" font-weight="400" stroke-width="0"><![CDATA[
Zona de
]]></tspan><tspan x="0" y="15" font-weight="400" stroke-width="0"><![CDATA[
elongación
]]></tspan></text><path d="M278.714037,38.903155v95.463235" transform="translate(26 99.642809)" fill="none" stroke="#e45959" stroke-width="3"/><path d="M278.714037,38.903155v63.293626" transform="translate(26 199.642809)" fill="none" stroke="#e45959" stroke-width="3"/><text dx="0" dy="0" font-family="&quot;Linux Libertine&quot;" font-size="15" font-weight="400" transform="translate(317.878605 272.310558)" fill="#e45959" stroke-width="0"><tspan y="0" font-weight="400" stroke-width="0"><![CDATA[
Zona de
]]></tspan><tspan x="0" y="15" font-weight="400" stroke-width="0"><![CDATA[
diferenciación
]]></tspan></text><g transform="translate(-2 0)"><line x1="-3.806711" y1="57.635865" x2="3.806711" y2="-57.635866" transform="translate(128.864677 184.981432)" fill="none" stroke="#3f5787" stroke-width="3"/><line x1="-3.806711" y1="57.635865" x2="3.806711" y2="-57.635866" transform="translate(133.864677 184.981432)" fill="none" stroke="#3f5787" stroke-width="3"/><line x1="-3.806711" y1="57.635865" x2="3.806711" y2="-57.635866" transform="translate(123.864677 182.981432)" fill="none" stroke="#3f5787" stroke-width="3"/></g><g transform="matrix(-1 0 0 1 301.729338 0)"><line x1="-3.806711" y1="57.635865" x2="3.806711" y2="-57.635866" transform="translate(128.864677 184.981432)" fill="none" stroke="#3f5787" stroke-width="3"/><line x1="-3.806711" y1="57.635865" x2="3.806711" y2="-57.635866" transform="translate(133.864677 184.981432)" fill="none" stroke="#3f5787" stroke-width="3"/><line x1="-3.806711" y1="57.635865" x2="3.806711" y2="-57.635866" transform="translate(123.864677 182.981432)" fill="none" stroke="#3f5787" stroke-width="3"/></g><path d="M123.057966,231.971442L93.778158,197.546254h-12.385821" transform="translate(.000001 0)" fill="none" stroke="#000"/><text dx="0" dy="0" font-family="&quot;Linux Libertine&quot;" font-size="15" font-weight="400" transform="translate(2.763615 202.394851)" stroke-width="0"><tspan y="0" font-weight="400" stroke-width="0"><![CDATA[
Procambium
]]></tspan></text><text dx="0" dy="0" font-family="&quot;Linux Libertine&quot;" font-size="15" font-weight="400" transform="translate(557.060999 91.551996)" stroke-width="0"><tspan y="0" font-weight="400" stroke-width="0"><![CDATA[
Procambium
]]></tspan></text><text dx="0" dy="0" font-family="&quot;Linux Libertine&quot;" font-size="15" font-weight="400" transform="translate(76.738618 331.539244)" stroke-width="0"><tspan y="0" font-weight="400" stroke-width="0"><![CDATA[
Meristema fundamental
]]></tspan></text><text dx="0" dy="0" font-family="&quot;Linux Libertine&quot;" font-size="15" font-weight="400" transform="translate(402.601157 62.996041)" stroke-width="0"><tspan y="0" font-weight="400" stroke-width="0"><![CDATA[
Meristema fundamental
]]></tspan></text><path d="M278.714037,38.903155v95.463235" transform="translate(26 0.000001)" fill="none" stroke="#e45959" stroke-width="3"/><path d="M109.87563,236.009199L150,318.035474v-86.064033" transform="translate(0 0.000002)" fill="none" stroke="#000"/><g><ellipse rx="71.969998" ry="71.969998" transform="translate(518.798534 175)" fill="#eadeca" stroke="#b87c23"/><line x1="-71.969998" y1="0" x2="71.969998" y2="0" transform="translate(518.798534 175)" fill="none" stroke="#b87c23"/><line x1="-71.969998" y1="0" x2="71.969998" y2="0" transform="matrix(0 1-1 0 518.798534 175)" fill="none" stroke="#b87c23"/><line x1="-71.969998" y1="0" x2="71.969998" y2="0" transform="matrix(.707107 0.707107-.707107 0.707107 518.798534 175)" fill="none" stroke="#b87c23"/><line x1="-71.969998" y1="0" x2="71.969998" y2="0" transform="matrix(.707107-.707107 0.707107 0.707107 518.798534 175)" fill="none" stroke="#b87c23"/><line x1="-71.969998" y1="0" x2="71.969998" y2="0" transform="matrix(.92388 0.382683-.382683 0.92388 518.798534 175)" fill="none" stroke="#b87c23"/><line x1="-71.969998" y1="0" x2="71.969998" y2="0" transform="matrix(.92388-.382683 0.382683 0.92388 518.798534 175)" fill="none" stroke="#b87c23"/><line x1="-71.969998" y1="0" x2="71.969998" y2="0" transform="matrix(.382683 0.92388-.92388 0.382683 518.798534 175)" fill="none" stroke="#b87c23"/><line x1="-71.969998" y1="0" x2="71.969998" y2="0" transform="matrix(.382683-.92388 0.92388 0.382683 518.798534 175)" fill="none" stroke="#b87c23"/><ellipse rx="71.969998" ry="71.969998" transform="matrix(.911732 0 0 0.911732 518.798534 175)" fill="#d2f3d1" stroke="#b87c23"/></g><g transform="translate(0 0.000001)"><ellipse rx="3.191859" ry="3.191859" transform="translate(488.064949 150.650133)" fill="#3f5787" stroke-width="0"/><ellipse rx="3.191859" ry="3.191859" transform="translate(494.064949 154.650133)" fill="#3f5787" stroke-width="0"/><ellipse rx="3.191859" ry="3.191859" transform="translate(495.064949 146.650133)" fill="#3f5787" stroke-width="0"/><ellipse rx="3.191859" ry="3.191859" transform="translate(487.064949 157.650133)" fill="#3f5787" stroke-width="0"/><ellipse rx="3.191859" ry="3.191859" transform="translate(481.064949 152.650133)" fill="#3f5787" stroke-width="0"/><ellipse rx="3.191859" ry="3.191859" transform="translate(488.064949 143.650133)" fill="#3f5787" stroke-width="0"/></g><g transform="matrix(0 1-1 0 698.990383-334.41481)"><ellipse rx="3.191859" ry="3.191859" transform="translate(488.064949 150.650133)" fill="#3f5787" stroke-width="0"/><ellipse rx="3.191859" ry="3.191859" transform="translate(494.064949 154.650133)" fill="#3f5787" stroke-width="0"/><ellipse rx="3.191859" ry="3.191859" transform="translate(495.064949 146.650133)" fill="#3f5787" stroke-width="0"/><ellipse rx="3.191859" ry="3.191859" transform="translate(487.064949 157.650133)" fill="#3f5787" stroke-width="0"/><ellipse rx="3.191859" ry="3.191859" transform="translate(481.064949 152.650133)" fill="#3f5787" stroke-width="0"/><ellipse rx="3.191859" ry="3.191859" transform="translate(488.064949 143.650133)" fill="#3f5787" stroke-width="0"/></g><g transform="matrix(.866025 0.5-.5 0.866025 139.713368-189.307448)"><ellipse rx="3.191859" ry="3.191859" transform="translate(488.064949 150.650133)" fill="#3f5787" stroke-width="0"/><ellipse rx="3.191859" ry="3.191859" transform="translate(494.064949 154.650133)" fill="#3f5787" stroke-width="0"/><ellipse rx="3.191859" ry="3.191859" transform="translate(495.064949 146.650133)" fill="#3f5787" stroke-width="0"/><ellipse rx="3.191859" ry="3.191859" transform="translate(487.064949 157.650133)" fill="#3f5787" stroke-width="0"/><ellipse rx="3.191859" ry="3.191859" transform="translate(481.064949 152.650133)" fill="#3f5787" stroke-width="0"/><ellipse rx="3.191859" ry="3.191859" transform="translate(488.064949 143.650133)" fill="#3f5787" stroke-width="0"/></g><g transform="matrix(-1 0 0-1 1006.055344 287.91654)"><ellipse rx="3.191859" ry="3.191859" transform="translate(488.064949 150.650133)" fill="#3f5787" stroke-width="0"/><ellipse rx="3.191859" ry="3.191859" transform="translate(494.064949 154.650133)" fill="#3f5787" stroke-width="0"/><ellipse rx="3.191859" ry="3.191859" transform="translate(495.064949 146.650133)" fill="#3f5787" stroke-width="0"/><ellipse rx="3.191859" ry="3.191859" transform="translate(487.064949 157.650133)" fill="#3f5787" stroke-width="0"/><ellipse rx="3.191859" ry="3.191859" transform="translate(481.064949 152.650133)" fill="#3f5787" stroke-width="0"/><ellipse rx="3.191859" ry="3.191859" transform="translate(488.064949 143.650133)" fill="#3f5787" stroke-width="0"/></g><g transform="matrix(0-1 1 0 368.148411 695.803051)"><ellipse rx="3.191859" ry="3.191859" transform="translate(488.064949 150.650133)" fill="#3f5787" stroke-width="0"/><ellipse rx="3.191859" ry="3.191859" transform="translate(494.064949 154.650133)" fill="#3f5787" stroke-width="0"/><ellipse rx="3.191859" ry="3.191859" transform="translate(495.064949 146.650133)" fill="#3f5787" stroke-width="0"/><ellipse rx="3.191859" ry="3.191859" transform="translate(487.064949 157.650133)" fill="#3f5787" stroke-width="0"/><ellipse rx="3.191859" ry="3.191859" transform="translate(481.064949 152.650133)" fill="#3f5787" stroke-width="0"/><ellipse rx="3.191859" ry="3.191859" transform="translate(488.064949 143.650133)" fill="#3f5787" stroke-width="0"/></g><g transform="matrix(-.5 0.866025-.866025-.5 922.839549-159.997179)"><ellipse rx="3.191859" ry="3.191859" transform="translate(488.064949 150.650133)" fill="#3f5787" stroke-width="0"/><ellipse rx="3.191859" ry="3.191859" transform="translate(494.064949 154.650133)" fill="#3f5787" stroke-width="0"/><ellipse rx="3.191859" ry="3.191859" transform="translate(495.064949 146.650133)" fill="#3f5787" stroke-width="0"/><ellipse rx="3.191859" ry="3.191859" transform="translate(487.064949 157.650133)" fill="#3f5787" stroke-width="0"/><ellipse rx="3.191859" ry="3.191859" transform="translate(481.064949 152.650133)" fill="#3f5787" stroke-width="0"/><ellipse rx="3.191859" ry="3.191859" transform="translate(488.064949 143.650133)" fill="#3f5787" stroke-width="0"/></g><path d="M515.798536,161.385463L475.642608,70.220491" fill="none" stroke="#000"/><path d="M551.276483,150.45828l44.594532-53.437406" fill="none" stroke="#000"/><path d="M521.798536,242.617297v22.289458" fill="none" stroke="#000"/></svg>
