<svg id="euQEV3pLYiC1" xmlns="http://www.w3.org/2000/svg" xmlns:xlink="http://www.w3.org/1999/xlink" viewBox="0 0 300 300" shape-rendering="geometricPrecision" text-rendering="geometricPrecision"><path d="M280.88102,149.99999c0,7.34134-.60444,14.54151-1.76627,21.55346.15624-1.09006.30821-2.13827.46291-3.1288l-22.91303,14.80867-18.15657-20.63864c.58028-4.11486.88037-8.31974.88037-12.59469c0-49.36787-40.02056-89.38843-89.38843-89.38843s-89.38843,40.02056-89.38843,89.38843h-41.49256c0-72.28359,58.59741-130.881,130.881-130.88101h.00001c72.28359.00001,130.881,58.59742,130.881,130.88101Zm-92.48489,80.74503l-.87254.54008l22.13836,35.23755c-17.89073,9.17883-38.17146,14.35836-59.66193,14.35836-22.31736,0-43.33009-5.5858-61.71638-15.43558c1.05479.53053,2.06728,1.0412,3.01654,1.53391l-6.74777-26.43428.00019-.00008-.00019.00008l6.74777,26.43428l6.68983,3.12394-7.78393-26.01171l24.185-12.07721c10.91075,4.74377,22.95266,7.37407,35.60892,7.37407h.00002c13.74376,0,26.76307-3.10175,38.3961-8.6434l.00001-.00001Z" fill="#ccf6cc" stroke-width="0"/><text dx="0" dy="0" font-family="&quot;Linux Libertine&quot;" font-size="15" font-weight="400" transform="translate(104.435864 48.887)" stroke-width="0"><tspan y="0" font-weight="400" stroke-width="0"><![CDATA[
Esporofito (2n)
]]></tspan></text><text dx="0" dy="0" font-family="&quot;Linux Libertine&quot;" font-size="15" font-weight="400" transform="translate(105.269695 261.230505)" stroke-width="0"><tspan y="0" font-weight="400" stroke-width="0"><![CDATA[
Gametofito (n)
]]></tspan></text><text dx="0" dy="0" font-family="&quot;Linux Libertine&quot;" font-size="10" font-weight="400" transform="translate(256.319801 199.003507)" stroke-width="0"><tspan y="0" font-weight="400" stroke-width="0"><![CDATA[
Meiosis
]]></tspan></text><text dx="0" dy="0" font-family="&quot;Linux Libertine&quot;" font-size="10" font-weight="400" transform="translate(55.883778 254.468453)" stroke-width="0"><tspan y="0" font-weight="400" stroke-width="0"><![CDATA[
Mitosis
]]></tspan></text><text dx="0" dy="0" font-family="&quot;Linux Libertine&quot;" font-size="10" font-weight="400" transform="translate(219.260903 251.207707)" stroke-width="0"><tspan y="0" font-weight="400" stroke-width="0"><![CDATA[
Desarrollo
]]></tspan></text><text dx="0" dy="0" font-family="&quot;Linux Libertine&quot;" font-size="12.5" font-weight="400" transform="translate(219.142485 224.47016)" stroke-width="0"><tspan y="0" font-weight="400" stroke-width="0"><![CDATA[
Espora
]]></tspan></text><text dx="0" dy="0" font-family="&quot;Linux Libertine&quot;" font-size="12.5" font-weight="400" transform="translate(48.994277 230.01779)" stroke-width="0"><tspan y="0" font-weight="400" stroke-width="0"><![CDATA[
Gametos
]]></tspan></text><text dx="0" dy="0" font-family="&quot;Linux Libertine&quot;" font-size="12.5" font-weight="400" transform="translate(33.095745 203.555898)" stroke-width="0"><tspan y="0" font-weight="400" stroke-width="0"><![CDATA[
Cigoto
]]></tspan></text><text dx="0" dy="0" font-family="&quot;Linux Libertine&quot;" font-size="12.5" font-weight="400" transform="translate(16.869529 175.888086)" stroke-width="0"><tspan y="0" font-weight="400" stroke-width="0"><![CDATA[
Embrión
]]></tspan></text><g transform="translate(.000001 0)"><path d="M203.728583,247.954255c8.625945-3.570077,16.191489-7.922277,21.116704-15.844553" transform="translate(.000001 0.000001)" fill="none" stroke="#000" stroke-width="2" stroke-linecap="round"/><polygon points="0,-30 25.980762,15 -25.980762,15 0,-30" transform="matrix(-.058249-.130675 0.130675-.058249 204.566419 247.283872)" stroke="#000"/></g><g transform="matrix(.869505-.493925 0.493925 0.869505-54.514406 93.662999)"><path d="M203.728583,247.954255c8.625945-3.570077,16.191489-7.922277,21.116704-15.844553" transform="translate(.000001 0.000001)" fill="none" stroke="#000" stroke-width="2" stroke-linecap="round"/><polygon points="0,-30 25.980762,15 -25.980762,15 0,-30" transform="matrix(-.058249-.130675 0.130675-.058249 204.566419 247.283872)" stroke="#000"/></g><g transform="matrix(-.003825 0.999993-.999993-.003825 329.399426 28.328489)"><path d="M208.769444,245.919537c3.599961-1.195335,4.319794-1.885953,7.168151-5.34885" transform="translate(.000001 0.000001)" fill="none" stroke="#000" stroke-width="2" stroke-linecap="round"/><polygon points="0,-30 25.980762,15 -25.980762,15 0,-30" transform="matrix(-.023358-.14115 0.14115-.023358 208.245536 245.907215)" stroke="#000"/></g><g transform="matrix(.879364 0.476151-.476151 0.879364 12.711446-71.02359)"><path d="M197.065083,245.241481c6.882679,3.076247,15.656125-.183929,18.872512-4.670794" transform="translate(-.099231-.085204)" fill="none" stroke="#000" stroke-width="2" stroke-linecap="round"/><polygon points="0,-30 25.980762,15 -25.980762,15 0,-30" transform="matrix(.095304-.106706 0.106706 0.095304 196.721771 243.942286)" stroke="#000"/></g><g transform="matrix(-.440852 0.89758-.89758-.440852 350.764769 81.490823)"><path d="M203.728583,247.954255c3.018016-.244366,4.788784-1.740946,9.093945-4.46655" transform="translate(.000001 0.000001)" fill="none" stroke="#000" stroke-width="2" stroke-linecap="round"/><polygon points="0,-30 25.980762,15 -25.980762,15 0,-30" transform="matrix(-.058249-.130675 0.130675-.058249 204.53842 248.078599)" stroke="#000"/></g><g transform="matrix(-.205791 0.978596-.978596-.205791 327.658016 34.079212)"><path d="M203.728583,247.954255c3.749152-.614323,6.694526-3.06621,9.397225-5.478331" transform="translate(.000001 0.000001)" fill="none" stroke="#000" stroke-width="2" stroke-linecap="round"/><polygon points="0,-30 25.980762,15 -25.980762,15 0,-30" transform="matrix(-.058249-.130675 0.130675-.058249 204.53842 248.078599)" stroke="#000"/></g><g transform="matrix(.061475 0.998109-.998109 0.061475 290.538486-8.937588)"><path d="M203.728583,247.954255c5.216258-1.231908,6.512515-9.610031,10.151948-12.818467" transform="translate(.000001 0.000001)" fill="none" stroke="#000" stroke-width="2" stroke-linecap="round"/><path d="M203.728583,247.954255c5.216258-1.231908,2.300189-4.448184,9.894306-4.146754" transform="translate(.000001 0.000001)" fill="none" stroke="#000" stroke-width="2" stroke-linecap="round"/><polygon points="0,-30 25.980762,15 -25.980762,15 0,-30" transform="matrix(-.058249-.130675 0.130675-.058249 204.53842 248.078599)" stroke="#000"/></g><text dx="0" dy="0" font-family="&quot;Linux Libertine&quot;" font-size="15" font-weight="400" transform="translate(89.417566 146.236111)" stroke-width="0"><tspan y="0" font-weight="400" stroke-width="0"><![CDATA[
Generación Alterna
]]></tspan></text><text dx="0" dy="0" font-family="&quot;Linux Libertine&quot;" font-size="10" font-weight="400" transform="translate(85.24115 158.907173)" stroke-width="0"><tspan y="0" font-weight="400" stroke-width="0"><![CDATA[
Helechos, Coníferas y Antófitas
]]></tspan></text></svg>
