<svg id="eqYsFRnrxuW1" xmlns="http://www.w3.org/2000/svg" xmlns:xlink="http://www.w3.org/1999/xlink" viewBox="30 20 260 260" shape-rendering="geometricPrecision" text-rendering="geometricPrecision"><path d="M-39.932956,25.292266c0-13.968533,10.256697-35.010776,32.857276-46.297627s43.391669-2.681682,43.391669,11.286851-14.547496,30.098268-36.315989,35.010776-39.932956,0-39.932956,0Z" transform="translate(179.676259 110.970325)" fill="#62b55a" stroke="#295325"/><path d="M-39.932956,25.292266c0-13.968533,10.256697-35.010776,32.857276-46.297627s43.391669-2.681682,43.391669,11.286851-14.547496,30.098268-36.315989,35.010776-39.932956,0-39.932956,0Z" transform="matrix(-1 0 0 1 99.810347 110.970325)" fill="#62b55a" stroke="#295325"/><path d="M0,0h10.116906v123.98741c0,0-1.181735,84.999997-5.062496,84.999997s-5.05441-84.999997-5.05441-84.999997L0,0Z" transform="translate(134.15018 57.329137)" fill="#62b55a" stroke="#295325"/><rect width="16.36127" height="16.36127" rx="0" ry="0" transform="matrix(.684102 1.079919-.684953 1.307593 138.748359 26.719173)" fill="#62b55a" stroke="#295325"/><rect width="16.36127" height="16.36127" rx="0" ry="0" transform="matrix(.913888 0.893884-.36625 1.429972 129.774373 27.760667)" fill="#62b55a" stroke="#295325"/><rect width="16.36127" height="16.36127" rx="0" ry="0" transform="matrix(.373715 1.222521-1.006756 1.079538 149.091792 28.117302)" fill="#62b55a" stroke="#295325"/><path d="M155.206244,143.784181v78.803288" fill="none" stroke="#000"/><text dx="0" dy="0" font-family="&quot;Linux Libertine&quot;" font-size="15" font-weight="400" transform="translate(159.274911 187.996491)" stroke-width="0"><tspan y="0" font-weight="400" stroke-width="0"><![CDATA[
Hipocotilo
]]></tspan></text><text dx="0" dy="0" font-family="&quot;Linux Libertine&quot;" font-size="15" font-weight="400" transform="translate(159.274911 77.996491)" stroke-width="0"><tspan y="0" font-weight="400" stroke-width="0"><![CDATA[
Epicotilo
]]></tspan></text><text dx="0" dy="0" font-family="&quot;Linux Libertine&quot;" font-size="15" font-weight="400" transform="translate(37.924857 164.662858)" stroke-width="0"><tspan y="0" font-weight="400" stroke-width="0"><![CDATA[
                Eje
]]></tspan><tspan x="0" y="15" font-weight="400" stroke-width="0"><![CDATA[
embrionario
]]></tspan><tspan x="0" y="30" font-weight="400" stroke-width="0"><![CDATA[
 
]]></tspan></text><text dx="0" dy="0" font-family="&quot;Linux Libertine&quot;" font-size="15" font-weight="400" transform="translate(223.518295 116.532967)" stroke-width="0"><tspan y="0" font-weight="400" stroke-width="0"><![CDATA[
Cotiledón
]]></tspan></text><text dx="0" dy="0" font-family="&quot;Linux Libertine&quot;" font-size="15" font-weight="400" transform="translate(176.641892 51.937483)" stroke-width="0"><tspan y="0" font-weight="400" stroke-width="0"><![CDATA[
Plúmula
]]></tspan></text><path d="M189.992249,211.251816h-34.786005" transform="translate(-14.350357-164.226378)" fill="none" stroke="#000"/><path d="M189.992249,211.251816h-34.786005" transform="translate(-15.350357 29.773622)" fill="none" stroke="#000"/><text dx="0" dy="0" font-family="&quot;Linux Libertine&quot;" font-size="15" font-weight="400" transform="translate(175.641892 245.937483)" stroke-width="0"><tspan y="0" font-weight="400" stroke-width="0"><![CDATA[
Radícula
]]></tspan></text><path d="M155.206244,175.781901v35.469915" transform="translate(0-110)" fill="none" stroke="#000"/><path d="M155.206244,146.117304v238.19924" transform="translate(-37-118)" fill="none" stroke="#000"/><path d="M189.992249,211.251816h-34.786005" transform="translate(32.526046-99.630891)" fill="none" stroke="#000"/></svg>
