<svg id="eBRjGaQfSOW1" xmlns="http://www.w3.org/2000/svg" xmlns:xlink="http://www.w3.org/1999/xlink" viewBox="0 0 300 230" shape-rendering="geometricPrecision" text-rendering="geometricPrecision"><g transform="translate(0-19.999999)"><g transform="translate(26.848516-37.066154)"><path d="M88.523573,143.861172c-4.60352-10.35792-.374493-17.969045,6.243066-24.442745c8.343475-7.568612,20.163159-13.184633,27.18954-5.322819c3.308779,5.322819,0,14.87115-13.09126,20.140399-7.76844,14.011043-14.522896,16.150391-20.341346,9.625165Z" transform="translate(-.586655 38.77235)" fill="#d9e6d0" stroke="#94a389" stroke-width="0.6"/><path d="M95.01476,136.71529c4.288318,0,6.587248-8.632633,2.69206-10.76826s-6.627067,10.76826-2.69206,10.76826Z" transform="translate(-.586657 38.772349)" fill="rgba(93,66,103,0.8)" stroke-width="0.6"/></g><g transform="matrix(-.014236-.999899 0.999899-.014236 4.376799 235.562314)"><path d="M88.523573,143.861172c-4.60352-10.35792-.374493-17.969045,6.243066-24.442745c8.343475-7.568612,20.163159-13.184633,27.18954-5.322819c3.308779,5.322819,0,14.87115-13.09126,20.140399-7.76844,14.011043-14.522896,16.150391-20.341346,9.625165Z" transform="translate(-38.760078-1.138528)" fill="#d9e6d0" stroke="#94a389" stroke-width="0.6"/><path d="M95.01476,136.71529c4.288318,0,6.587248-8.632633,2.69206-10.76826s-6.627067,10.76826-2.69206,10.76826Z" transform="translate(-38.76008-1.138529)" fill="rgba(93,66,103,0.8)" stroke-width="0.6"/></g><g transform="matrix(-.999807 0.019657-.019657-.999807 276.024922 255.267143)"><path d="M88.523573,143.861172c-4.60352-10.35792-.374493-17.969045,6.243066-24.442745c8.343475-7.568612,20.163159-13.184633,27.18954-5.322819c3.308779,5.322819,0,14.87115-13.09126,20.140399-7.76844,14.011043-14.522896,16.150391-20.341346,9.625165Z" transform="translate(1.348672-38.753347)" fill="#d9e6d0" stroke="#94a389" stroke-width="0.6"/><path d="M95.01476,136.71529c4.288318,0,6.587248-8.632633,2.69206-10.76826s-6.627067,10.76826-2.69206,10.76826Z" transform="translate(1.34867-38.753348)" fill="rgba(93,66,103,0.8)" stroke-width="0.6"/></g><g transform="matrix(.011358 0.999935-.999935 0.011358 295.98299-14.492515)"><path d="M88.523573,143.861172c-4.60352-10.35792-.374493-17.969045,6.243066-24.442745c8.343475-7.568612,20.163159-13.184633,27.18954-5.322819c3.308779,5.322819,0,14.87115-13.09126,20.140399-7.76844,14.011043-14.522896,16.150391-20.341346,9.625165Z" transform="translate(38.763167 1.026999)" fill="#d9e6d0" stroke="#94a389" stroke-width="0.6"/><path d="M95.01476,136.71529c4.288318,0,6.587248-8.632633,2.69206-10.76826s-6.627067,10.76826-2.69206,10.76826Z" transform="translate(38.763165 1.026998)" fill="rgba(93,66,103,0.8)" stroke-width="0.6"/></g><path d="M115.37209,110.281599c-3.936789-6.313842-5.80542-18.894336,1.352642-25.643079-6.735487-7.004503-18.607414-15.924405-26.94652-1.178508-3.200183,4.998549-5.693912,18.329231-5.655892,26.279403.312593,13.577303,27.036772,24.830493,35.265469,27.637064-11.297786-14.859251-7.294589-20.967899-4.015699-27.09488Z" transform="translate(-.586654 38.772353)" fill="#f3f7f0" stroke="#b3c6a6" stroke-width="0.6"/><path d="M115.37209,110.281599c-3.936789-6.313842-5.80542-18.894336,1.352642-25.643079-6.735487-7.004503-18.607414-15.924405-26.94652-1.178508-3.200183,4.998549-5.693912,18.329231-5.655892,26.279403.312593,13.577303,27.036772,24.830493,35.265469,27.637064-11.297786-14.859251-7.294589-20.967899-4.015699-27.09488Z" transform="matrix(-.043311 0.999062-.999062-.043311 265.377309 3.451741)" fill="#f3f7f0" stroke="#b3c6a6" stroke-width="0.6"/><path d="M115.37209,110.281599c-3.936789-6.313842-5.80542-18.894336,1.352642-25.643079-6.735487-7.004503-18.607414-15.924405-26.94652-1.178508-3.200183,4.998549-5.693912,18.329231-5.655892,26.279403.312593,13.577303,27.036772,24.830493,35.265469,27.637064-11.297786-14.859251-7.294589-20.967899-4.015699-27.09488Z" transform="matrix(-.998658-.051795 0.051795-.998658 294.266845 265.717616)" fill="#f3f7f0" stroke="#b3c6a6" stroke-width="0.6"/><path d="M115.37209,110.281599c-3.936789-6.313842-5.80542-18.894336,1.352642-25.643079-6.735487-7.004503-18.607414-15.924405-26.94652-1.178508-3.200183,4.998549-5.693912,18.329231-5.655892,26.279403.312593,13.577303,27.036772,24.830493,35.265469,27.637064-11.297786-14.859251-7.294589-20.967899-4.015699-27.09488Z" transform="matrix(.020376-.999792 0.999792 0.020376 36.799118 297.110761)" fill="#f3f7f0" stroke="#b3c6a6" stroke-width="0.6"/><path d="M118.387791,83.352274c8.161232-14.015416,9.146825-21.623867,20.475476-33.757258-4.845933-5.721098-13.508588-12.040992-32.265922-4.143429-19.599928,8.112108-22.475023,25.481601-16.819131,34.589151c5.194469-9.511695,19.034616-6.921094,28.609577,3.311536Z" transform="translate(-.586652 38.772357)" fill="#f3f7f0" stroke="#b3c6a6" stroke-width="0.6"/><path d="M118.387791,83.352274c8.161232-14.015416,9.146825-21.623867,20.475476-33.757258-4.845933-5.721098-13.508588-12.040992-32.265922-4.143429-19.599928,8.112108-22.475023,25.481601-16.819131,34.589151c5.194469-9.511695,19.034616-6.921094,28.609577,3.311536Z" transform="matrix(-.00533 0.999986-.999986-.00533 262.042037-.215469)" fill="#f3f7f0" stroke="#b3c6a6" stroke-width="0.6"/><path d="M118.387791,83.352274c8.161232-14.015416,9.146825-21.623867,20.475476-33.757258-4.845933-5.721098-13.508588-12.040992-32.265922-4.143429-19.599928,8.112108-22.475023,25.481601-16.819131,34.589151c5.194469-9.511695,19.034616-6.921094,28.609577,3.311536Z" transform="matrix(-.017453-.999848 0.999848-.017453 40.85301 300.098078)" fill="#f3f7f0" stroke="#b3c6a6" stroke-width="0.6"/><path d="M118.387791,83.352274c8.161232-14.015416,9.146825-21.623867,20.475476-33.757258-4.845933-5.721098-13.508588-12.040992-32.265922-4.143429-19.599928,8.112108-22.475023,25.481601-16.819131,34.589151c5.194469-9.511695,19.034616-6.921094,28.609577,3.311536Z" transform="matrix(-.999911-.013308 0.013308-.999911 298.210354 262.386584)" fill="#f3f7f0" stroke="#b3c6a6" stroke-width="0.6"/></g><text dx="0" dy="0" font-family="&quot;Linux Libertine&quot;" font-size="20" font-weight="400" transform="translate(89.3005 25.585087)" stroke-width="0"><tspan y="0" font-weight="400" stroke-width="0"><![CDATA[
Vaso resinífero
]]></tspan></text><text dx="0" dy="0" font-family="&quot;Linux Libertine&quot;" font-size="15" font-weight="400" transform="translate(12.582717 49.425144)" stroke-width="0"><tspan y="0" font-weight="400" stroke-width="0"><![CDATA[
Célula de la vaina
]]></tspan></text><text dx="0" dy="0" font-family="&quot;Linux Libertine&quot;" font-size="15" font-weight="400" transform="translate(201.701771 49.425144)" stroke-width="0"><tspan y="0" font-weight="400" stroke-width="0"><![CDATA[
Célula epitelial
]]></tspan></text><text dx="0" dy="0" font-family="&quot;Linux Libertine&quot;" font-size="15" font-weight="400" transform="translate(4.807216 212.824212)" stroke-width="0"><tspan y="0" font-weight="400" stroke-width="0"><![CDATA[
Vaso o tubo resinífero 
]]></tspan></text><text dx="0" dy="0" font-family="&quot;Linux Libertine&quot;" font-size="15" font-weight="400" transform="translate(207.337413 200.199332)" fill="#e38888" stroke-width="0"><tspan y="0" font-weight="400" stroke-width="0"><![CDATA[
Dirección de
]]></tspan><tspan x="0" y="15" font-weight="400" stroke-width="0"><![CDATA[
formación
]]></tspan></text><path d="M112.353304,99.161201L66.145432,73.053595" transform="translate(0-20)" fill="none" stroke="#000"/><path d="M170.817707,130.322674l76.750252-57.269079" transform="translate(0-19.999999)" fill="none" stroke="#000"/><path d="M164.615007,140.910539l82.952952-67.856944" transform="translate(-98.469575 58.228627)" fill="none" stroke="#000"/><line x1="-22.640007" y1="-22.640007" x2="22.640007" y2="22.640007" transform="translate(176.498607 155.869088)" fill="none" stroke="#e38888" stroke-width="3"/><polygon points="0,-18.393282 15.929049,9.196641 -15.929049,9.196641 0,-18.393282" transform="matrix(-.218887 0.218887-.218887-.218887 199.8247 179.132422)" fill="#e38888" stroke-width="0"/></svg>
