<svg id="eyeB23rHqUw1" xmlns="http://www.w3.org/2000/svg" xmlns:xlink="http://www.w3.org/1999/xlink" viewBox="0 0 300 300" shape-rendering="geometricPrecision" text-rendering="geometricPrecision"><g transform="translate(0 0.000001)"><ellipse rx="38.27563" ry="38.27563" transform="translate(214.073741 74.022034)" fill="none" stroke="#000" stroke-width="2"/><path d="M-42.739307,0c0-23.604267,19.13504-42.739307,42.739307-42.739307c21.760646,0,39.722943,16.262673,42.396098,37.297226.226477,1.782104-3.657627,3.59846-3.657627,5.442081c0,1.346987,3.938524,2.67942,3.816624,3.994573C40.540856,25.725852,22.25728,42.739307,0,42.739307c-23.604267,0-42.739307-19.13504-42.739307-42.739307Z" transform="translate(214.073741 74.022034)" fill="none" stroke="#000" stroke-width="2"/></g><g transform="translate(-127.945982 0.000006)"><ellipse rx="38.27563" ry="38.27563" transform="translate(214.073741 74.022034)" fill="none" stroke="#000" stroke-width="2"/><path d="M-38.27563,0c0-1.368223-4.399384-2.721429-4.273655-4.056763C-40.505963,-25.758302,-22.236044,-42.739307,0,-42.739307c21.760646,0,39.722943,16.262673,42.396098,37.297226.226477,1.782104-3.657627,3.59846-3.657627,5.442081c0,1.346987,3.938524,2.67942,3.816624,3.994573C40.540856,25.725852,22.25728,42.739307,0,42.739307c-22.505333,0-40.947896-17.394791-42.61636-39.473046-.081472-1.07808,4.34073-2.167327,4.34073-3.266261Z" transform="translate(214.073741 74.022034)" fill="none" stroke="#000" stroke-width="2"/></g><text dx="0" dy="0" font-family="&quot;Linux Libertine&quot;" font-size="15" font-weight="400" transform="translate(62.572641 24.161863)" stroke-width="0"><tspan y="0" font-weight="400" stroke-width="0"><![CDATA[
Parietal 
]]></tspan></text><text dx="0" dy="0" font-family="&quot;Linux Libertine&quot;" font-size="15" font-weight="400" transform="translate(186.186525 24.161862)" stroke-width="0"><tspan y="0" font-weight="400" stroke-width="0"><![CDATA[
Marginal
]]></tspan></text><path d="M-12.897685,0c0-3.92099,4.245575-7.099581,12.897685-7.099581s12.897685,3.178591,12.897685,7.099581-4.307905,7.099581-12.897685,7.099581-12.897685-3.178591-12.897685-7.099581Z" transform="matrix(.952395-.304866 0.304866 0.952395 62.333482 64.318514)" fill="#605e5e" stroke-width="0"/><path d="M-12.897685,0c0-3.92099,4.245575-7.099581,12.897685-7.099581s12.897685,3.178591,12.897685,7.099581-4.307905,7.099581-12.897685,7.099581-12.897685-3.178591-12.897685-7.099581Z" transform="matrix(.981359 0.192181-.192181 0.981359 61.907039 79.898374)" fill="#605e5e" stroke-width="0"/><g transform="matrix(-1 0 0 1 172.288757-.553441)"><path d="M-12.897685,0c0-3.92099,4.245575-7.099581,12.897685-7.099581s12.897685,3.178591,12.897685,7.099581-4.307905,7.099581-12.897685,7.099581-12.897685-3.178591-12.897685-7.099581Z" transform="matrix(.981359 0.192181-.192181 0.981359 61.907039 79.898374)" fill="#605e5e" stroke-width="0"/><path d="M-12.897685,0c0-3.92099,4.245575-7.099581,12.897685-7.099581s12.897685,3.178591,12.897685,7.099581-4.307905,7.099581-12.897685,7.099581-12.897685-3.178591-12.897685-7.099581Z" transform="matrix(.952395-.304866 0.304866 0.952395 62.333482 64.318514)" fill="#605e5e" stroke-width="0"/></g><g transform="matrix(-1 0 0 1 300.288757-.553441)"><path d="M-12.897685,0c0-3.92099,4.245575-7.099581,12.897685-7.099581s12.897685,3.178591,12.897685,7.099581-4.307905,7.099581-12.897685,7.099581-12.897685-3.178591-12.897685-7.099581Z" transform="matrix(.981359 0.192181-.192181 0.981359 61.907039 79.898374)" fill="#605e5e" stroke-width="0"/><path d="M-12.897685,0c0-3.92099,4.245575-7.099581,12.897685-7.099581s12.897685,3.178591,12.897685,7.099581-4.307905,7.099581-12.897685,7.099581-12.897685-3.178591-12.897685-7.099581Z" transform="matrix(.952395-.304866 0.304866 0.952395 62.333482 64.318514)" fill="#605e5e" stroke-width="0"/></g><g transform="translate(0 11.000001)"><ellipse rx="31.43496" ry="48.815593" transform="translate(86.097982 187.096864)" fill="none" stroke="#000" stroke-width="2"/><path d="M36.64251,253.31628c15.61216-27.32128,9.76312-48.37852,9.76312-78.10495c0-17.21519,5.46905-25.29067,1.69793-44.14627-1.46005-7.30024-3.64661-12.30015-6.36725-19.10175" transform="translate(2.801477 0)" fill="none" stroke="#000" stroke-width="2"/><path d="M36.64251,253.31628c15.61216-27.32128,9.76312-48.37852,9.76312-78.10495c0-17.21519,5.46905-25.29067,1.69793-44.14627-1.46005-7.30024-3.64661-12.30015-6.36725-19.10175" transform="matrix(-1 0 0 1 169.856713 0)" fill="none" stroke="#000" stroke-width="2"/></g><g transform="translate(127.744647 11.00001)"><ellipse rx="31.43496" ry="48.815593" transform="translate(86.097982 187.096864)" fill="none" stroke="#000" stroke-width="2"/><path d="M36.64251,253.31628c15.61216-27.32128,9.76312-48.37852,9.76312-78.10495c0-17.21519,5.46905-25.29067,1.69793-44.14627-1.46005-7.30024-3.64661-12.30015-6.36725-19.10175" transform="translate(2.801477 0)" fill="none" stroke="#000" stroke-width="2"/><path d="M36.64251,253.31628c15.61216-27.32128,9.76312-48.37852,9.76312-78.10495c0-17.21519,5.46905-25.29067,1.69793-44.14627-1.46005-7.30024-3.64661-12.30015-6.36725-19.10175" transform="matrix(-1 0 0 1 169.856713 0)" fill="none" stroke="#000" stroke-width="2"/></g><g transform="translate(127.744646 0.000009)"><path d="M-12.897685,0c0-3.92099,4.245575-7.099581,12.897685-7.099581s12.897685,3.178591,12.897685,7.099581-4.307905,7.099581-12.897685,7.099581-12.897685-3.178591-12.897685-7.099581Z" transform="matrix(-.952395 0.304866-.304866-.952395 97.29801 171.985945)" fill="#605e5e" stroke-width="0"/><path d="M-12.897685,0c0-3.92099,4.245575-7.099581,12.897685-7.099581s12.897685,3.178591,12.897685,7.099581-4.307905,7.099581-12.897685,7.099581-12.897685-3.178591-12.897685-7.099581Z" transform="matrix(-.992347 0.123479-.123479-.992347 102.111561 187.1697)" fill="#605e5e" stroke-width="0"/><path d="M-12.897685,0c0-3.92099,4.245575-7.099581,12.897685-7.099581s12.897685,3.178591,12.897685,7.099581-4.307905,7.099581-12.897685,7.099581-12.897685-3.178591-12.897685-7.099581Z" transform="matrix(-.978003-.208593 0.208593-.978003 99.296573 219.886734)" fill="#605e5e" stroke-width="0"/><path d="M-12.897685,0c0-3.92099,4.245575-7.099581,12.897685-7.099581s12.897685,3.178591,12.897685,7.099581-4.307905,7.099581-12.897685,7.099581-12.897685-3.178591-12.897685-7.099581Z" transform="matrix(-.999983-.005841 0.005841-.999983 103.013077 203.501765)" fill="#605e5e" stroke-width="0"/></g><g transform="translate(0 0.000009)"><path d="M-12.897685,0c0-3.92099,4.245575-7.099581,12.897685-7.099581s11.465599,3.276563,11.465599,7.197553-2.875819,7.001609-11.465599,7.001609-12.897685-3.178591-12.897685-7.099581Z" transform="matrix(-.952395 0.304866-.304866-.952395 97.29801 171.985945)" fill="#605e5e" stroke-width="0"/><path d="M-12.897685,0c0-3.92099,4.245575-7.099581,12.897685-7.099581s12.897685,3.178591,12.897685,7.099581-4.307905,7.099581-12.897685,7.099581-12.897685-3.178591-12.897685-7.099581Z" transform="matrix(-.992347 0.123479-.123479-.992347 102.111561 187.1697)" fill="#605e5e" stroke-width="0"/><path d="M-12.897685,0c0-3.92099,4.245575-7.099581,12.897685-7.099581s12.897685,3.178591,12.897685,7.099581-4.307905,7.099581-12.897685,7.099581-12.897685-3.178591-12.897685-7.099581Z" transform="matrix(-.978003-.208593 0.208593-.978003 99.296573 219.886734)" fill="#605e5e" stroke-width="0"/><path d="M-12.897685,0c0-3.92099,4.245575-7.099581,12.897685-7.099581s12.897685,3.178591,12.897685,7.099581-4.307905,7.099581-12.897685,7.099581-12.897685-3.178591-12.897685-7.099581Z" transform="matrix(-.999983-.005841 0.005841-.999983 103.013077 203.501765)" fill="#605e5e" stroke-width="0"/></g><g transform="matrix(-1 0 0 1 171.853714 0.000026)"><path d="M-12.897685,0c0-3.92099,4.245575-7.099581,12.897685-7.099581s11.159478,2.622201,11.159478,6.543191-2.569698,7.655971-11.159478,7.655971-12.897685-3.178591-12.897685-7.099581Z" transform="matrix(-.952395 0.304866-.304866-.952395 97.29801 171.985945)" fill="#605e5e" stroke-width="0"/><path d="M-12.897685,0c0-3.92099,4.245575-7.099581,12.897685-7.099581s12.897685,3.178591,12.897685,7.099581-4.307905,7.099581-12.897685,7.099581-12.897685-3.178591-12.897685-7.099581Z" transform="matrix(-.992347 0.123479-.123479-.992347 102.111561 187.1697)" fill="#605e5e" stroke-width="0"/><path d="M-12.897685,0c0-3.92099,4.245575-7.099581,12.897685-7.099581s12.897685,3.178591,12.897685,7.099581-4.307905,7.099581-12.897685,7.099581-12.897685-3.178591-12.897685-7.099581Z" transform="matrix(-.978003-.208593 0.208593-.978003 99.296573 219.886734)" fill="#605e5e" stroke-width="0"/><path d="M-12.897685,0c0-3.92099,4.245575-7.099581,12.897685-7.099581s12.897685,3.178591,12.897685,7.099581-4.307905,7.099581-12.897685,7.099581-12.897685-3.178591-12.897685-7.099581Z" transform="matrix(-.999983-.005841 0.005841-.999983 103.013077 203.501765)" fill="#605e5e" stroke-width="0"/></g></svg>
