<svg id="e9KoNpQylDI1" xmlns="http://www.w3.org/2000/svg" xmlns:xlink="http://www.w3.org/1999/xlink" viewBox="0 0 850 350" shape-rendering="geometricPrecision" text-rendering="geometricPrecision"><g transform="matrix(1.727003 0 0 1.727004-204.517896-131.704114)"><g transform="translate(.000001 0)"><path d="M150,205.275684l-22.610075,34.510115" transform="translate(.000001 0.000001)" fill="none" stroke="#716140" stroke-width="2" stroke-linecap="round"/><path d="M150,205.275685L144.04998,239.7858" transform="translate(0 0.000001)" fill="none" stroke="#716140" stroke-width="2" stroke-linecap="round"/><path d="M150.000001,205.275686l8.330027,34.510115" transform="translate(0 0.000001)" fill="none" stroke="#716140" stroke-width="2" stroke-linecap="round"/><path d="M150.000001,205.275687L177.965093,239.7858" transform="translate(0 0.000001)" fill="none" stroke="#716140" stroke-width="2" stroke-linecap="round"/></g><path d="M150,205.275685l.000002-50.422976" fill="none" stroke="#5c973e" stroke-width="4" stroke-linecap="round"/><g transform="translate(.000001 0)"><path d="M149.973896,180.653266c-1.013897-7.291436,8.579458-10.703648,16.593211-9.711527-1.450683,5.37272-6.764987,12.590156-16.194992,11.21913-.398218-1.507603,0,0-.398219-1.507603Z" transform="translate(2 4.515935)" fill="#5c973e" stroke="#265110" stroke-width="0.6"/><path d="M149.973896,180.653266c-1.013897-7.291436,8.579458-10.703648,16.593211-9.711527-1.450683,5.37272-6.764987,12.590156-16.194992,11.21913-.398218-1.507603,0,0-.398219-1.507603Z" transform="matrix(-1 0 0 1 298.000004 4.515935)" fill="#5c973e" stroke="#265110" stroke-width="0.6"/><path d="M149.973896,180.653266c-1.013897-7.291436,8.579458-10.703648,16.593211-9.711527-1.450683,5.37272-6.764987,12.590156-16.194992,11.21913-.398218-1.507603,0,0-.398219-1.507603Z" transform="matrix(-1 0 0 1 297.699704-9.033491)" fill="#5c973e" stroke="#265110" stroke-width="0.6"/><path d="M149.973896,180.653266c-1.013897-7.291436,8.579458-10.703648,16.593211-9.711527-1.450683,5.37272-6.764987,12.590156-16.194992,11.21913-.398218-1.507603,0,0-.398219-1.507603Z" transform="matrix(-1 0 0 1 297.899904 18.240093)" fill="#5c973e" stroke="#265110" stroke-width="0.6"/><path d="M149.973896,180.653266c-1.013897-7.291436,8.579458-10.703648,16.593211-9.711527-1.450683,5.37272-6.764987,12.590156-16.194992,11.21913-.398218-1.507603,0,0-.398219-1.507603Z" transform="translate(2.1001-9.033491)" fill="#5c973e" stroke="#265110" stroke-width="0.6"/><path d="M149.973896,180.653266c-1.013897-7.291436,8.579458-10.703648,16.593211-9.711527-1.450683,5.37272-6.764987,12.590156-16.194992,11.21913-.398218-1.507603,0,0-.398219-1.507603Z" transform="translate(2.1001 18.240093)" fill="#5c973e" stroke="#265110" stroke-width="0.6"/></g></g><g transform="matrix(1.727003 0 0 1.727004-31.372313-131.704114)"><g transform="translate(.000001 0)"><path d="M150,205.275684l-22.610075,34.510115" transform="translate(.000001 0.000001)" fill="none" stroke="#716140" stroke-width="2" stroke-linecap="round"/><path d="M150,205.275685L144.04998,239.7858" transform="translate(0 0.000001)" fill="none" stroke="#716140" stroke-width="2" stroke-linecap="round"/><path d="M150.000001,205.275686l8.330027,34.510115" transform="translate(0 0.000001)" fill="none" stroke="#716140" stroke-width="2" stroke-linecap="round"/><path d="M150.000001,205.275687L177.965093,239.7858" transform="translate(0 0.000001)" fill="none" stroke="#716140" stroke-width="2" stroke-linecap="round"/></g><path d="M150,205.275685l.000002-50.422976" fill="none" stroke="#5c973e" stroke-width="4" stroke-linecap="round"/><g transform="translate(.000001 0)"><path d="M149.973896,180.653266c-1.013897-7.291436,8.579458-10.703648,16.593211-9.711527-1.450683,5.37272-6.764987,12.590156-16.194992,11.21913-.398218-1.507603,0,0-.398219-1.507603Z" transform="translate(2 4.515935)" fill="#5c973e" stroke="#265110" stroke-width="0.6"/><path d="M149.973896,180.653266c-1.013897-7.291436,8.579458-10.703648,16.593211-9.711527-1.450683,5.37272-6.764987,12.590156-16.194992,11.21913-.398218-1.507603,0,0-.398219-1.507603Z" transform="matrix(-1 0 0 1 298.000004 4.515935)" fill="#5c973e" stroke="#265110" stroke-width="0.6"/><path d="M149.973896,180.653266c-1.013897-7.291436,8.579458-10.703648,16.593211-9.711527-1.450683,5.37272-6.764987,12.590156-16.194992,11.21913-.398218-1.507603,0,0-.398219-1.507603Z" transform="matrix(-1 0 0 1 297.699704-9.033491)" fill="#5c973e" stroke="#265110" stroke-width="0.6"/><path d="M149.973896,180.653266c-1.013897-7.291436,8.579458-10.703648,16.593211-9.711527-1.450683,5.37272-6.764987,12.590156-16.194992,11.21913-.398218-1.507603,0,0-.398219-1.507603Z" transform="matrix(-1 0 0 1 297.899904 18.240093)" fill="#5c973e" stroke="#265110" stroke-width="0.6"/><path d="M149.973896,180.653266c-1.013897-7.291436,8.579458-10.703648,16.593211-9.711527-1.450683,5.37272-6.764987,12.590156-16.194992,11.21913-.398218-1.507603,0,0-.398219-1.507603Z" transform="translate(2.1001-9.033491)" fill="#5c973e" stroke="#265110" stroke-width="0.6"/><path d="M149.973896,180.653266c-1.013897-7.291436,8.579458-10.703648,16.593211-9.711527-1.450683,5.37272-6.764987,12.590156-16.194992,11.21913-.398218-1.507603,0,0-.398219-1.507603Z" transform="translate(2.1001 18.240093)" fill="#5c973e" stroke="#265110" stroke-width="0.6"/></g><path d="M-9.580836,5.221736c0-8.521108,4.652748-12.637575,9.580831-12.637575s9.623164,4.116467,9.623164,12.637575-7.907528,14.032967-9.623159,14.032967-9.580836-5.511859-9.580836-14.032967Z" transform="matrix(.46677 0 0 0.446809 150.000002 147.958965)" fill="#f16969" stroke-width="0"/><g transform="translate(-77.697197 28.737678)"><path d="M203.92696,105.90795c0-4.77112,3.69196-2.62801,5.1082-5.46049c1.25795-2.5159-.79105-8.07093,2.28988-8.6311c3.93063-.71466,1.43745,6.67069-1.5853,4.40362" transform="translate(19.059532-.180024)" fill="none" stroke="#3f5787" stroke-width="1.2"/><path d="M203.92696,105.90795c0-4.77112,3.69196-2.62801,5.1082-5.46049c1.25795-2.5159-.79105-8.07093,2.28988-8.6311c3.93063-.71466,1.43745,6.67069-1.5853,4.40362" transform="translate(19.059532-.180024)" fill="none" stroke="#3f5787" stroke-width="1.2"/><path d="M203.92696,105.90795c0-4.77112,3.69196-2.62801,5.1082-5.46049c1.25795-2.5159-.79105-8.07093,2.28988-8.6311c3.93063-.71466,1.43745,6.67069-1.5853,4.40362" transform="translate(21.526756 6.889082)" fill="none" stroke="#3f5787" stroke-width="1.2"/><path d="M203.92696,105.90795c0-4.77112,3.69196-2.62801,5.1082-5.46049c1.25795-2.5159-.79105-8.07093,2.28988-8.6311c3.93063-.71466,1.43745,6.67069-1.5853,4.40362" transform="translate(10.534015 15.958189)" fill="none" stroke="#3f5787" stroke-width="1.2"/><path d="M203.92696,105.90795c0-4.77112,3.69196-2.62801,5.1082-5.46049c1.25795-2.5159-.79105-8.07093,2.28988-8.6311c3.93063-.71466,1.43745,6.67069-1.5853,4.40362" transform="translate(31.059532 2.819976)" fill="none" stroke="#3f5787" stroke-width="1.2"/><path d="M203.92696,105.90795c0-4.77112,3.69196-2.62801,5.1082-5.46049c1.25795-2.5159-.79105-8.07093,2.28988-8.6311c3.93063-.71466,1.43745,6.67069-1.5853,4.40362" transform="translate(30.059532 14.819976)" fill="none" stroke="#3f5787" stroke-width="1.2"/><path d="M203.92696,105.90795c0-4.77112,3.69196-2.62801,5.1082-5.46049c1.25795-2.5159-.79105-8.07093,2.28988-8.6311c3.93063-.71466,1.43745,6.67069-1.5853,4.40362" transform="translate(31.059532-10.180024)" fill="none" stroke="#3f5787" stroke-width="1.2"/><path d="M203.92696,105.90795c0-4.77112,3.69196-2.62801,5.1082-5.46049c1.25795-2.5159-.79105-8.07093,2.28988-8.6311c3.93063-.71466,1.43745,6.67069-1.5853,4.40362" transform="translate(16.059532-8.180024)" fill="none" stroke="#3f5787" stroke-width="1.2"/><path d="M203.92696,105.90795c0-4.77112,3.69196-2.62801,5.1082-5.46049c1.25795-2.5159-.79105-8.07093,2.28988-8.6311c3.93063-.71466,1.43745,6.67069-1.5853,4.40362" transform="translate(7.059532 8.819976)" fill="none" stroke="#3f5787" stroke-width="1.2"/></g><text dx="0" dy="0" font-family="&quot;Linux Libertine&quot;" font-size="15" font-weight="400" transform="translate(153.327324 159.783507)" fill="#f16969" stroke-width="0"><tspan y="0" font-weight="400" stroke-width="0"><![CDATA[
♂
]]></tspan></text></g><g transform="matrix(1.727003 0 0 1.727004 71.304242-131.704114)"><g transform="translate(.000001 0)"><path d="M150,205.275684l-22.610075,34.510115" transform="translate(.000001 0.000001)" fill="none" stroke="#716140" stroke-width="2" stroke-linecap="round"/><path d="M150,205.275685L144.04998,239.7858" transform="translate(0 0.000001)" fill="none" stroke="#716140" stroke-width="2" stroke-linecap="round"/><path d="M150.000001,205.275686l8.330027,34.510115" transform="translate(0 0.000001)" fill="none" stroke="#716140" stroke-width="2" stroke-linecap="round"/><path d="M150.000001,205.275687L177.965093,239.7858" transform="translate(0 0.000001)" fill="none" stroke="#716140" stroke-width="2" stroke-linecap="round"/></g><path d="M150,205.275685l.000002-50.422976" fill="none" stroke="#5c973e" stroke-width="4" stroke-linecap="round"/><g transform="translate(.000001 0)"><path d="M149.973896,180.653266c-1.013897-7.291436,8.579458-10.703648,16.593211-9.711527-1.450683,5.37272-6.764987,12.590156-16.194992,11.21913-.398218-1.507603,0,0-.398219-1.507603Z" transform="translate(2 4.515935)" fill="#5c973e" stroke="#265110" stroke-width="0.6"/><path d="M149.973896,180.653266c-1.013897-7.291436,8.579458-10.703648,16.593211-9.711527-1.450683,5.37272-6.764987,12.590156-16.194992,11.21913-.398218-1.507603,0,0-.398219-1.507603Z" transform="matrix(-1 0 0 1 298.000004 4.515935)" fill="#5c973e" stroke="#265110" stroke-width="0.6"/><path d="M149.973896,180.653266c-1.013897-7.291436,8.579458-10.703648,16.593211-9.711527-1.450683,5.37272-6.764987,12.590156-16.194992,11.21913-.398218-1.507603,0,0-.398219-1.507603Z" transform="matrix(-1 0 0 1 297.699704-9.033491)" fill="#5c973e" stroke="#265110" stroke-width="0.6"/><path d="M149.973896,180.653266c-1.013897-7.291436,8.579458-10.703648,16.593211-9.711527-1.450683,5.37272-6.764987,12.590156-16.194992,11.21913-.398218-1.507603,0,0-.398219-1.507603Z" transform="matrix(-1 0 0 1 297.899904 18.240093)" fill="#5c973e" stroke="#265110" stroke-width="0.6"/><path d="M149.973896,180.653266c-1.013897-7.291436,8.579458-10.703648,16.593211-9.711527-1.450683,5.37272-6.764987,12.590156-16.194992,11.21913-.398218-1.507603,0,0-.398219-1.507603Z" transform="translate(2.1001-9.033491)" fill="#5c973e" stroke="#265110" stroke-width="0.6"/><path d="M149.973896,180.653266c-1.013897-7.291436,8.579458-10.703648,16.593211-9.711527-1.450683,5.37272-6.764987,12.590156-16.194992,11.21913-.398218-1.507603,0,0-.398219-1.507603Z" transform="translate(2.1001 18.240093)" fill="#5c973e" stroke="#265110" stroke-width="0.6"/></g><path d="M-9.580836,5.221736c0-8.521108,4.652748-12.637575,9.580831-12.637575s9.623164,4.116467,9.623164,12.637575-7.907528,14.032967-9.623159,14.032967-9.580836-5.511859-9.580836-14.032967Z" transform="matrix(.46677 0 0 0.446809 150.000002 147.958965)" fill="#f16969" stroke-width="0"/><text dx="0" dy="0" font-family="&quot;Linux Libertine&quot;" font-size="15" font-weight="400" transform="translate(153.327324 159.783507)" fill="#f16969" stroke-width="0"><tspan y="0" font-weight="400" stroke-width="0"><![CDATA[
♀
]]></tspan></text><g transform="matrix(.543929 0 0 0.543929-29.153072 79.304233)"><path d="M314.634209,34.587701c0,0,.95532,48.281086,0,48.303514-5.888516.138241-8.850999,21.303691,6.044877,20.960543c13.53986.000002,10.814535-20.960543,4.939124-20.960543c0,.138241,0-48.303514,0-48.303514" transform="matrix(.799305 0 0 0.799305 73.493568 32.981025)" fill="none" stroke="#3f5787" stroke-width="3"/><ellipse rx="3.626879" ry="3.626879" transform="translate(329.395876 107.599409)" fill="#3f5787" stroke="#3f5787"/><path d="M275.973937,50.293004c26.19662-26.43479,53.840026-8.358548,52.39324,1.628184" transform="translate(.000002 0)" fill="none" stroke="#000" stroke-width="1.2"/><polygon points="0,-60 51.961524,30 -51.961524,30 0,-60" transform="matrix(.078524 0 0-.078524 328.367179 52.648724)" stroke-width="0"/></g></g><g transform="matrix(1.727003 0 0 1.727004 232.995288-131.704106)"><g transform="translate(.000001 0)"><path d="M150,205.275684l-22.610075,34.510115" transform="translate(.000001 0.000001)" fill="none" stroke="#716140" stroke-width="2" stroke-linecap="round"/><path d="M150,205.275685L144.04998,239.7858" transform="translate(0 0.000001)" fill="none" stroke="#716140" stroke-width="2" stroke-linecap="round"/><path d="M150.000001,205.275686l8.330027,34.510115" transform="translate(0 0.000001)" fill="none" stroke="#716140" stroke-width="2" stroke-linecap="round"/><path d="M150.000001,205.275687L177.965093,239.7858" transform="translate(0 0.000001)" fill="none" stroke="#716140" stroke-width="2" stroke-linecap="round"/></g><path d="M150,205.275685l.000002-50.422976" fill="none" stroke="#5c973e" stroke-width="4" stroke-linecap="round"/><g transform="translate(.000001 0)"><path d="M149.973896,180.653266c-1.013897-7.291436,8.579458-10.703648,16.593211-9.711527-1.450683,5.37272-6.764987,12.590156-16.194992,11.21913-.398218-1.507603,0,0-.398219-1.507603Z" transform="translate(2 4.515935)" fill="#5c973e" stroke="#265110" stroke-width="0.6"/><path d="M149.973896,180.653266c-1.013897-7.291436,8.579458-10.703648,16.593211-9.711527-1.450683,5.37272-6.764987,12.590156-16.194992,11.21913-.398218-1.507603,0,0-.398219-1.507603Z" transform="matrix(-1 0 0 1 298.000004 4.515935)" fill="#5c973e" stroke="#265110" stroke-width="0.6"/><path d="M149.973896,180.653266c-1.013897-7.291436,8.579458-10.703648,16.593211-9.711527-1.450683,5.37272-6.764987,12.590156-16.194992,11.21913-.398218-1.507603,0,0-.398219-1.507603Z" transform="matrix(-1 0 0 1 297.699704-9.033491)" fill="#5c973e" stroke="#265110" stroke-width="0.6"/><path d="M149.973896,180.653266c-1.013897-7.291436,8.579458-10.703648,16.593211-9.711527-1.450683,5.37272-6.764987,12.590156-16.194992,11.21913-.398218-1.507603,0,0-.398219-1.507603Z" transform="matrix(-1 0 0 1 297.899904 18.240093)" fill="#5c973e" stroke="#265110" stroke-width="0.6"/><path d="M149.973896,180.653266c-1.013897-7.291436,8.579458-10.703648,16.593211-9.711527-1.450683,5.37272-6.764987,12.590156-16.194992,11.21913-.398218-1.507603,0,0-.398219-1.507603Z" transform="translate(2.1001-9.033491)" fill="#5c973e" stroke="#265110" stroke-width="0.6"/><path d="M149.973896,180.653266c-1.013897-7.291436,8.579458-10.703648,16.593211-9.711527-1.450683,5.37272-6.764987,12.590156-16.194992,11.21913-.398218-1.507603,0,0-.398219-1.507603Z" transform="translate(2.1001 18.240093)" fill="#5c973e" stroke="#265110" stroke-width="0.6"/></g><path d="M-9.580836,5.221736c0-5.308875,1.806019-8.908036,4.359446-10.867175c1.544998-1.185413,3.081329-26.407528,3.081329-26.407528s4.969856,0,4.969856,0s1.518303,25.621108,2.823038,26.746981c2.343529,2.022261,3.970326,5.51191,3.970326,10.527722c0,8.521108-7.907528,14.032967-9.623159,14.032967s-9.580836-5.511859-9.580836-14.032967Z" transform="matrix(.46677 0 0 0.446809 150.000002 147.958965)" fill="#f16969" stroke-width="0"/></g><g transform="matrix(1.727003 0 0 1.727004 396.861785-131.704098)"><g transform="translate(.000001 0)"><path d="M150,205.275684l-22.610075,34.510115" transform="translate(.000001 0.000001)" fill="none" stroke="#716140" stroke-width="2" stroke-linecap="round"/><path d="M150,205.275685L144.04998,239.7858" transform="translate(0 0.000001)" fill="none" stroke="#716140" stroke-width="2" stroke-linecap="round"/><path d="M150.000001,205.275686l8.330027,34.510115" transform="translate(0 0.000001)" fill="none" stroke="#716140" stroke-width="2" stroke-linecap="round"/><path d="M150.000001,205.275687L177.965093,239.7858" transform="translate(0 0.000001)" fill="none" stroke="#716140" stroke-width="2" stroke-linecap="round"/></g><path d="M150,205.275685l.000002-50.422976" fill="none" stroke="#5c973e" stroke-width="4" stroke-linecap="round"/><g transform="translate(.000001 0)"><path d="M149.973896,180.653266c-1.013897-7.291436,8.579458-10.703648,16.593211-9.711527-1.450683,5.37272-6.764987,12.590156-16.194992,11.21913-.398218-1.507603,0,0-.398219-1.507603Z" transform="translate(2 4.515935)" fill="#5c973e" stroke="#265110" stroke-width="0.6"/><path d="M149.973896,180.653266c-1.013897-7.291436,8.579458-10.703648,16.593211-9.711527-1.450683,5.37272-6.764987,12.590156-16.194992,11.21913-.398218-1.507603,0,0-.398219-1.507603Z" transform="matrix(-1 0 0 1 298.000004 4.515935)" fill="#5c973e" stroke="#265110" stroke-width="0.6"/><path d="M149.973896,180.653266c-1.013897-7.291436,8.579458-10.703648,16.593211-9.711527-1.450683,5.37272-6.764987,12.590156-16.194992,11.21913-.398218-1.507603,0,0-.398219-1.507603Z" transform="matrix(-1 0 0 1 297.699704-9.033491)" fill="#5c973e" stroke="#265110" stroke-width="0.6"/><path d="M149.973896,180.653266c-1.013897-7.291436,8.579458-10.703648,16.593211-9.711527-1.450683,5.37272-6.764987,12.590156-16.194992,11.21913-.398218-1.507603,0,0-.398219-1.507603Z" transform="matrix(-1 0 0 1 297.899904 18.240093)" fill="#5c973e" stroke="#265110" stroke-width="0.6"/><path d="M149.973896,180.653266c-1.013897-7.291436,8.579458-10.703648,16.593211-9.711527-1.450683,5.37272-6.764987,12.590156-16.194992,11.21913-.398218-1.507603,0,0-.398219-1.507603Z" transform="translate(2.1001-9.033491)" fill="#5c973e" stroke="#265110" stroke-width="0.6"/><path d="M149.973896,180.653266c-1.013897-7.291436,8.579458-10.703648,16.593211-9.711527-1.450683,5.37272-6.764987,12.590156-16.194992,11.21913-.398218-1.507603,0,0-.398219-1.507603Z" transform="translate(2.1001 18.240093)" fill="#5c973e" stroke="#265110" stroke-width="0.6"/></g><path d="M150.000002,154.852709q-1.999999-64.738812,18.667206-63.806719" transform="translate(0 0.000001)" fill="none" stroke="#5c973e"/><path d="M149.973896,180.653266c-1.81116-9.983152,7.920757-14.231141,15.93451-13.23902-6.882809,8.394175-6.106286,16.117649-15.536291,14.746623-.398218-1.507603,0,0-.398219-1.507603Z" transform="matrix(.266625 0.9638-.9638 0.266625 303.826635-102.483504)" fill="#5c973e" stroke="#265110" stroke-width="0.6"/></g><polygon points="0,-60 51.961524,30 -51.961524,30 0,-60" transform="matrix(0 0.426227-.426227 0 136.890123 179.267474)" fill="#f16969" stroke-width="0"/><polygon points="0,-60 51.961524,30 -51.961524,30 0,-60" transform="matrix(.13133 0 0 0.13133 54.532554 317.002639)" fill="#f16969" stroke-width="0"/><polygon points="0,-60 51.961524,30 -51.961524,30 0,-60" transform="matrix(0 0.426227-.426227 0 407.890123 179.267474)" fill="#f16969" stroke-width="0"/><polygon points="0,-60 51.961524,30 -51.961524,30 0,-60" transform="matrix(0 0.426227-.426227 0 573.890123 179.267474)" fill="#f16969" stroke-width="0"/><text dx="0" dy="0" font-family="&quot;Linux Libertine&quot;" font-size="15" font-weight="400" transform="translate(19.97623 306.679825)" stroke-width="0"><tspan y="0" font-weight="400" stroke-width="0"><![CDATA[
Gametofito 
]]></tspan></text><text dx="0" dy="0" font-family="&quot;Linux Libertine&quot;" font-size="15" font-weight="400" transform="translate(242.798139 306.682865)" stroke-width="0"><tspan y="0" font-weight="400" stroke-width="0"><![CDATA[
Fecundación
]]></tspan></text><text dx="0" dy="0" font-family="&quot;Linux Libertine&quot;" font-size="15" font-weight="400" transform="translate(421.20047 306.737241)" stroke-width="0"><tspan y="0" font-weight="400" stroke-width="0"><![CDATA[
Formación del embrión
]]></tspan></text><text dx="0" dy="0" font-family="&quot;Linux Libertine&quot;" font-size="15" font-weight="400" transform="translate(579.991943 306.742072)" stroke-width="0"><tspan y="0" font-weight="400" stroke-width="0"><![CDATA[
Desarrollo del esporofito
]]></tspan></text><text dx="0" dy="0" font-family="&quot;Linux Libertine&quot;" font-size="15" font-weight="400" transform="translate(660.584198 82.961972)" stroke-width="0"><tspan y="0" font-weight="400" stroke-width="0"><![CDATA[
Esporocito
]]></tspan></text><text dx="0" dy="0" font-family="&quot;Linux Libertine&quot;" font-size="15" font-weight="400" transform="translate(781.476408 34.228566)" stroke-width="0"><tspan y="0" font-weight="400" stroke-width="0"><![CDATA[
Esporas
]]></tspan></text><ellipse rx="2.541838" ry="2.759394" transform="translate(695.043285 28.282718)" fill="#f16969" stroke-width="0"/><ellipse rx="2.541838" ry="2.759394" transform="translate(703.845042 28.282718)" fill="#f16969" stroke-width="0"/><ellipse rx="2.541838" ry="2.759394" transform="translate(701.303204 34.505598)" fill="#f16969" stroke-width="0"/><ellipse rx="2.541838" ry="2.759394" transform="translate(708.928718 35.20969)" fill="#f16969" stroke-width="0"/><g transform="matrix(3.008914 0 0 3.008913-1336.176739-101.63257)"><ellipse rx="2.541838" ry="2.759394" transform="matrix(1.426964 0 0 1.426964 675.523449 68.22666)" fill="#f16969" stroke-width="0"/><ellipse rx="2.541838" ry="2.759394" transform="matrix(1.426964 0 0 1.426964 693.217931 60.351548)" fill="#f16969" stroke-width="0"/><ellipse rx="2.541838" ry="2.759394" transform="matrix(1.426964 0 0 1.426964 693.217931 76.101772)" fill="#f16969" stroke-width="0"/><ellipse rx="2.541838" ry="2.759394" transform="matrix(1.426964 0 0 1.426964 711.775959 73.494115)" fill="#f16969" stroke-width="0"/><ellipse rx="2.541838" ry="2.759394" transform="matrix(1.426964 0 0 1.426964 711.775959 52.498231)" fill="#f16969" stroke-width="0"/><ellipse rx="2.541838" ry="2.759394" transform="matrix(1.426964 0 0 1.426964 711.775959 83.976884)" fill="#f16969" stroke-width="0"/><ellipse rx="2.541838" ry="2.759394" transform="matrix(1.426964 0 0 1.426964 711.775959 63.22666)" fill="#f16969" stroke-width="0"/><path d="M688.043285,60.351548l-7.109369,7.875112l7.109368,7.875112" transform="translate(.000002 0)" fill="none" stroke="#f16969" stroke-width="1.7" stroke-linecap="round"/><path d="M688.043285,60.351548l-7.109369,7.875112l7.109368,2.875112" transform="translate(18.452964-7.875112)" fill="none" stroke="#f16969" stroke-width="1.7" stroke-linecap="round"/><path d="M688.043285,65.351548l-7.109369,2.875112l7.109368,7.875112" transform="translate(18.452964 7.875112)" fill="none" stroke="#f16969" stroke-width="1.7" stroke-linecap="round"/></g><path d="M805.495909,180.994495v148.437323h-750.963355v-17.045454" transform="translate(.000002 0)" fill="none" stroke="#f16969" stroke-width="2"/></svg>
