<svg id="e0XqmC5zH6r1" xmlns="http://www.w3.org/2000/svg" xmlns:xlink="http://www.w3.org/1999/xlink" viewBox="20 5 180 195" shape-rendering="geometricPrecision" text-rendering="geometricPrecision"><rect width="27.159662" height="27.159662" rx="5" ry="5" transform="translate(94.264617 7.090728)" fill="#e7d2ed" stroke="#6a117c"/><rect width="27.159662" height="27.159662" rx="5" ry="5" transform="translate(111.844448 49.840338)" fill="#d2edd2" stroke="#237c11"/><rect width="27.159662" height="45" rx="5" ry="5" transform="translate(111.844448 92)" fill="#d2edd2" stroke="#237c11"/><rect width="27.159662" height="45" rx="5" ry="5" transform="translate(111.844448 152)" fill="#d2edd2" stroke="#237c11" stroke-width="3" stroke-miterlimit="7"/><rect width="27.159662" height="27.159662" rx="5" ry="5" transform="translate(76.684786 49.840338)" fill="#e7d2ed" stroke="#6a117c"/><ellipse rx="6.693544" ry="6.693544" transform="translate(93.264617 60.420169)" fill="#6a117c" stroke-width="0"/><ellipse rx="6.693544" ry="6.693544" transform="translate(110.844448 17.670559)" fill="#6a117c" stroke-width="0"/><ellipse rx="6.693544" ry="6.693544" transform="translate(128.424279 60.420169)" fill="#237c11" stroke-width="0"/><ellipse rx="6.693544" ry="6.693544" transform="matrix(.448194 0 0 0.448195 118.424273 96.663034)" fill="#237c11" stroke-width="0"/><g transform="translate(32.844448-.336953)"><line style="mix-blend-mode:overlay" x1="0" y1="-4.70544" x2="0" y2="4.70544" transform="translate(75 41.057869)" fill="none" stroke="#000" stroke-width="2"/><polygon points="0,-15 12.990381,7.5 -12.990381,7.5 0,-15" transform="matrix(-.204041 0 0-.204041 75 46.536106)" stroke-width="0"/></g><g transform="translate(50.424279 40.647572)"><line style="mix-blend-mode:overlay" x1="0" y1="-4.70544" x2="0" y2="4.70544" transform="translate(75 41.898265)" fill="none" stroke="#000" stroke-width="2"/><polygon points="0,-15 12.990381,7.5 -12.990381,7.5 0,-15" transform="matrix(-.204041 0 0-.204041 75 47.536106)" stroke-width="0"/></g><g transform="translate(50.844448 101.663047)"><g transform="translate(0-.015475)"><line style="mix-blend-mode:overlay" x1="0" y1="-4.70544" x2="0" y2="4.70544" transform="translate(75 41.057869)" fill="none" stroke="#000" stroke-width="2"/><polygon points="0,-15 12.990381,7.5 -12.990381,7.5 0,-15" transform="matrix(-.204041 0 0-.204041 75 45.536106)" stroke-width="0"/></g></g><text dx="0" dy="0" font-family="&quot;Linux Libertine&quot;" font-size="8.75" font-weight="400" transform="translate(123.193878 19.219796)" fill="#6a117c" stroke-width="0"><tspan y="0" font-weight="400" stroke-width="0"><![CDATA[
Célula
]]></tspan><tspan x="0" y="8.75" font-weight="400" stroke-width="0"><![CDATA[
meristemática
]]></tspan></text><text dx="0" dy="0" font-family="&quot;Linux Libertine&quot;" font-size="8.75" font-weight="400" transform="translate(141.379179 62.045721)" fill="#237c11" stroke-width="0"><tspan y="0" font-weight="400" stroke-width="0"><![CDATA[
Célula
]]></tspan><tspan x="0" y="8.75" font-weight="400" stroke-width="0"><![CDATA[
derivada
]]></tspan></text><text dx="0" dy="0" font-family="&quot;Linux Libertine&quot;" font-size="8.75" font-weight="400" transform="translate(25.511114 61.987022)" fill="#6a117c" stroke-width="0"><tspan y="0" font-weight="400" stroke-width="0"><![CDATA[
             Célula
]]></tspan><tspan x="0" y="8.75" font-weight="400" stroke-width="0"><![CDATA[
meristemática
]]></tspan></text><text dx="0" dy="0" font-family="&quot;Linux Libertine&quot;" font-size="10" font-weight="400" transform="translate(120.424267 44.765456)" stroke-width="0"><tspan y="0" font-weight="400" stroke-width="0"><![CDATA[
División
]]></tspan></text><text dx="0" dy="0" font-family="&quot;Linux Libertine&quot;" font-size="10" font-weight="400" transform="translate(138.117823 86.749981)" stroke-width="0"><tspan y="0" font-weight="400" stroke-width="0"><![CDATA[
Elongación
]]></tspan></text><text dx="0" dy="0" font-family="&quot;Linux Libertine&quot;" font-size="10" font-weight="400" transform="translate(138.495018 146.260844)" stroke-width="0"><tspan y="0" font-weight="400" stroke-width="0"><![CDATA[
Diferenciación
]]></tspan></text></svg>
