<svg id="eW8HtEKX56S1" xmlns="http://www.w3.org/2000/svg" xmlns:xlink="http://www.w3.org/1999/xlink" viewBox="0 0 500 500" shape-rendering="geometricPrecision" text-rendering="geometricPrecision"><g transform="translate(122.364212 37.003743)"><g transform="translate(-39.245645 221.675189)"><path d="M134.970065,36.861207l-17.000001.048306c0,0-28.038188,29.720479-28.038188,80.189219s28.038188,80.749984,28.038188,80.749984l17.000001.085281" transform="translate(-17 0.000003)" fill="#ece7e7" stroke="#888" stroke-linecap="round" stroke-linejoin="round"/><g transform="translate(.000001 0)"><path d="M117.970064,36.909513c0,0-28.038188,29.720479-28.038188,80.189219s28.038188,80.749984,28.038188,80.749984" transform="translate(-.385217 0.38522)" fill="#ece7e7" stroke="#888" stroke-linecap="round"/><path d="M117.970064,36.909513c0,0-28.038188,29.720479-28.038188,80.189219s28.038188,80.749984,28.038188,80.749984" transform="matrix(-1 0 0 1 235.940128 0.000003)" fill="#ece7e7" stroke="#888" stroke-linecap="round"/></g><path d="M38.145362,304.18674l15.716136,2.868922h48.039973" transform="translate(39.919473-222.999998)" fill="none" stroke="#888" stroke-linecap="round" stroke-dasharray="2,4"/><path d="M37.773587,302.975528l17.345704,4.080136h49.323501" transform="translate(37.920505-158.999998)" fill="none" stroke="#888" stroke-linecap="round" stroke-dasharray="2,4"/></g><g transform="translate(0-5.999999)"><path d="M153.81919,302.861931c3.626179-13.426943,13.846508-35.783709,22.905229-43.892009h17c9.986196,9.891264,21.233924,33.433088,23.850878,46.760929l-48.039974-.000001-15.716133-2.868919Z" transform="translate(.000005 0.000005)" fill="#ece7e7" stroke="#888"/><path d="M193.724424,258.969927c-8.046115,7.969523-19.586787,29.382867-24.189098,46.760929" transform="translate(0 0.000001)" fill="none" stroke="#888"/></g><g transform="translate(0 0.000001)"><path d="M151.448447,365.650719c-5.081063-19.378659-2.214965-49.022296,2.370743-62.788788l15.716135,2.868922h48.039973c4.619806,14.649957,5.817082,46.131343.542352,64.000002h-49.323502l-17.345701-4.080136Z" transform="translate(.000005 0)" fill="#ece7e7" stroke="#888"/><path d="M153.81919,302.861931l47.905229-.000001l15.85088,2.868923h-48.039974l-15.716135-2.868922Z" transform="translate(.000001 0)" fill="#ece7e7" stroke="#888"/><path d="M169.535326,305.730853c-4.380763,13.289106-5.880265,44.160192-.741173,64.000002" transform="translate(.000001 0)" fill="none" stroke="#888"/></g><g transform="translate(0 7.000001)"><path d="M151.448443,365.650716l17.345708,4.080139h49.323501c-5.355047,22.856457-16.290075,41.089191-24.77845,49.793053l-16.614784-.000001c-11.815129-13.481441-23.054768-39.18475-25.275975-53.873191Z" transform="translate(.000004 0.000003)" fill="#ece7e7" stroke="#888"/><path d="M193.339206,419.523908c-12.272527-12.721936-22.63388-38.717677-24.545055-49.79305" transform="translate(.000001 0)" fill="none" stroke="#888"/><path d="M203.724421,365.650719l14.393235,4.080136h-49.323504l-17.345707-4.080136h52.275976Z" transform="translate(.000004 0)" fill="#ece7e7" stroke="#888"/></g><polygon points="0,-29.664049 25.68982,14.832024 -25.68982,14.832024 0,-29.664049" transform="matrix(0 0.523824-.523824 0 124.620513 339.439524)" fill="#e1576c" stroke-width="0"/></g><g transform="translate(-39.245645 4.196253)"><g transform="translate(106.000001 0)"><path d="M125.970066,36.861207l-8.000002.048306c0,0-28.038188,29.720479-28.038188,80.189219s28.038188,80.749984,28.038188,80.749984l8.000001.085281" transform="translate(-8 0.000003)" fill="#ece7e7" stroke="#888" stroke-linecap="round" stroke-linejoin="round"/><g transform="translate(.000001 0)"><path d="M117.970064,36.909513c0,0-28.038188,29.720479-28.038188,80.189219s28.038188,80.749984,28.038188,80.749984" transform="translate(0 0.000003)" fill="#ece7e7" stroke="#888" stroke-linecap="round"/><path d="M117.970064,36.909513c0,0-28.038188,29.720479-28.038188,80.189219s28.038188,80.749984,28.038188,80.749984" transform="matrix(-1 0 0 1 235.940128 0.000003)" fill="#ece7e7" stroke="#888" stroke-linecap="round"/></g></g><g transform="translate(131.000001 0)"><path d="M125.970066,36.861207l-8.000002.048306c0,0-28.038188,29.720479-28.038188,80.189219s28.038188,80.749984,28.038188,80.749984l8.000001.085281" transform="translate(-8 0.000003)" fill="#ece7e7" stroke="#888" stroke-linecap="round" stroke-linejoin="round"/><g transform="translate(.000001 0)"><path d="M117.970064,36.909513c0,0-28.038188,29.720479-28.038188,80.189219s28.038188,80.749984,28.038188,80.749984" transform="translate(0 0.000003)" fill="#ece7e7" stroke="#888" stroke-linecap="round"/><path d="M117.970064,36.909513c0,0-28.038188,29.720479-28.038188,80.189219s28.038188,80.749984,28.038188,80.749984" transform="matrix(-1 0 0 1 235.940128 0.000003)" fill="#ece7e7" stroke="#888" stroke-linecap="round"/></g></g><g transform="translate(.000001 0)"><path d="M134.970065,36.861207l-17.000001.048306c0,0-28.038188,29.720479-28.038188,80.189219s28.038188,80.749984,28.038188,80.749984l17.000001.085281" transform="translate(-17 0.000003)" fill="#ece7e7" stroke="#888" stroke-linecap="round" stroke-linejoin="round"/><path d="M117.970064,36.909513c0,0-28.038188,29.720479-28.038188,80.189219s28.038188,80.749984,28.038188,80.749984" transform="translate(-9 0.000003)" fill="#ece7e7" stroke="#888" stroke-linecap="round" stroke-linejoin="round" stroke-dasharray="2,4"/><g transform="translate(.000001 0)"><path d="M117.970064,36.909513c0,0-28.038188,29.720479-28.038188,80.189219s28.038188,80.749984,28.038188,80.749984" transform="translate(0 0.000003)" fill="#ece7e7" stroke="#888" stroke-linecap="round"/><path d="M117.970064,36.909513c0,0-28.038188,29.720479-28.038188,80.189219s28.038188,80.749984,28.038188,80.749984" transform="matrix(-1 0 0 1 235.940128 0.000003)" fill="#ece7e7" stroke="#888" stroke-linecap="round"/></g></g><polygon points="0,-29.664049 25.68982,14.832024 -25.68982,14.832024 0,-29.664049" transform="matrix(0 0.523824-.523824 0 164.866158 117.379118)" fill="#e1576c" stroke-width="0"/></g><g transform="translate(27.035453 5.602398)"><g transform="translate(159.000001 0)"><path d="M134.970065,36.861207l-17.000001.048306c0,0-28.038188,29.720479-28.038188,80.189219s28.038188,80.749984,28.038188,80.749984l17.000001.085281" transform="translate(-17 0.000003)" fill="#ece7e7" stroke="#888" stroke-linecap="round" stroke-linejoin="round"/><g transform="translate(.000001 0)"><path d="M117.970064,36.909513c0,0-28.038188,29.720479-28.038188,80.189219s28.038188,80.749984,28.038188,80.749984" transform="translate(0 0.000003)" fill="#ece7e7" stroke="#888" stroke-linecap="round"/><path d="M117.970064,36.909513c0,0-28.038188,29.720479-28.038188,80.189219s28.038188,80.749984,28.038188,80.749984" transform="matrix(-1 0 0 1 235.940128 0.000003)" fill="#ece7e7" stroke="#888" stroke-linecap="round"/></g><path d="M276.970066,36.909516v160.939203" transform="translate(-158.907605 0)" fill="none" stroke="#888" stroke-linecap="round" stroke-dasharray="2,4"/></g><g transform="translate(270.000001 0)"><path d="M134.970065,36.861207l-17.000001.048306c0,0-28.038188,29.720479-28.038188,80.189219s28.038188,80.749984,28.038188,80.749984l17.000001.085281" transform="translate(-17 0.000003)" fill="#ece7e7" stroke="#888" stroke-linecap="round" stroke-linejoin="round"/><path d="M117.970064,197.848716v-160.939203c0,0-28.038188,29.720479-28.038188,80.189219s28.038188,80.749984,28.038188,80.749984Z" transform="translate(0 0.000003)" fill="#ece7e7" stroke="#888" stroke-linecap="round" stroke-linejoin="round"/><path d="M117.970064,36.909513c0,0-28.038188,29.720479-28.038188,80.189219s28.038188,80.749984,28.038188,80.749984" transform="matrix(-1 0 0 1 260.940128 0.000003)" fill="#ece7e7" stroke="#888" stroke-linecap="round"/><path d="M428.970065,36.909516h-15.310688v160.939203h15.310688v-160.939203Z" transform="translate(-286 0)" fill="#ece7e7" stroke="#888" stroke-linecap="round" stroke-linejoin="round"/></g><polygon points="0,-29.664049 25.68982,14.832024 -25.68982,14.832024 0,-29.664049" transform="matrix(0 0.523824-.523824 0 321.866158 117.379118)" fill="#e1576c" stroke-width="0"/></g><text dx="0" dy="0" font-family="&quot;Linux Libertine&quot;" font-size="25" font-weight="400" transform="translate(46.832777 27.933465)" stroke-width="0"><tspan y="0" font-weight="400" stroke-width="0"><![CDATA[
División periclinal
]]></tspan></text><text dx="0" dy="0" font-family="&quot;Linux Libertine&quot;" font-size="25" font-weight="400" transform="translate(270.479995 28.701326)" stroke-width="0"><tspan y="0" font-weight="400" stroke-width="0"><![CDATA[
División anticlinal
]]></tspan></text><text dx="0" dy="0" font-family="&quot;Linux Libertine&quot;" font-size="25" font-weight="400" transform="translate(147.522843 279.126993)" stroke-width="0"><tspan y="0" font-weight="400" stroke-width="0"><![CDATA[
División transversal
]]></tspan></text><text dx="0" dy="0" font-family="&quot;Linux Libertine&quot;" font-size="12" font-weight="400" transform="translate(134.358163 224.387192)" stroke-width="0"><tspan y="0" font-weight="400" stroke-width="0"><![CDATA[
     Célula derivada y
]]></tspan><tspan x="0" y="12" font-weight="400" stroke-width="0"><![CDATA[
célula inicial fusiforme
]]></tspan></text><text dx="0" dy="0" font-family="&quot;Linux Libertine&quot;" font-size="12" font-weight="400" transform="translate(32.54902 224.647285)" stroke-width="0"><tspan y="0" font-weight="400" stroke-width="0"><![CDATA[
Célula inicial
]]></tspan><tspan x="0" y="12" font-weight="400" stroke-width="0"><![CDATA[
   fusiforme
]]></tspan><tspan x="0" y="24" font-weight="400" stroke-width="0"><![CDATA[
 
]]></tspan></text><text dx="0" dy="0" font-family="&quot;Linux Libertine&quot;" font-size="12" font-weight="400" transform="translate(267.350416 224.926618)" stroke-width="0"><tspan y="0" font-weight="400" stroke-width="0"><![CDATA[
Célula inicial
]]></tspan><tspan x="0" y="12" font-weight="400" stroke-width="0"><![CDATA[
   fusiforme
]]></tspan><tspan x="0" y="24" font-weight="400" stroke-width="0"><![CDATA[
 
]]></tspan></text><text dx="0" dy="0" font-family="&quot;Linux Libertine&quot;" font-size="12" font-weight="400" transform="translate(380.350416 224.926618)" stroke-width="0"><tspan y="0" font-weight="400" stroke-width="0"><![CDATA[
Células iniciales
]]></tspan><tspan x="0" y="12" font-weight="400" stroke-width="0"><![CDATA[
     fusiformes
]]></tspan><tspan x="0" y="36" font-weight="400" stroke-width="0"><![CDATA[
 
]]></tspan></text><text dx="0" dy="0" font-family="&quot;Linux Libertine&quot;" font-size="12" font-weight="400" transform="translate(269.98861 478.706223)" stroke-width="0"><tspan y="0" font-weight="400" stroke-width="0"><![CDATA[
Células iniciales
]]></tspan><tspan x="0" y="12" font-weight="400" stroke-width="0"><![CDATA[
     radiales
]]></tspan><tspan x="0" y="36" font-weight="400" stroke-width="0"><![CDATA[
 
]]></tspan></text><text dx="0" dy="0" font-family="&quot;Linux Libertine&quot;" font-size="12" font-weight="400" transform="translate(156.988609 478.706223)" stroke-width="0"><tspan y="0" font-weight="400" stroke-width="0"><![CDATA[
Célula inicial
]]></tspan><tspan x="0" y="12" font-weight="400" stroke-width="0"><![CDATA[
   fusiforme
]]></tspan><tspan x="0" y="24" font-weight="400" stroke-width="0"><![CDATA[
 
]]></tspan></text></svg>
