<svg id="ei9nd3DY1bC1" xmlns="http://www.w3.org/2000/svg" xmlns:xlink="http://www.w3.org/1999/xlink" viewBox="0 0 400 300" shape-rendering="geometricPrecision" text-rendering="geometricPrecision"><path d="M56.940081,81.349776C46.286606,61.512271,27.664375,49.56589,27.796091,41.674765c4.785416-4.918652,13.225004,21.425349,36.98103,33.797232l-7.83704,5.877779Z" transform="matrix(.069172 1.165142-1.12423 0.066744 295.401155-18.916084)" fill="#d3cdc0" stroke="#63564c" stroke-width="0.6"/><path d="M56.940081,81.349776C46.286606,61.512271,27.664375,49.56589,27.796091,41.674765c4.785416-4.918652,13.225004,21.425349,36.98103,33.797232l-7.83704,5.877779Z" transform="matrix(-.057603 1.165772-1.124837-.05558 314.525368-.385352)" fill="#d3cdc0" stroke="#63564c" stroke-width="0.6"/><path d="M56.940081,81.349776C46.286606,61.512271,27.664375,49.56589,27.796091,41.674765c4.785416-4.918652,13.225004,21.425349,36.98103,33.797232l-7.83704,5.877779Z" transform="matrix(.20577 1.148913-1.10857 0.198544 276.792397-33.588252)" fill="#d3cdc0" stroke="#63564c" stroke-width="0.6"/><g transform="translate(.000001 0.000001)"><ellipse rx="121.082904" ry="121.082904" transform="translate(150 150)" fill="#d3cdc0" stroke="#63564c"/><ellipse rx="61.285204" ry="61.285204" transform="matrix(1.068359 0 0 1.068358 150 150)" fill="#dcd4c3" stroke="#ca5252" stroke-width="2"/><ellipse rx="61.285204" ry="61.285204" transform="translate(149.999999 150)" fill="#efeadf" stroke="#caca52" stroke-width="2"/></g><g><g transform="matrix(.809773 0 0 1 28.609728 0.000001)"><ellipse rx="5.070986" ry="4.056789" transform="translate(149.464508 94.771586)" fill="#e4aba6" stroke="#cc5c5c" stroke-width="0.5"/><ellipse rx="5.070986" ry="4.056789" transform="translate(154.535494 102.464705)" fill="#e4aba6" stroke="#cc5c5c" stroke-width="0.5"/><ellipse rx="5.070986" ry="4.056789" transform="matrix(1.642486 0 0 1.589051 150 113.519222)" fill="#efeadf" stroke="#cc7f5c"/><ellipse rx="5.070986" ry="4.056789" transform="matrix(1.214821-.184337 0.17834 1.175299 161.419321 122.446774)" fill="#efeadf" stroke="#cc7f5c"/><ellipse rx="5.070986" ry="4.056789" transform="matrix(1.513638 0.637698-.616952 1.464395 142.670976 142.033059)" fill="#efeadf" stroke="#cc7f5c"/><ellipse rx="5.070986" ry="4.056789" transform="matrix(1.382256 0 0 1.526248 157.356016 135.102938)" fill="#efeadf" stroke="#cc7f5c"/><ellipse rx="5.070986" ry="4.056789" transform="matrix(1.34421 0 0 1.589051 144.20647 127.412112)" fill="#efeadf" stroke="#cc7f5c"/><ellipse rx="5.070986" ry="4.056789" transform="matrix(.859195 0 0 0.819742 159.60648 95.351127)" fill="#e4aba6" stroke="#cc5c5c" stroke-width="0.5"/><ellipse rx="5.070986" ry="4.056789" transform="matrix(.859195 0 0 0.819742 139.593889 95.351127)" fill="#e4aba6" stroke="#cc5c5c" stroke-width="0.5"/><ellipse rx="5.070986" ry="4.056789" transform="matrix(1.008537 0 0 1.012677 143.950855 102.464705)" fill="#e4aba6" stroke="#cc5c5c" stroke-width="0.5"/></g><g transform="matrix(-.760479 0.278217-.343574-.939126 315.798214 249.790262)"><ellipse rx="5.070986" ry="4.056789" transform="translate(149.464508 94.771586)" fill="#e4aba6" stroke="#cc5c5c" stroke-width="0.5"/><ellipse rx="5.070986" ry="4.056789" transform="translate(154.535494 102.464705)" fill="#e4aba6" stroke="#cc5c5c" stroke-width="0.5"/><ellipse rx="5.070986" ry="4.056789" transform="matrix(1.642486 0 0 1.589051 150 113.519222)" fill="#efeadf" stroke="#cc7f5c"/><ellipse rx="5.070986" ry="4.056789" transform="matrix(-1.264487-.961764 0.719652-.946168 160.189832 148.191832)" fill="#efeadf" stroke="#cc7f5c"/><ellipse rx="5.070986" ry="4.056789" transform="matrix(-.693092-.527163 0.656414-.863025 142.916376 151.104336)" fill="#efeadf" stroke="#cc7f5c"/><ellipse rx="5.070986" ry="4.056789" transform="matrix(1.34421 0 0 1.589051 144.20647 127.412112)" fill="#efeadf" stroke="#cc7f5c"/><ellipse rx="5.070986" ry="4.056789" transform="matrix(.859195 0 0 0.819742 159.60648 95.351127)" fill="#e4aba6" stroke="#cc5c5c" stroke-width="0.5"/><ellipse rx="5.070986" ry="4.056789" transform="matrix(.859195 0 0 0.819742 139.593889 95.351127)" fill="#e4aba6" stroke="#cc5c5c" stroke-width="0.5"/><ellipse rx="5.070986" ry="4.056789" transform="matrix(1.008537 0 0 1.012677 143.950855 102.464705)" fill="#e4aba6" stroke="#cc5c5c" stroke-width="0.5"/></g><g transform="matrix(.404887-.701284 0.866025 0.5-42.272973 184.626051)"><ellipse rx="5.070986" ry="4.056789" transform="translate(149.464508 94.771586)" fill="#e4aba6" stroke="#cc5c5c" stroke-width="0.5"/><ellipse rx="5.070986" ry="4.056789" transform="translate(154.535494 102.464705)" fill="#e4aba6" stroke="#cc5c5c" stroke-width="0.5"/><ellipse rx="5.070986" ry="4.056789" transform="matrix(1.642486 0 0 1.589051 150 113.519222)" fill="#efeadf" stroke="#cc7f5c"/><ellipse rx="5.070986" ry="4.056789" transform="matrix(1.661271 0 0 1.589051 149.489608 128.036836)" fill="#efeadf" stroke="#cc7f5c"/><ellipse rx="5.070986" ry="4.056789" transform="matrix(.859195 0 0 0.819742 159.60648 95.351127)" fill="#e4aba6" stroke="#cc5c5c" stroke-width="0.5"/><ellipse rx="5.070986" ry="4.056789" transform="matrix(.859195 0 0 0.819742 139.593889 95.351127)" fill="#e4aba6" stroke="#cc5c5c" stroke-width="0.5"/><ellipse rx="5.070986" ry="4.056789" transform="matrix(1.008537 0 0 1.012677 143.950855 102.464705)" fill="#e4aba6" stroke="#cc5c5c" stroke-width="0.5"/></g><g transform="matrix(0-.813907-1 0 299.999994 272.086049)"><ellipse rx="5.070986" ry="4.056789" transform="translate(149.464508 94.771586)" fill="#e4aba6" stroke="#cc5c5c" stroke-width="0.5"/><ellipse rx="5.070986" ry="4.056789" transform="translate(154.535494 102.464705)" fill="#e4aba6" stroke="#cc5c5c" stroke-width="0.5"/><ellipse rx="5.070986" ry="4.056789" transform="matrix(1.642486 0 0 1.589051 150 113.519222)" fill="#efeadf" stroke="#cc7f5c"/><ellipse rx="5.070986" ry="4.056789" transform="matrix(1.214821-.184337 0.17834 1.175299 158.329023 124.098612)" fill="#efeadf" stroke="#cc7f5c"/><ellipse rx="5.070986" ry="4.056789" transform="matrix(1.214821-.184337 0.17834 1.175299 155.850977 135.102921)" fill="#efeadf" stroke="#cc7f5c"/><ellipse rx="5.070986" ry="4.056789" transform="matrix(1.152706 0.485637-.616952 1.464395 140.213692 142.033059)" fill="#efeadf" stroke="#cc7f5c"/><ellipse rx="5.070986" ry="4.056789" transform="matrix(1.34421 0 0 1.589051 144.20647 127.412112)" fill="#efeadf" stroke="#cc7f5c"/><ellipse rx="5.070986" ry="4.056789" transform="matrix(.859195 0 0 0.819742 159.60648 95.351127)" fill="#e4aba6" stroke="#cc5c5c" stroke-width="0.5"/><ellipse rx="5.070986" ry="4.056789" transform="matrix(.859195 0 0 0.819742 139.593889 95.351127)" fill="#e4aba6" stroke="#cc5c5c" stroke-width="0.5"/><ellipse rx="5.070986" ry="4.056789" transform="matrix(1.008537 0 0 1.012677 143.950855 102.464705)" fill="#e4aba6" stroke="#cc5c5c" stroke-width="0.5"/></g><g transform="matrix(.598885 0.551164 0.677183-.735815-41.410132 177.697705)"><ellipse rx="5.070986" ry="4.056789" transform="translate(149.464508 94.771586)" fill="#e4aba6" stroke="#cc5c5c" stroke-width="0.5"/><ellipse rx="5.070986" ry="4.056789" transform="translate(154.535494 102.464705)" fill="#e4aba6" stroke="#cc5c5c" stroke-width="0.5"/><ellipse rx="5.070986" ry="4.056789" transform="matrix(1.642486 0 0 1.589051 150 113.519222)" fill="#efeadf" stroke="#cc7f5c"/><ellipse rx="5.070986" ry="4.056789" transform="matrix(1.34421 0 0 1.697864 148.126434 128.49598)" fill="#efeadf" stroke="#cc7f5c"/><ellipse rx="5.070986" ry="4.056789" transform="matrix(.859195 0 0 0.819742 159.60648 95.351127)" fill="#e4aba6" stroke="#cc5c5c" stroke-width="0.5"/><ellipse rx="5.070986" ry="4.056789" transform="matrix(.859195 0 0 0.819742 139.593889 95.351127)" fill="#e4aba6" stroke="#cc5c5c" stroke-width="0.5"/><ellipse rx="5.070986" ry="4.056789" transform="matrix(.611226 0 0 0.694223 131.420487 95.190097)" fill="#e4aba6" stroke="#cc5c5c" stroke-width="0.5"/><ellipse rx="5.070986" ry="4.056789" transform="matrix(1.008537 0 0 1.012677 143.950855 102.464705)" fill="#e4aba6" stroke="#cc5c5c" stroke-width="0.5"/></g></g><g><g transform="translate(.000061 0.000019)"><ellipse rx="5.070986" ry="4.056789" transform="matrix(.74799-.311217 0.311217 0.74799 113.46804 107.109693)" fill="#aee1a5" stroke="#4e9840" stroke-width="0.5"/><ellipse rx="5.070986" ry="4.056789" transform="matrix(.455655 0.616928-.610775 0.451111 119.884744 102.992365)" fill="#aee1a5" stroke="#4e9840" stroke-width="0.5"/><ellipse rx="5.070986" ry="4.056789" transform="matrix(.321262 0.743731-.743731 0.321262 108.238339 113.025597)" fill="#aee1a5" stroke="#4e9840" stroke-width="0.5"/><ellipse rx="5.070986" ry="4.056789" transform="matrix(.661871-.275385 0.275385 0.661871 133.61002 95.351128)" fill="#aee1a5" stroke="#4e9840" stroke-width="0.5"/><ellipse rx="5.070986" ry="4.056789" transform="matrix(.74799-.311217 0.311217 0.74799 126.053489 98.567266)" fill="#aee1a5" stroke="#4e9840" stroke-width="0.5"/><ellipse rx="6.539993" ry="6.465866" transform="matrix(1.03551 0 0 1.290827 119.14803 118.613602)" fill="#a4e499" stroke="#4e9840" stroke-width="0.5"/><ellipse rx="6.539993" ry="6.465866" transform="matrix(.994334-.289102 0.360384 1.239499 132.202707 127.712992)" fill="#a4e499" stroke="#4e9840" stroke-width="0.5"/><ellipse rx="7.443069" ry="6.638955" transform="matrix(1 0 0 1.275655 133.012244 109.63132)" fill="#a4e499" stroke="#4e9840" stroke-width="0.5"/></g><g transform="matrix(-.935888 0.352297-.352297-.935888 344.20164 235.703925)"><ellipse rx="5.070986" ry="4.056789" transform="matrix(.74799-.311217 0.311217 0.74799 113.46804 107.109693)" fill="#aee1a5" stroke="#4e9840" stroke-width="0.5"/><ellipse rx="5.070986" ry="4.056789" transform="matrix(.455655 0.616928-.610775 0.451111 119.884744 102.992365)" fill="#aee1a5" stroke="#4e9840" stroke-width="0.5"/><ellipse rx="5.070986" ry="4.056789" transform="matrix(.321262 0.743731-.743731 0.321262 108.238339 113.025597)" fill="#aee1a5" stroke="#4e9840" stroke-width="0.5"/><ellipse rx="5.070986" ry="4.056789" transform="matrix(.661871-.275385 0.275385 0.661871 133.61002 95.351128)" fill="#aee1a5" stroke="#4e9840" stroke-width="0.5"/><ellipse rx="5.070986" ry="4.056789" transform="matrix(.74799-.311217 0.311217 0.74799 126.053489 98.567266)" fill="#aee1a5" stroke="#4e9840" stroke-width="0.5"/><ellipse rx="6.539993" ry="6.465866" transform="matrix(.964438 0.555734-.759438 1.317953 120.028748 116.704021)" fill="#a4e499" stroke="#4e9840" stroke-width="0.5"/><ellipse rx="6.539993" ry="6.465866" transform="matrix(.562682-.609897 0.760273 0.701417 134.45339 123.067993)" fill="#a4e499" stroke="#4e9840" stroke-width="0.5"/><ellipse rx="7.443069" ry="6.638955" transform="matrix(1 0 0 1.275655 135.906383 107.743509)" fill="#a4e499" stroke="#4e9840" stroke-width="0.5"/></g><g transform="matrix(-.667469-.744638 0.744638-.667469 141.732425 354.747827)"><ellipse rx="5.070986" ry="4.056789" transform="matrix(.74799-.311217 0.311217 0.74799 107.1982 103.098779)" fill="#aee1a5" stroke="#4e9840" stroke-width="0.5"/><ellipse rx="5.070986" ry="4.056789" transform="matrix(.455655 0.616928-.610775 0.451111 112.797071 98.242751)" fill="#aee1a5" stroke="#4e9840" stroke-width="0.5"/><ellipse rx="5.070986" ry="4.056789" transform="matrix(.274415 0.635279-.723406 0.312482 102.674737 109.111149)" fill="#aee1a5" stroke="#4e9840" stroke-width="0.5"/><ellipse rx="5.070986" ry="4.056789" transform="matrix(.661871-.275385 0.275385 0.661871 126.118413 90.021662)" fill="#aee1a5" stroke="#4e9840" stroke-width="0.5"/><ellipse rx="5.070986" ry="4.056789" transform="matrix(.74799-.311217 0.311217 0.74799 118.918228 93.643081)" fill="#aee1a5" stroke="#4e9840" stroke-width="0.5"/><ellipse rx="6.539993" ry="6.465866" transform="matrix(.689748 0.890595-1.10826 0.858325 114.596698 112.589334)" fill="#a4e499" stroke="#4e9840" stroke-width="0.5"/><ellipse rx="6.539993" ry="6.465866" transform="matrix(-.276678 0.790537-1.198238-.419369 131.847028 114.582069)" fill="#a4e499" stroke="#4e9840" stroke-width="0.5"/><ellipse rx="6.539993" ry="6.465866" transform="matrix(.499112-.907286 1.481148 0.814802 130.651905 127.885786)" fill="#a4e499" stroke="#4e9840" stroke-width="0.5"/><ellipse rx="7.443069" ry="6.638955" transform="matrix(1 0 0 1.098873 127.839497 101.126493)" fill="#a4e499" stroke="#4e9840" stroke-width="0.5"/></g><g transform="matrix(.324789-.945787 0.945787 0.324789-39.660039 238.234929)"><ellipse rx="5.070986" ry="4.056789" transform="matrix(.74799-.311217 0.311217 0.74799 111.872675 105.542908)" fill="#aee1a5" stroke="#4e9840" stroke-width="0.5"/><ellipse rx="5.070986" ry="4.056789" transform="matrix(.455655 0.616928-.610775 0.451111 118.797722 101.434706)" fill="#aee1a5" stroke="#4e9840" stroke-width="0.5"/><ellipse rx="5.070986" ry="4.056789" transform="matrix(.321262 0.743731-.743731 0.321262 106.642974 111.458812)" fill="#aee1a5" stroke="#4e9840" stroke-width="0.5"/><ellipse rx="5.070986" ry="4.056789" transform="matrix(.858225 0.206416-.197835 0.822544 107.294112 119.593537)" fill="#aee1a5" stroke="#4e9840" stroke-width="0.5"/><ellipse rx="5.070986" ry="4.056789" transform="matrix(.661871-.275385 0.275385 0.661871 133.61002 95.351128)" fill="#aee1a5" stroke="#4e9840" stroke-width="0.5"/><ellipse rx="5.070986" ry="4.056789" transform="matrix(.74799-.311217 0.311217 0.74799 125.7287 97.621479)" fill="#aee1a5" stroke="#4e9840" stroke-width="0.5"/><ellipse rx="6.539993" ry="6.465866" transform="matrix(1.03551 0 0 1.072374 117.962829 114.536678)" fill="#a4e499" stroke="#4e9840" stroke-width="0.5"/><ellipse rx="6.539993" ry="6.465866" transform="matrix(.750028-.21807 0.208151 0.71591 119.865757 126.701134)" fill="#a4e499" stroke="#4e9840" stroke-width="0.5"/><ellipse rx="8.130229" ry="5.681845" transform="matrix(.012299 0.999924-.999924 0.012299 130.924161 126.016315)" fill="#a4e499" stroke="#4e9840" stroke-width="0.5"/><ellipse rx="7.443069" ry="6.638955" transform="matrix(1.125162 0 0 1.275655 132.432084 108.281965)" fill="#a4e499" stroke="#4e9840" stroke-width="0.5"/></g><g transform="matrix(.136919 0.990582-.990582 0.136919 276.841259-14.047553)"><ellipse rx="5.070986" ry="4.056789" transform="matrix(.74799-.311217 0.311217 0.74799 108.854105 105.305774)" fill="#aee1a5" stroke="#4e9840" stroke-width="0.5"/><ellipse rx="5.070986" ry="4.056789" transform="matrix(.455655 0.616928-.610775 0.451111 114.965442 100.598178)" fill="#aee1a5" stroke="#4e9840" stroke-width="0.5"/><ellipse rx="5.070986" ry="4.056789" transform="matrix(.321262 0.743731-.743731 0.321262 98.085431 118.582333)" fill="#aee1a5" stroke="#4e9840" stroke-width="0.5"/><ellipse rx="5.070986" ry="4.056789" transform="matrix(.858225 0.206416-.197835 0.822544 95.174891 125.823206)" fill="#aee1a5" stroke="#4e9840" stroke-width="0.5"/><ellipse rx="5.070986" ry="4.056789" transform="matrix(.661871-.275385 0.275385 0.661871 129.174781 93.413987)" fill="#aee1a5" stroke="#4e9840" stroke-width="0.5"/><ellipse rx="5.070986" ry="4.056789" transform="matrix(.74799-.311217 0.311217 0.74799 121.380199 95.970186)" fill="#aee1a5" stroke="#4e9840" stroke-width="0.5"/><ellipse rx="5.070986" ry="4.056789" transform="matrix(.74799-.311217 0.311217 0.74799 102.381385 111.71807)" fill="#aee1a5" stroke="#4e9840" stroke-width="0.5"/><ellipse rx="5.070986" ry="4.056789" transform="matrix(.220575 0.779546-.779546 0.220575 137.166278 92.92426)" fill="#aee1a5" stroke="#4e9840" stroke-width="0.5"/><ellipse rx="6.539993" ry="6.465866" transform="matrix(1.03551 0 0 1.072374 107.270294 127.835445)" fill="#a4e499" stroke="#4e9840" stroke-width="0.5"/><ellipse rx="6.539993" ry="6.465866" transform="matrix(.750028-.21807 0.208151 0.71591 119.402951 123.075823)" fill="#a4e499" stroke="#4e9840" stroke-width="0.5"/><ellipse rx="6.539993" ry="6.465866" transform="matrix(.544786 0.559737-.367928 0.3581 110.337052 116.829739)" fill="#a4e499" stroke="#4e9840" stroke-width="0.5"/><ellipse rx="8.130229" ry="5.681845" transform="matrix(.012299 0.999924-.999924 0.012299 130.535558 125.039497)" fill="#a4e499" stroke="#4e9840" stroke-width="0.5"/><ellipse rx="7.443069" ry="6.638955" transform="matrix(1.125162 0 0 1.275655 134.9349 105.852414)" fill="#a4e499" stroke="#4e9840" stroke-width="0.5"/><ellipse rx="7.443069" ry="6.638955" transform="matrix(.908449 0 0 1.029955 119.486996 110.872066)" fill="#a4e499" stroke="#4e9840" stroke-width="0.5"/></g></g><path d="" fill="none" stroke="#3f5787" stroke-width="0.8"/><line x1="-28.288794" y1="0" x2="28.288794" y2="0" transform="translate(261.916723 10.559953)" fill="none" stroke="#000"/><line x1="-28.288794" y1="0" x2="-5.375295" y2="0" transform="translate(305.699934 31.803943)" fill="none" stroke="#000"/><line x1="-18.183745" y1="11.339943" x2="15.288794" y2="0" transform="translate(261.916723 10.559953)" fill="none" stroke="#000"/><line x1="-1.447475" y1="24.182614" x2="15.288794" y2="0" transform="translate(262.122346 10.559953)" fill="none" stroke="#000"/><line x1="-6.648708" y1="18.381004" x2="32.025062" y2="-17.305361" transform="translate(245.386077 49.109304)" fill="none" stroke="#000" stroke-linecap="round"/><line x1="-6.648708" y1="18.381004" x2="59.465301" y2="-38.286656" transform="translate(209.577707 91.334589)" fill="none" stroke="#000" stroke-linecap="round"/><line x1="-6.982429" y1="18.765766" x2="50.891541" y2="-26.52089" transform="translate(209.577707 99.334589)" fill="none" stroke="#000" stroke-linecap="round"/><line x1="-8.429904" y1="12.158312" x2="42.004767" y2="-15.109833" transform="translate(211.025182 114.542527)" fill="none" stroke="#000" stroke-linecap="round"/><text dx="0" dy="0" font-family="&quot;Linux Libertine&quot;" font-size="15" font-weight="400" transform="translate(290.205517 15.59404)" stroke-width="0"><tspan y="0" font-weight="400" stroke-width="0"><![CDATA[
Pelos radicales
]]></tspan></text><text dx="0" dy="0" font-family="&quot;Linux Libertine&quot;" font-size="15" font-weight="400" transform="translate(300.324639 36.848379)" stroke-width="0"><tspan y="0" font-weight="400" stroke-width="0"><![CDATA[
Rizodermis 
]]></tspan></text><text dx="0" dy="0" font-family="&quot;Linux Libertine&quot;" font-size="15" font-weight="400" transform="translate(291.956507 58.070946)" stroke-width="0"><tspan y="0" font-weight="400" stroke-width="0"><![CDATA[
Endodermis
]]></tspan></text><text dx="0" dy="0" font-family="&quot;Linux Libertine&quot;" font-size="15" font-weight="400" transform="translate(283.58837 77.894654)" stroke-width="0"><tspan y="0" font-weight="400" stroke-width="0"><![CDATA[
Periciclo
]]></tspan></text><text dx="0" dy="0" font-family="&quot;Linux Libertine&quot;" font-size="15" font-weight="400" transform="translate(279.541366 104.593452)" stroke-width="0"><tspan y="0" font-weight="400" stroke-width="0"><![CDATA[
Protofloema
]]></tspan></text><text dx="0" dy="0" font-family="&quot;Linux Libertine&quot;" font-size="15" font-weight="400" transform="translate(283.588371 155.431131)" stroke-width="0"><tspan y="0" font-weight="400" stroke-width="0"><![CDATA[
Protoxilema
]]></tspan></text><text dx="0" dy="0" font-family="&quot;Linux Libertine&quot;" font-size="15" font-weight="400" transform="translate(283.588371 179.460428)" stroke-width="0"><tspan y="0" font-weight="400" stroke-width="0"><![CDATA[
Metaxilema
]]></tspan></text><text dx="0" dy="0" font-family="&quot;Linux Libertine&quot;" font-size="15" font-weight="400" transform="translate(260.469248 220.970527)" fill="#0f198e" stroke-width="0"><tspan y="0" font-weight="400" stroke-width="0"><![CDATA[
Células más nuevas
]]></tspan></text><text dx="0" dy="0" font-family="&quot;Linux Libertine&quot;" font-size="15" font-weight="400" transform="translate(260.469248 246.840158)" fill="#0f198e" stroke-width="0"><tspan y="0" font-weight="400" stroke-width="0"><![CDATA[
Células más viejas
]]></tspan></text><text dx="0" dy="0" font-family="&quot;Linux Libertine&quot;" font-size="15" font-weight="400" transform="translate(286.814047 126.368519)" stroke-width="0"><tspan y="0" font-weight="400" stroke-width="0"><![CDATA[
Metafloema
]]></tspan></text><line x1="-37.844966" y1="-0.059798" x2="-23.299603" y2="0.000001" transform="translate(310.11365 121.264572)" fill="none" stroke="#000"/><line x1="-8.429905" y1="11.991915" x2="36.844726" y2="-1.90625" transform="translate(235.286895 123.111024)" fill="none" stroke="#000" stroke-linecap="round"/><line x1="-37.844966" y1="-0.059798" x2="-11.758152" y2="0" transform="translate(290.848491 99.492492)" fill="none" stroke="#000"/><line x1="-28.288794" y1="0" x2="5.006235" y2="0.424175" transform="translate(221.850754 134.678764)" fill="none" stroke="#000" stroke-linecap="round"/><line x1="-28.288794" y1="0" x2="49.781294" y2="0.424175" transform="translate(233.807077 149.930143)" fill="none" stroke="#000" stroke-linecap="round"/><line x1="-28.288794" y1="0" x2="25.850572" y2="0.424175" transform="translate(257.737799 173.615529)" fill="none" stroke="#000" stroke-linecap="round"/><line x1="-28.288794" y1="0" x2="25.850572" y2="0.424175" transform="translate(233.517202 215.47454)" fill="none" stroke="#0f198e" stroke-linecap="round"/><line x1="-28.288794" y1="0" x2="52.638667" y2="0.424175" transform="translate(206.729107 241.761289)" fill="none" stroke="#0f198e" stroke-linecap="round"/><line x1="-28.288794" y1="0" x2="25.850572" y2="0.424175" transform="translate(153.079802 203.358033)" fill="none" stroke="#0f198e" stroke-linecap="round"/><line x1="-28.288794" y1="0" x2="-0.899438" y2="0.424175" transform="translate(164.807115 157.44115)" fill="none" stroke="#0f198e" stroke-linecap="round"/><line x1="-28.288794" y1="0" x2="14.900024" y2="22.672158" transform="translate(214.54898 150.901867)" fill="none" stroke="#000" stroke-linecap="round"/><line x1="-28.533733" y1="0.345609" x2="-0.752509" y2="38.324691" transform="translate(179.192822 203.436598)" fill="none" stroke="#0f198e" stroke-linecap="round"/><line x1="-28.441786" y1="0.534263" x2="18.48348" y2="58.143479" transform="translate(186.408721 157.331061)" fill="none" stroke="#0f198e" stroke-linecap="round"/><line x1="-28.288794" y1="0" x2="-5.375295" y2="0" transform="translate(288.963665 72.871642)" fill="none" stroke="#000"/><line x1="-28.288794" y1="0" x2="-5.375295" y2="0" transform="translate(297.331802 53.047931)" fill="none" stroke="#000"/></svg>
