<svg id="e7RIaXjFq9w1" xmlns="http://www.w3.org/2000/svg" xmlns:xlink="http://www.w3.org/1999/xlink" viewBox="0 0 400 250" shape-rendering="geometricPrecision" text-rendering="geometricPrecision"><g transform="translate(17.397467 129.349861)"><rect width="24.395082" height="11.90004" rx="2" ry="2" transform="translate(22.429591 41.650139)" fill="#b4ecb8" stroke="#407e2d"/><rect width="24.395082" height="11.90004" rx="2" ry="2" transform="translate(120.009919 41.650139)" fill="#b4ecb8" stroke="#407e2d"/><rect width="24.395082" height="11.90004" rx="2" ry="2" transform="translate(193.195165 41.650139)" fill="#b4ecb8" stroke="#407e2d"/><rect width="24.395082" height="11.90004" rx="2" ry="2" transform="translate(266.380411 41.650139)" fill="#b4ecb8" stroke="#407e2d"/><rect width="24.395082" height="11.90004" rx="2" ry="2" transform="translate(241.985329 41.650139)" fill="#b4ecb8" stroke="#407e2d"/><rect width="24.395082" height="11.90004" rx="2" ry="2" transform="translate(217.590247 41.650139)" fill="#b4ecb8" stroke="#407e2d"/><rect width="24.395082" height="11.90004" rx="2" ry="2" transform="translate(95.614837 41.650139)" fill="#b4ecb8" stroke="#407e2d"/><rect width="24.395082" height="11.90004" rx="2" ry="2" transform="translate(46.824673 41.650139)" fill="#b4ecb8" stroke="#407e2d"/><rect width="24.395082" height="11.90004" rx="2" ry="2" transform="translate(71.219755 41.650139)" fill="#b4ecb8" stroke="#407e2d"/><g transform="matrix(1 0 0-1 0.000007 95.200316)"><path d="M138.17754,155.47129c0,6.36856,13.472699,21.90281,19.71704,11.38303c6.517318-10.979662-19.341966-22.76606-19.71704-11.38303Z" transform="matrix(-.997921-.064443 0.064443-.997921 293.292355 224.472171)" fill="#76ae79" stroke="#305e22" stroke-width="0.6"/><path d="M138.17754,155.47129c0,6.36856,13.472699,21.90281,19.71704,11.38303c6.517318-10.979662-19.341966-22.76606-19.71704-11.38303Z" transform="matrix(.997921 0.064443 0.064443-.997921 23.931428 205.32473)" fill="#76ae79" stroke="#305e22" stroke-width="0.6"/></g></g><g transform="translate(17.397467 23.253774)"><rect width="24.395082" height="11.90004" rx="2" ry="2" transform="translate(22.429591 41.650139)" fill="#b4ecb8" stroke="#407e2d"/><rect width="24.395082" height="11.90004" rx="2" ry="2" transform="translate(120.009919 41.650139)" fill="#b4ecb8" stroke="#407e2d"/><rect width="24.395082" height="11.90004" rx="2" ry="2" transform="translate(168.800083 41.650139)" fill="#b4ecb8" stroke="#407e2d"/><rect width="24.395082" height="11.90004" rx="2" ry="2" transform="translate(193.195165 41.650139)" fill="#b4ecb8" stroke="#407e2d"/><rect width="24.395082" height="11.90004" rx="2" ry="2" transform="translate(266.380411 41.650139)" fill="#b4ecb8" stroke="#407e2d"/><rect width="24.395082" height="11.90004" rx="2" ry="2" transform="translate(241.985329 41.650139)" fill="#b4ecb8" stroke="#407e2d"/><rect width="24.395082" height="11.90004" rx="2" ry="2" transform="translate(217.590247 41.650139)" fill="#b4ecb8" stroke="#407e2d"/><rect width="24.395082" height="11.90004" rx="2" ry="2" transform="translate(144.405001 41.650139)" fill="#b4ecb8" stroke="#407e2d"/><rect width="24.395082" height="11.90004" rx="2" ry="2" transform="translate(95.614837 41.650139)" fill="#b4ecb8" stroke="#407e2d"/><rect width="24.395082" height="11.90004" rx="2" ry="2" transform="translate(46.824673 41.650139)" fill="#b4ecb8" stroke="#407e2d"/><rect width="24.395082" height="11.90004" rx="2" ry="2" transform="translate(71.219755 41.650139)" fill="#b4ecb8" stroke="#407e2d"/></g><g transform="translate(24 21.000001)"><rect width="12.197541" height="32.417066" rx="4" ry="4" transform="translate(15.827058 56.803953)" fill="#c8bca4" stroke="#736846"/><rect width="12.197541" height="32.417066" rx="4" ry="4" transform="translate(113.407386 56.803953)" fill="#c8bca4" stroke="#736846"/><rect width="12.197541" height="32.417066" rx="4" ry="4" transform="translate(125.604927 56.803953)" fill="#c8bca4" stroke="#736846"/><rect width="12.197541" height="32.417066" rx="4" ry="4" transform="translate(162.19755 56.803953)" fill="#c8bca4" stroke="#736846"/><rect width="12.197541" height="32.417066" rx="4" ry="4" transform="translate(235.382797 56.803953)" fill="#c8bca4" stroke="#736846"/><rect width="12.197541" height="32.417066" rx="4" ry="4" transform="translate(247.580338 56.803953)" fill="#c8bca4" stroke="#736846"/><rect width="12.197541" height="32.417066" rx="4" ry="4" transform="translate(259.777878 56.803953)" fill="#c8bca4" stroke="#736846"/><rect width="12.197541" height="32.417066" rx="4" ry="4" transform="translate(271.97542 56.803953)" fill="#c8bca4" stroke="#736846"/><rect width="12.197541" height="32.417066" rx="4" ry="4" transform="translate(210.987714 56.803953)" fill="#c8bca4" stroke="#736846"/><rect width="12.197541" height="32.417066" rx="4" ry="4" transform="translate(223.185256 56.803953)" fill="#c8bca4" stroke="#736846"/><rect width="12.197541" height="32.417066" rx="4" ry="4" transform="translate(174.395091 56.803953)" fill="#c8bca4" stroke="#736846"/><rect width="12.197541" height="32.417066" rx="4" ry="4" transform="translate(186.592631 56.803953)" fill="#c8bca4" stroke="#736846"/><rect width="12.197541" height="32.417066" rx="4" ry="4" transform="translate(198.790173 56.803953)" fill="#c8bca4" stroke="#736846"/><rect width="12.197541" height="32.417066" rx="4" ry="4" transform="translate(137.802467 56.803953)" fill="#c8bca4" stroke="#736846"/><rect width="12.197541" height="32.417066" rx="4" ry="4" transform="translate(150.000009 56.803953)" fill="#c8bca4" stroke="#736846"/><rect width="12.197541" height="32.417066" rx="4" ry="4" transform="translate(64.617222 56.803953)" fill="#c8bca4" stroke="#736846"/><rect width="12.197541" height="32.417066" rx="4" ry="4" transform="translate(76.814763 56.803953)" fill="#c8bca4" stroke="#736846"/><rect width="12.197541" height="32.417066" rx="4" ry="4" transform="translate(89.012303 56.803953)" fill="#c8bca4" stroke="#736846"/><rect width="12.197541" height="32.417066" rx="4" ry="4" transform="translate(101.209845 56.803953)" fill="#c8bca4" stroke="#736846"/><rect width="12.197541" height="32.417066" rx="4" ry="4" transform="translate(40.222139 56.803953)" fill="#c8bca4" stroke="#736846"/><rect width="12.197541" height="32.417066" rx="4" ry="4" transform="translate(52.419681 56.803953)" fill="#c8bca4" stroke="#736846"/><rect width="12.197541" height="32.417066" rx="4" ry="4" transform="translate(28.024599 56.803953)" fill="#c8bca4" stroke="#736846"/></g><g transform="translate(24 21)"><ellipse rx="9.148155" ry="6.975824" transform="translate(30.073984 109.878197)" fill="#c1cfec" stroke="#6c6da1"/><ellipse rx="9.148155" ry="6.975824" transform="translate(102.209845 128.827761)" fill="#c1cfec" stroke="#6c6da1"/><ellipse rx="9.148155" ry="6.975824" transform="translate(193.790172 106.891327)" fill="#c1cfec" stroke="#6c6da1"/><ellipse rx="9.148155" ry="6.975824" transform="translate(265.876648 97.902373)" fill="#c1cfec" stroke="#6c6da1"/><ellipse rx="8.937833" ry="9.487913" transform="translate(89.012304 115.926879)" fill="#c1cfec" stroke="#6c6da1"/><ellipse rx="8.937833" ry="9.487913" transform="translate(125.604927 139.26732)" fill="#c1cfec" stroke="#6c6da1"/><ellipse rx="9.148155" ry="6.975824" transform="translate(28.024599 141.779409)" fill="#c1cfec" stroke="#6c6da1"/><ellipse rx="10.672848" ry="8.962694" transform="translate(50.894988 113.840891)" fill="#c1cfec" stroke="#6c6da1"/><ellipse rx="10.672848" ry="8.962694" transform="translate(160.672857 115.926879)" fill="#c1cfec" stroke="#6c6da1"/><ellipse rx="10.672848" ry="8.962694" transform="translate(139.327161 107.891327)" fill="#c1cfec" stroke="#6c6da1"/><ellipse rx="10.672848" ry="8.962694" transform="translate(250.105031 111.865067)" fill="#c1cfec" stroke="#6c6da1"/><ellipse rx="10.672848" ry="8.962694" transform="translate(231.80872 122.865067)" fill="#c1cfec" stroke="#6c6da1"/><ellipse rx="10.672848" ry="8.962694" transform="translate(267.401341 124.854021)" fill="#c1cfec" stroke="#6c6da1"/><ellipse rx="8.937833" ry="9.487913" transform="translate(214.561791 139.26732)" fill="#c1cfec" stroke="#6c6da1"/><ellipse rx="10.672848" ry="8.962694" transform="translate(209.463021 119.865067)" fill="#c1cfec" stroke="#6c6da1"/><ellipse rx="10.672848" ry="8.962694" transform="translate(46.32091 132.816715)" fill="#c1cfec" stroke="#6c6da1"/><ellipse rx="10.672848" ry="8.962694" transform="translate(173.969169 99.915503)" fill="#c1cfec" stroke="#6c6da1"/><ellipse rx="10.672848" ry="8.962694" transform="translate(120.506157 119.865067)" fill="#c1cfec" stroke="#6c6da1"/><ellipse rx="8.937834" ry="7.505688" transform="translate(71.079749 108.421191)" fill="#c1cfec" stroke="#6c6da1"/></g><g transform="translate(24 21)"><ellipse rx="11.606206" ry="11.606206" transform="translate(106.017405 102.234685)" fill="#bd5adf" stroke-width="0"/><path d="M117.623611,102.234685h-23.212412c-.17667,6.28951,5.653447,12.030549,11.606206,11.606206c7.470359.004872,11.842743-6.617321,11.606206-11.606206Z" fill="#dc5a33" stroke-width="0.6"/></g><g transform="translate(144.154503 20.977862)"><ellipse rx="11.606206" ry="11.606206" transform="translate(106.017405 102.234685)" fill="#bd5adf" stroke-width="0"/><path d="M117.623611,102.234685h-23.212412c-.17667,6.28951,5.653447,12.030549,11.606206,11.606206c7.470359.004872,11.842743-6.617321,11.606206-11.606206Z" fill="#dc5a33" stroke-width="0.6"/></g><text dx="0" dy="0" font-family="&quot;Linux Libertine&quot;" font-size="18" font-weight="400" transform="translate(156.209844 245.774168)" fill="#fb0808" stroke-width="0"><tspan y="0" font-weight="400" stroke-width="0"><![CDATA[
Cara abaxial
]]></tspan></text><text dx="0" dy="0" font-family="&quot;Linux Libertine&quot;" font-size="18" font-weight="400" transform="translate(154.062451 20.682738)" fill="#fb0808" stroke-width="0"><tspan y="0" font-weight="400" stroke-width="0"><![CDATA[
Cara adaxial
]]></tspan></text><text dx="0" dy="0" font-family="&quot;Linux Libertine&quot;" font-size="15" font-weight="400" transform="matrix(0-1 1 0 19.534706 151.916754)" stroke-width="0"><tspan y="0" font-weight="400" stroke-width="0"><![CDATA[
Mesófilo
]]></tspan></text><text dx="0" dy="0" font-family="&quot;Linux Libertine&quot;" font-size="15" font-weight="400" transform="translate(320.763896 136.44054)" stroke-width="0"><tspan y="0" font-weight="400" stroke-width="0"><![CDATA[
Parénquima
]]></tspan><tspan x="0" y="15" font-weight="400" stroke-width="0"><![CDATA[
esponjoso
]]></tspan><tspan x="0" y="30" font-weight="400" stroke-width="0"><![CDATA[
 
]]></tspan></text><text dx="0" dy="0" font-family="&quot;Linux Libertine&quot;" font-size="15" font-weight="400" transform="translate(320.763897 90.173382)" stroke-width="0"><tspan y="0" font-weight="400" stroke-width="0"><![CDATA[
Parénquima
]]></tspan><tspan x="0" y="15" font-weight="400" stroke-width="0"><![CDATA[
empalizado
]]></tspan><tspan x="0" y="30" font-weight="400" stroke-width="0"><![CDATA[
 
]]></tspan></text><text dx="0" dy="0" font-family="&quot;Linux Libertine&quot;" font-size="15" font-weight="400" transform="translate(265.481568 46.078949)" stroke-width="0"><tspan y="0" font-weight="400" stroke-width="0"><![CDATA[
Epidermis adaxial 
]]></tspan></text><text dx="0" dy="0" font-family="&quot;Linux Libertine&quot;" font-size="15" font-weight="400" transform="translate(84.510307 45.940939)" stroke-width="0"><tspan y="0" font-weight="400" stroke-width="0"><![CDATA[
Xilema
]]></tspan></text><text dx="0" dy="0" font-family="&quot;Linux Libertine&quot;" font-size="15" font-weight="400" transform="translate(150.06287 46.031082)" stroke-width="0"><tspan y="0" font-weight="400" stroke-width="0"><![CDATA[
Floema
]]></tspan></text><text dx="0" dy="0" font-family="&quot;Linux Libertine&quot;" font-size="15" font-weight="400" transform="translate(267.010746 207.421718)" stroke-width="0"><tspan y="0" font-weight="400" stroke-width="0"><![CDATA[
Epidermis abaxial 
]]></tspan></text><text dx="0" dy="0" font-family="&quot;Linux Libertine&quot;" font-size="15" font-weight="400" transform="translate(66.885878 211.957707)" stroke-width="0"><tspan y="0" font-weight="400" stroke-width="0"><![CDATA[
Células oclusivas del estoma 
]]></tspan></text><line x1="-9.559191" y1="0" x2="9.559191" y2="0" transform="translate(312.073053 93.427897)" fill="none" stroke="#000"/><line x1="-1.559191" y1="0" x2="9.559191" y2="0" transform="translate(24.711878 125.61977)" fill="none" stroke="#000"/><line x1="-9.559191" y1="0" x2="9.559191" y2="-21.159309" transform="translate(310.512726 70.853933)" fill="none" stroke="#000"/><line x1="-9.559191" y1="0" x2="11.559191" y2="16.316561" transform="translate(310.073053 177.962894)" fill="none" stroke="#000"/><line x1="-9.559191" y1="-15" x2="-55.119819" y2="15.808406" transform="translate(209.298824 184.569212)" fill="none" stroke="#000"/><line x1="-35.298814" y1="-16.448037" x2="-55.119819" y2="15.808406" transform="translate(209.298824 184.569212)" fill="none" stroke="#000"/><line x1="-33.954272" y1="0" x2="9.559191" y2="0" transform="translate(311.63338 139.427897)" fill="none" stroke="#000"/><line x1="0" y1="-47.098023" x2="0" y2="47.098024" transform="translate(34.102526 123.901977)" fill="none" stroke="#000" stroke-miterlimit="2"/><line x1="-23.106319" y1="-22.109725" x2="0" y2="47.098024" transform="translate(130.019852 71.804349)" fill="none" stroke="#000" stroke-miterlimit="2"/><line x1="42.772072" y1="-22.109725" x2="0" y2="56.098024" transform="translate(130.019852 71.804349)" fill="none" stroke="#000" stroke-miterlimit="2"/></svg>
