<svg id="eh1sGIWdp7P1" xmlns="http://www.w3.org/2000/svg" xmlns:xlink="http://www.w3.org/1999/xlink" viewBox="0 0 620 300" shape-rendering="geometricPrecision" text-rendering="geometricPrecision"><defs><linearGradient id="eh1sGIWdp7P61-fill" x1="0.5" y1="1" x2="0.5" y2="0" spreadMethod="pad" gradientUnits="objectBoundingBox" gradientTransform="translate(0 0)"><stop id="eh1sGIWdp7P61-fill-0" offset="0%" stop-color="rgba(210,219,237,0)"/><stop id="eh1sGIWdp7P61-fill-1" offset="66%" stop-color="#4288bf"/></linearGradient></defs><g><path d="M42.518737,30.358598l6,32.096361l38.721725-.000001l5.999999-32.096362-50.721724.000002Z" transform="matrix(.996459 0.084081-.084081 0.996459-22.419545-28.014099)" fill="#fbb6b6" stroke="#fbb6b6" stroke-linejoin="round"/><path d="M42.518737,30.358598l6,32.096361l38.721725-.000001l5.999999-32.096362-50.721724.000002Z" transform="matrix(.896692 0.442656-.442656 0.896692 46.357037-35.102354)" fill="#fbb6b6" stroke="#fbb6b6" stroke-linejoin="round"/><path d="M42.518737,30.358598l6,32.096361l38.721725-.000001l5.999999-32.096362-50.721724.000002Z" transform="matrix(.673971 0.738758-.738758 0.673971 112.677013-16.688957)" fill="#fbb6b6" stroke="#fbb6b6" stroke-linejoin="round"/><path d="M42.518737,30.358598l6,32.096361l38.721725-.000001l5.999999-32.096362-50.721724.000002Z" transform="matrix(.356151 0.934428-.934428 0.356151 168.085586 24.986082)" fill="#fbb6b6" stroke="#fbb6b6" stroke-linejoin="round"/><path d="M42.518737,30.358598l6,32.096361l38.721725-.000001l5.999999-32.096362-50.721724.000002Z" transform="matrix(-.00884 0.999961-.999961-.00884 204.192854 83.651669)" fill="#fbb6b6" stroke="#fbb6b6" stroke-linejoin="round"/><path d="M42.518737,30.358598l6,32.096361l38.721725-.000001l5.999999-32.096362-50.721724.000002Z" transform="matrix(-.375008 0.927021-.927021-.375008 216.435583 151.920248)" fill="#fbb6b6" stroke="#fbb6b6" stroke-linejoin="round"/><path d="M42.518737,30.358598l6,32.096361l38.721725-.000001l5.999999-32.096362-50.721724.000002Z" transform="matrix(-.691946 0.721949-.721949-.691946 202.48832 220.644966)" fill="#fbb6b6" stroke="#fa6464" stroke-width="5" stroke-linejoin="round"/><path d="M42.518737,30.358598l6,32.096361l38.721725-.000001l5.999999-32.096362-50.721724.000002Z" transform="matrix(-.908466 0.417958-.417958-.908466 164.619716 278.720332)" fill="#fbb6b6" stroke="#fa6464" stroke-width="5" stroke-linejoin="round"/><path d="M42.518737,30.358598l6,32.096361l38.721725-.000001l5.999999-32.096362-50.721724.000002Z" transform="matrix(-.998308 0.05814-.05814-.998308 108.498742 318.680045)" fill="#fbb6b6" stroke="#fbb6b6" stroke-linejoin="round"/></g><path d="M20.676119,45.998912C70.591161,43.960152,135.998205,83.47,133.901287,151.260244c-.818207,67.970126-67.76277,108.585307-113.225168,103.072129" fill="none" stroke="#caca52" stroke-width="8" stroke-dasharray="20,2"/><g transform="translate(.000001 0.000001)"><rect width="21.771057" height="14.306198" rx="2" ry="2" transform="matrix(.986277-.165099 0.165099 0.986277 143.920751 122.099095)" fill="#57a14a" stroke-width="0"/><rect width="21.771057" height="14.306198" rx="2" ry="2" transform="matrix(.877843-.478948 0.478948 0.877843 127.577738 83.351071)" fill="#57a14a" stroke-width="0"/><rect width="21.771057" height="14.306198" rx="2" ry="2" transform="matrix(.634413-.738842 0.758688 0.651454 94.462347 52.41352)" fill="#57a14a" stroke-width="0"/><rect width="21.771057" height="14.306198" rx="2" ry="2" transform="matrix(.328715-.916686 0.94131 0.337544 54.295514 32.580766)" fill="#57a14a" stroke-width="0"/><rect width="21.771057" height="14.306198" rx="2" ry="2" transform="matrix(.73147-.631287-2.115051-2.205903 131.90503 90.044873)" opacity="0.68" fill="#57a14a" stroke-width="0"/><rect width="21.771057" height="14.306198" rx="2" ry="2" transform="matrix(.984904 0.173104-.173104 0.984904 146.592625 164.848678)" fill="#57a14a" stroke-width="0"/><rect width="21.771057" height="14.306198" rx="2" ry="2" transform="matrix(.85942 0.51127-.51127 0.85942 133.580681 208.637696)" fill="#57a14a" stroke-width="0"/><rect width="21.771057" height="14.306198" rx="2" ry="2" transform="matrix(.611018 0.766223-.781844 0.623474 104.467061 242.840711)" fill="#57a14a" stroke-width="0"/><rect width="21.771057" height="14.306198" rx="2" ry="2" transform="matrix(.284861 0.890806-.952485 0.304585 64.68697 261.266903)" fill="#57a14a" stroke-width="0"/></g><g transform="translate(0-6)"><path d="M382.144375,82.244619v115.180338L300,207.961523" transform="translate(11.629209 14.416545)" fill="none" fill-opacity="0.5" stroke="#57a14a" stroke-width="4" stroke-linecap="round" stroke-linejoin="round"/><g><path d="M376.144375,81.24462l24.629209,29.413485v111.057573l-24.629209-30.29072v-110.180338Z" fill="#fbb6b6" fill-opacity="0.5" stroke="#fbb6b6" stroke-width="1.2" stroke-linejoin="round"/><path d="M300,90.696076l76.144375-9.451457v110.180338L300,201.961523v-111.265447Z" transform="translate(0 0.000001)" fill="#fbb6b6" fill-opacity="0.5" stroke="#fbb6b6" stroke-width="1.2" stroke-linejoin="round"/><path d="M300,90.696076l76.144375-9.451457v110.180338L300,201.961523v-111.265447Z" transform="translate(24.629209 30.290721)" fill="#fbb6b6" fill-opacity="0.5" stroke="#fbb6b6" stroke-width="1.2" stroke-linejoin="round"/><path d="M300,90.696077l24.629209,30.29072v111.196394l-24.629211-30.221667L300,90.696077Z" transform="translate(.000003 0.069053)" fill="#fbb6b6" fill-opacity="0.5" stroke="#fbb6b6" stroke-width="1.2" stroke-linejoin="round"/></g><path d="M300,207.961523v-117.265447l82.144375-8.451457" transform="translate(11.629209 14.416545)" fill="none" fill-opacity="0.5" stroke="#57a14a" stroke-width="4" stroke-linecap="round" stroke-linejoin="round"/></g><line x1="-24.004594" y1="0" x2="24.004594" y2="0" transform="translate(412.463573 90.661164)" fill="none" stroke="#000" stroke-width="1.2"/><line x1="-24.004594" y1="0" x2="24.004594" y2="0" transform="translate(412.463573 141.661164)" fill="none" stroke="#000" stroke-width="1.2"/><text dx="0" dy="0" font-family="&quot;Linux Libertine&quot;" font-size="15" font-weight="400" transform="translate(437.468167 146.508075)" stroke-width="0"><tspan y="0" font-weight="400" stroke-width="0"><![CDATA[
Célula de la endodermis
]]></tspan></text><text dx="0" dy="0" font-family="&quot;Linux Libertine&quot;" font-size="15" font-weight="400" transform="translate(437.468167 95.508075)" stroke-width="0"><tspan y="0" font-weight="400" stroke-width="0"><![CDATA[
Banda de Caspary
]]></tspan></text><text dx="0" dy="0" font-family="&quot;Linux Libertine&quot;" font-size="15" font-weight="400" transform="translate(114.248671 25.980693)" stroke-width="0"><tspan y="0" font-weight="400" stroke-width="0"><![CDATA[
Pared radial con engrosamiento de suberina (lipídica)
]]></tspan></text><text dx="0" dy="0" font-family="&quot;Linux Libertine&quot;" font-size="15" font-weight="400" transform="translate(171.025166 104.180127)" stroke-width="0"><tspan y="0" font-weight="400" stroke-width="0"><![CDATA[
Periciclo
]]></tspan></text><text dx="0" dy="0" font-family="&quot;Linux Libertine&quot;" font-size="15" font-weight="400" transform="translate(22.730138 147.711132)" stroke-width="0"><tspan y="0" font-weight="400" stroke-width="0"><![CDATA[
Interior del
]]></tspan><tspan x="0" y="15" font-weight="400" stroke-width="0"><![CDATA[
haz vascular
]]></tspan><tspan x="0" y="30" font-weight="400" stroke-width="0"><![CDATA[
 
]]></tspan></text><line x1="-24.004594" y1="0" x2="24.004594" y2="0" transform="translate(146.020563 99.333215)" fill="none" stroke="#000" stroke-width="1.2"/><line x1="-24.004594" y1="0" x2="24.004594" y2="0" transform="translate(89.244074 21.13378)" fill="none" stroke="#000" stroke-width="1.2"/><line x1="-24.004594" y1="0" x2="24.004594" y2="0" transform="translate(147.577138 59.458013)" fill="none" stroke="#000" stroke-width="1.2"/><line x1="-24.004594" y1="0" x2="24.004594" y2="0" transform="translate(150.270949 240.473958)" fill="none" stroke="#000" stroke-width="1.2"/><text dx="0" dy="0" font-family="&quot;Linux Libertine&quot;" font-size="12" font-weight="400" transform="translate(128.275543 290.317163)" stroke-width="0"><tspan y="0" font-weight="400" stroke-width="0"><![CDATA[
(crecimiento secundario en monocotiledóneas)
]]></tspan></text><text dx="0" dy="0" font-family="&quot;Linux Libertine&quot;" font-size="15" font-weight="400" transform="translate(129.299235 277.746721)" stroke-width="0"><tspan y="0" font-weight="400" stroke-width="0"><![CDATA[
Célula de la endodermis lignificada en paredes radiales y tangencial interior
]]></tspan></text><text dx="0" dy="0" font-family="&quot;Linux Libertine&quot;" font-size="15" font-weight="400" transform="translate(175.299235 244.746721)" stroke-width="0"><tspan y="0" font-weight="400" stroke-width="0"><![CDATA[
Célula de la endodermis lignificada en paredes radiales y tangenciales
]]></tspan></text><text dx="0" dy="0" font-family="&quot;Linux Libertine&quot;" font-size="12" font-weight="400" transform="translate(174.275543 257.317163)" stroke-width="0"><tspan y="0" font-weight="400" stroke-width="0"><![CDATA[
(crecimiento secundario en monocotiledóneas)
]]></tspan></text><text dx="0" dy="0" font-family="&quot;Linux Libertine&quot;" font-size="15" font-weight="400" transform="translate(172.581733 64.304924)" stroke-width="0"><tspan y="0" font-weight="400" stroke-width="0"><![CDATA[
Pared transversal con engrosamiento de suberina (lipídica)
]]></tspan></text><line x1="-21.040052" y1="8.253661" x2="19.466107" y2="-10.427373" transform="translate(90.963886 280.577094)" fill="none" stroke="#fbb6b6" stroke-width="5.1"/><line x1="-17.589066" y1="0" x2="24.004594" y2="0" transform="translate(104.270949 273.473958)" fill="none" stroke="#000" stroke-width="1.2"/><polygon points="0,-83.633825 72.429017,41.816913 -72.429017,41.816913 0,-83.633825" transform="matrix(0-.616675 0.616675 0 244.372553 153.519616)" fill="url(#eh1sGIWdp7P61-fill)" stroke-width="0"/></svg>
