<svg id="ecPiFpRngO31" xmlns="http://www.w3.org/2000/svg" xmlns:xlink="http://www.w3.org/1999/xlink" viewBox="0 0 300 270" shape-rendering="geometricPrecision" text-rendering="geometricPrecision"><rect width="21.420071" height="132.685443" rx="5" ry="5" transform="matrix(.238314 0 0 1.132178 73.732925 74.88823)" fill="#a5dd87" stroke-width="0"/><rect width="7.179369" height="132.685443" rx="5" ry="5" transform="matrix(.208932 0 0 1.132178 75.535277 74.798734)" fill="#6dedca" stroke-width="0"/><rect width="21.420071" height="132.685443" rx="5" ry="5" transform="matrix(.238314 0 0 1.132178 221.038793 74.888232)" fill="#a5dd87" stroke-width="0"/><rect width="7.179369" height="132.685443" rx="5" ry="5" transform="matrix(.208932 0 0 1.132178 222.841144 74.798734)" fill="#6dedca" stroke-width="0"/><g transform="translate(-.357135 27.13209)"><rect width="21.420071" height="132.685443" rx="5" ry="5" transform="matrix(1 0 0 0.49298 226.500632 47.756142)" fill="#fd6e6e" stroke-width="0"/><path d="M247.920703,105.746239q.247176,14.739913,0,14.739913c-12.132478-7.369955-21.420073-6.931839-21.420071-9.691156l21.420071-5.048757Z" transform="translate(.000002 0.000003)" fill="#fd6e6e" stroke-width="0.6"/></g><g transform="translate(-.357135 27.13209)"><rect width="21.420071" height="132.685443" rx="5" ry="5" transform="matrix(1 0 0 0.49298 226.500632 132.568411)" fill="#fd6e6e" stroke-width="0"/><path d="M247.920703,105.746239q.247176,14.739913,0,14.739913c-14.560962-8.533-21.420073-6.931839-21.420071-9.691156l21.420071-5.048757Z" transform="matrix(1 0 0-1-.10217 245.684607)" fill="#fd6e6e" stroke-width="0.6"/></g><g transform="translate(-.357136 27.13209)"><rect width="21.420071" height="132.685443" rx="5" ry="5" transform="matrix(1 0 0 0.49298 199.975859 132.568411)" fill="#fd6e6e" stroke-width="0"/><path d="M247.920703,105.746239q.247176,14.739913,0,14.739913c-11.363538-7.369956-21.420073-6.931839-21.420071-9.691156l21.420071-5.048757Z" transform="matrix(-1 0 0-1 447.998733 245.684607)" fill="#fd6e6e" stroke-width="0.6"/></g><g transform="translate(-.357135 27.13209)"><rect width="21.420071" height="132.685443" rx="5" ry="5" transform="matrix(1 0 0 0.49298 199.975859 47.756142)" fill="#fd6e6e" stroke-width="0"/><path d="M247.920703,105.746239q.247176,14.739913,0,14.739913c-13.298259-7.369956-21.420073-6.931839-21.420071-9.691156l21.420071-5.048757Z" transform="matrix(-1 0 0 1 447.896555 0.000003)" fill="#fd6e6e" stroke-width="0.6"/></g><rect width="21.420071" height="132.685443" rx="5" ry="5" transform="matrix(1 0 0 0.49298 78.837628 74.888229)" fill="#fd6e6e" stroke-width="0"/><rect width="21.420071" height="132.685443" rx="5" ry="5" transform="matrix(1 0 0 0.49298 78.837628 159.700499)" fill="#fd6e6e" stroke-width="0"/><rect width="21.420071" height="132.685443" rx="5" ry="5" transform="matrix(1 0 0 0.49298 52.312854 159.700499)" fill="#fd6e6e" stroke-width="0"/><rect width="21.420071" height="132.685443" rx="5" ry="5" transform="matrix(1 0 0 0.49298 52.312854 74.888229)" fill="#fd6e6e" stroke-width="0"/><text dx="0" dy="0" font-family="&quot;Linux Libertine&quot;" font-size="20" font-weight="400" transform="translate(62.260446 22.372074)" stroke-width="0"><tspan y="0" font-weight="400" stroke-width="0"><![CDATA[
Tipos de punteaduras
]]></tspan></text><text dx="0" dy="0" font-family="&quot;Linux Libertine&quot;" font-size="15" font-weight="400" transform="translate(55.474152 257.635859)" stroke-width="0"><tspan y="0" font-weight="400" stroke-width="0"><![CDATA[
Simple
]]></tspan></text><text dx="0" dy="0" font-family="&quot;Linux Libertine&quot;" font-size="15" font-weight="400" transform="translate(195.805629 257.635859)" stroke-width="0"><tspan y="0" font-weight="400" stroke-width="0"><![CDATA[
Areolada
]]></tspan></text><path d="M100.257699,140.248289h17.647365" fill="none" stroke="#000" stroke-width="0.6" stroke-dasharray="4,2"/><path d="M100.257699,140.248289h17.647365" transform="translate(0 19.45221)" fill="none" stroke="#000" stroke-width="0.6" stroke-dasharray="4,2"/><ellipse rx="9.726106" ry="9.726106" transform="translate(118.807488 149.974393)" fill="none" stroke="#000"/><ellipse rx="11.79" ry="11.790001" transform="matrix(-1 0 0 1 183.030652 149.910503)" fill="none" stroke="#000"/><ellipse rx="2.538159" ry="2.538161" transform="matrix(-.928284 0 0 0.928286 183.030652 149.974405)" fill="none" stroke="#000"/><path d="M100.257699,140.248289h17.647365" transform="matrix(-1 0 0 1 299.774246 7.369956)" fill="none" stroke="#000" stroke-width="0.6" stroke-dasharray="4,2"/><path d="M100.257699,140.248289h17.647365" transform="matrix(-1 0 0 1 299.876423 12.082256)" fill="none" stroke="#000" stroke-width="0.6" stroke-dasharray="4,2"/><path d="M100.257699,140.248289h39.067433" transform="matrix(-1 0 0 1 321.296492 21.452213)" fill="none" stroke="#000" stroke-width="0.6" stroke-dasharray="4,2"/><path d="M100.257699,140.248289h39.067433" transform="matrix(-1 0 0 1 321.296494-2.127787)" fill="none" stroke="#000" stroke-width="0.6" stroke-dasharray="4,2"/><text dx="0" dy="0" font-family="&quot;Linux Libertine&quot;" font-size="15" font-weight="400" transform="translate(123.183574 118.867927)" stroke-width="0"><tspan y="0" font-weight="400" stroke-width="0"><![CDATA[
   Vistas
]]></tspan><tspan x="0" y="15" font-weight="400" stroke-width="0"><![CDATA[
frontales
]]></tspan></text><path d="M89.547664,85.740254v-19.852966" fill="none" stroke="#000"/><path d="M89.547664,85.740254v-19.852966" transform="translate(-26.524774 0)" fill="none" stroke="#000"/><path d="M223.591144,81.068968v-15.18168" fill="none" stroke="#000"/><text dx="0" dy="0" font-family="&quot;Linux Libertine&quot;" font-size="15" font-weight="400" transform="translate(23.944429 62.138173)" stroke-width="0"><tspan y="0" font-weight="400" stroke-width="0"><![CDATA[
Pared secundaria 
]]></tspan></text><text dx="0" dy="0" font-family="&quot;Linux Libertine&quot;" font-size="15" font-weight="400" transform="translate(174.694304 47.138775)" stroke-width="0"><tspan y="0" font-weight="400" stroke-width="0"><![CDATA[
Lámina media y
]]></tspan><tspan x="0" y="15" font-weight="400" stroke-width="0"><![CDATA[
pared primaria
]]></tspan></text></svg>
