<svg id="eUOcRNPae9n1" xmlns="http://www.w3.org/2000/svg" xmlns:xlink="http://www.w3.org/1999/xlink" viewBox="0 0 300 150" shape-rendering="geometricPrecision" text-rendering="geometricPrecision"><ellipse rx="29.343165" ry="38.713256" transform="translate(42.173355 73.901934)" fill="#fff9b0" stroke-width="0"/><ellipse rx="29.343165" ry="38.713256" transform="translate(123.55072 73.841603)" fill="#fff9b0" stroke-width="0"/><ellipse rx="29.343165" ry="38.713256" transform="translate(208.28657 75)" fill="#fbbc9c" stroke="#c37751" stroke-width="2"/><ellipse rx="4.359008" ry="4.359008" transform="translate(113.800466 91.072514)" fill="#e4692a" stroke-width="0"/><ellipse rx="4.359008" ry="4.359008" transform="translate(124.858975 87.474291)" fill="#e4692a" stroke-width="0"/><ellipse rx="4.359008" ry="4.359008" transform="translate(123.452838 99.315567)" fill="#e4692a" stroke-width="0"/><ellipse rx="4.359008" ry="4.359008" transform="translate(134.717334 94.956559)" fill="#e4692a" stroke-width="0"/><path d="M35.28302,78.914421v29.142183" transform="translate(88.169818 20.317029)" fill="none" stroke="#000"/><path d="M35.28302,86.017862v20.466104" transform="translate(173.534178 23.807358)" fill="none" stroke="#000"/><text dx="0" dy="0" font-family="&quot;Linux Libertine&quot;" font-size="10" font-weight="400" transform="translate(96.079606 135.35849)" stroke-width="0"><tspan y="0" font-weight="400" stroke-width="0"><![CDATA[
     Espora
]]></tspan><tspan x="0" y="10" font-weight="400" stroke-width="0"><![CDATA[
sobreviviente
]]></tspan></text><text dx="0" dy="0" font-family="&quot;Linux Libertine&quot;" font-size="10" font-weight="400" transform="translate(194.764319 137.24406)" stroke-width="0"><tspan y="0" font-weight="400" stroke-width="0"><![CDATA[
Ovario
]]></tspan></text><text dx="0" dy="0" font-family="&quot;Linux Libertine&quot;" font-size="10" font-weight="400" transform="translate(242.973164 110.292224)" stroke-width="0"><tspan y="0" font-weight="400" stroke-width="0"><![CDATA[
C. sinérgidas
]]></tspan></text><text dx="0" dy="0" font-family="&quot;Linux Libertine&quot;" font-size="10" font-weight="400" transform="translate(243.800468 85.644593)" stroke-width="0"><tspan y="0" font-weight="400" stroke-width="0"><![CDATA[
C. de núcleos
]]></tspan><tspan x="0" y="10" font-weight="400" stroke-width="0"><![CDATA[
polares
]]></tspan></text><text dx="0" dy="0" font-family="&quot;Linux Libertine&quot;" font-size="10" font-weight="400" transform="translate(246.500163 52.271369)" stroke-width="0"><tspan y="0" font-weight="400" stroke-width="0"><![CDATA[
C. de las
]]></tspan><tspan x="0" y="10" font-weight="400" stroke-width="0"><![CDATA[
antípodas
]]></tspan><tspan x="0" y="20" font-weight="400" stroke-width="0"><![CDATA[
 
]]></tspan></text><ellipse rx="5.830053" ry="5.830053" transform="translate(42.173355 99.315567)" fill="#e4a72a" stroke-width="0"/><text dx="0" dy="0" font-family="&quot;Linux Libertine&quot;" font-size="11.25" font-weight="400" transform="translate(48.140225 19.3674)" stroke-width="0"><tspan y="0" font-size="15" font-weight="400" stroke-width="0"><![CDATA[
    Nucela
]]></tspan><tspan x="0" y="10" font-size="10" font-weight="400" stroke-width="0"><![CDATA[
(Megasporangio)
]]></tspan><tspan x="0" y="31.25" font-size="11.25" font-weight="400" stroke-width="0"><![CDATA[
 
]]></tspan></text><text dx="0" dy="0" font-family="&quot;Linux Libertine&quot;" font-size="15" font-weight="400" transform="translate(185.070734 27.509434)" stroke-width="0"><tspan y="0" font-weight="400" stroke-width="0"><![CDATA[
Megagametofito 
]]></tspan></text><path d="M35.28302,78.914421v29.142183" transform="translate(6.792453 20.37736)" fill="none" stroke="#000"/><text dx="0" dy="0" font-family="&quot;Linux Libertine&quot;" font-size="10" font-weight="400" transform="translate(20.238798 136.490568)" stroke-width="0"><tspan y="0" font-weight="400" stroke-width="0"><![CDATA[
Esporocito
]]></tspan></text><text dx="0" dy="0" font-family="&quot;Linux Libertine&quot;" font-size="10" font-weight="400" transform="translate(45.927618 94.348195)" stroke-width="0"><tspan y="0" font-weight="400" stroke-width="0"><![CDATA[
2n
]]></tspan></text><text dx="0" dy="0" font-family="&quot;Linux Libertine&quot;" font-size="10" font-weight="400" transform="translate(108.297321 84.355015)" stroke-width="0"><tspan y="0" font-weight="400" stroke-width="0"><![CDATA[
n
]]></tspan></text><text dx="0" dy="0" font-family="&quot;Linux Libertine&quot;" font-size="10" font-weight="400" transform="translate(121.870825 79.855514)" stroke-width="0"><tspan y="0" font-weight="400" stroke-width="0"><![CDATA[
n
]]></tspan></text><text dx="0" dy="0" font-family="&quot;Linux Libertine&quot;" font-size="10" font-weight="400" transform="translate(192.382281 49.706072)" stroke-width="0"><tspan y="0" font-weight="400" stroke-width="0"><![CDATA[
n
]]></tspan></text><text dx="0" dy="0" font-family="&quot;Linux Libertine&quot;" font-size="10" font-weight="400" transform="translate(205.107305 49.316772)" stroke-width="0"><tspan y="0" font-weight="400" stroke-width="0"><![CDATA[
n
]]></tspan></text><text dx="0" dy="0" font-family="&quot;Linux Libertine&quot;" font-size="10" font-weight="400" transform="translate(218.854673 49.539229)" stroke-width="0"><tspan y="0" font-weight="400" stroke-width="0"><![CDATA[
n
]]></tspan></text><text dx="0" dy="0" font-family="&quot;Linux Libertine&quot;" font-size="10" font-weight="400" transform="translate(133.809772 89.240299)" stroke-width="0"><tspan y="0" font-weight="400" stroke-width="0"><![CDATA[
n
]]></tspan></text><text dx="0" dy="0" font-family="&quot;Linux Libertine&quot;" font-size="10" font-weight="400" transform="translate(194.319807 105.897585)" stroke-width="0"><tspan y="0" font-weight="400" stroke-width="0"><![CDATA[
n
]]></tspan></text><text dx="0" dy="0" font-family="&quot;Linux Libertine&quot;" font-size="10" font-weight="400" transform="translate(206.106268 106.591044)" stroke-width="0"><tspan y="0" font-weight="400" stroke-width="0"><![CDATA[
n
]]></tspan></text><text dx="0" dy="0" font-family="&quot;Linux Libertine&quot;" font-size="10" font-weight="400" transform="translate(218.353669 106.591044)" stroke-width="0"><tspan y="0" font-weight="400" stroke-width="0"><![CDATA[
n
]]></tspan></text><text dx="0" dy="0" font-family="&quot;Linux Libertine&quot;" font-size="10" font-weight="400" transform="translate(203.763263 77.026293)" stroke-width="0"><tspan y="0" font-weight="400" stroke-width="0"><![CDATA[
2n
]]></tspan></text><text dx="0" dy="0" font-family="&quot;Linux Libertine&quot;" font-size="10" font-weight="400" transform="translate(113.563891 104.341372)" stroke-width="0"><tspan y="0" font-weight="400" stroke-width="0"><![CDATA[
n
]]></tspan></text><g><line x1="-4.595584" y1="5.107896" x2="4.595584" y2="-5.107896" transform="translate(113.563891 91.072514)" fill="none" stroke="#f00"/><line x1="-4.595584" y1="5.107896" x2="4.595584" y2="-5.107896" transform="matrix(-1 0 0 1 113.563891 91.072514)" fill="none" stroke="#f00"/></g><g transform="translate(21.153442 4.359005)"><line x1="-4.595584" y1="5.107896" x2="4.595584" y2="-5.107896" transform="translate(113.563891 91.072514)" fill="none" stroke="#f00"/><line x1="-4.595584" y1="5.107896" x2="4.595584" y2="-5.107896" transform="matrix(-1 0 0 1 113.563891 91.072514)" fill="none" stroke="#f00"/></g><g transform="translate(11.058506-3.598226)"><line x1="-4.595584" y1="5.107896" x2="4.595584" y2="-5.107896" transform="translate(113.563891 91.072514)" fill="none" stroke="#f00"/><line x1="-4.595584" y1="5.107896" x2="4.595584" y2="-5.107896" transform="matrix(-1 0 0 1 113.563891 91.072514)" fill="none" stroke="#f00"/></g><path d="" transform="translate(7 0)" fill="none" stroke="#3f5787" stroke-width="0.6"/><path d="M177.538629,50.606249c12.141056,1.723067,35.975528,1.974293,46.557137,0" transform="translate(7 2)" fill="none" stroke="#c37751" stroke-width="2" stroke-linecap="round"/><path d="M177.538629,50.606249c12.141056,1.723067,35.975528,1.974293,46.557137,0" transform="matrix(1 0 0-1 8 148.212498)" fill="none" stroke="#c37751" stroke-width="2" stroke-linecap="round"/><path d="M192.741665,53.299707l3.70897-16.344237" transform="translate(7.000001-.204621)" fill="none" stroke="#c37751" stroke-width="2" stroke-linecap="round"/><path d="M205.017832,36.955471l4.335836,16.344237" transform="translate(7.000001 0)" fill="none" stroke="#c37751" stroke-width="2" stroke-linecap="round"/><path d="M205.017832,36.955471l4.335836,16.344237" transform="matrix(1 0 0-1 8.000001 149.56172)" fill="none" stroke="#c37751" stroke-width="2" stroke-linecap="round"/><path d="M192.741665,53.299707l3.70897-16.344237" transform="matrix(1 0 0-1 8.000001 150.357097)" fill="none" stroke="#c37751" stroke-width="2" stroke-linecap="round"/><path d="M68.658331,88.461002l-37.933918,5.02451" transform="matrix(-1 0 0 0.608436 276.944901-2.886783)" fill="none" stroke="#000"/><path d="M51.30635,86.393316L30.724413,93.485512" transform="matrix(-1 0 0 0.608436 276.944901-2.886783)" fill="none" stroke="#000"/><path d="M82.077297,89.562472l-51.352884,3.92304" transform="matrix(-1 0 0 0.608436 276.944901-2.886783)" fill="none" stroke="#000"/><path d="M65.29177,83.128868L30.226381,90.273602" transform="matrix(-1 0 0 0.608436 273.57834 31.787796)" fill="none" stroke="#000"/><path d="M49.323025,82.717511L30.226381,90.273602" transform="matrix(-1 0 0 0.608436 273.108968 52.393467)" fill="none" stroke="#000"/><path d="M74.761573,90.273601l-44.535192.000001" transform="matrix(-1 0 0 0.608436 273.108968 52.393467)" fill="none" stroke="#000"/><polygon points="-18.094442,1.340493 -10.208122,15 -25.980762,15 -18.094442,1.340493" transform="matrix(0 1-1 0 91.943396 91.936045)" fill="#e87272" stroke-width="0"/><polygon points="-18.094442,1.340493 -10.208122,15 -25.980762,15 -18.094442,1.340493" transform="matrix(0 1-1 0 174.283898 91.936045)" fill="#e87272" stroke-width="0"/></svg>
