<svg id="eboSRpx4FOW1" xmlns="http://www.w3.org/2000/svg" xmlns:xlink="http://www.w3.org/1999/xlink" viewBox="0 0 300 170" shape-rendering="geometricPrecision" text-rendering="geometricPrecision"><path d="M102.542333,66.106957q10.259265-2.796789,18.216472-1c7.957207,1.796789,3.833267,1.56684,17.037231,1.56684s14.19207-.336894,22.72207.946527s10.528367.807006,27.465199.566841c13.355051-.189375,19.251308-2.08021,29.005304-1.310157s21.563637,4.310157,21.563637,4.310157s3.499483-16.914414-3.000001-18.711203-6.392452,0-12.478044,0-5.231366.770052-12.502696-1.026737-10.524048-2.053473-15.65773-1.796789-5.22327.256684-14.887678.256684-19.507991-.770052-26.792084,0-23.774684.770053-31.475208-.770052-11.447858-4.622497-19.21484-1.026737q-3.326687,1.540105-.001632,17.994626Z" transform="matrix(1.390154 0 0 0.832135-55.691136 21.895455)" fill="#9161ae" stroke-width="0.6"/><path d="M12.574,92.294809c0,0-2.787756,0-1.005034-22.537587-.180719-3.590226,23.604156-5.350149,59.261172-6.985888c22.190173-1.017957,50.203684.399466,76.161743.3231c29.891281-.087937,59.709032-1.504637,83.53064-.141948c29.387522,1.681081,49.649564,3.548308,49.666535,7.804736.088573,22.215324-.741607,21.215026-3.128251,26.750175L12.574,92.294809Z" transform="translate(-3.986509 6.741504)" fill="#c84848" stroke-width="0.6"/><rect width="30.669625" height="24.902687" rx="2" ry="2" transform="matrix(2.103193 0 0 1.807628 9.587491 77.741504)" fill="#edd2d2" stroke="rgba(0,0,0,0.65)" stroke-width="0.5"/><rect width="30.669625" height="24.902687" rx="2" ry="2" transform="matrix(2.103193 0 0 1.807628 142.595771 77.741504)" fill="#edd2d2" stroke="rgba(0,0,0,0.65)" stroke-width="0.5"/><rect width="30.669625" height="24.902687" rx="2" ry="2" transform="matrix(2.103193 0 0 1.807628 209.099911 77.741504)" fill="#edd2d2" stroke="rgba(0,0,0,0.65)" stroke-width="0.5"/><rect width="30.669625" height="24.902687" rx="2" ry="2" transform="matrix(2.103193 0 0 1.807628 76.091631 77.741504)" fill="#edd2d2" stroke="rgba(0,0,0,0.65)" stroke-width="0.5"/><text dx="0" dy="0" font-family="&quot;Linux Libertine&quot;" font-size="15" font-weight="400" transform="translate(119.177891 13.520708)" stroke-width="0"><tspan y="0" font-weight="400" stroke-width="0"><![CDATA[
Epidermis
]]></tspan></text><g transform="translate(0 0.000001)"><text dx="0" dy="0" font-family="&quot;Linux Libertine&quot;" font-size="11.25" font-weight="400" transform="translate(4.518207 149.012267)" stroke-width="0"><tspan y="0" font-weight="400" stroke-width="0"><![CDATA[
Pared tangencial
]]></tspan><tspan x="0" y="11.25" font-weight="400" stroke-width="0"><![CDATA[
        interna
]]></tspan><tspan x="0" y="22.5" font-weight="400" stroke-width="0"><![CDATA[
 
]]></tspan></text><line x1="-35.25207" y1="-2" x2="29.25207" y2="-2" transform="translate(44.839561 131.127251)" fill="none" stroke="#000" stroke-miterlimit="1"/><line x1="-3" y1="-7.113636" x2="-3" y2="3.113637" transform="translate(44.839561 135.895968)" fill="none" stroke="#000"/></g><g transform="translate(.000001 0.000001)"><text dx="0" dy="0" font-family="&quot;Linux Libertine&quot;" font-size="11.25" font-weight="400" transform="translate(224.642198 150.207236)" stroke-width="0"><tspan y="0" font-weight="400" stroke-width="0"><![CDATA[
Pared radial
]]></tspan></text><text dx="0" dy="0" font-family="&quot;Linux Libertine&quot;" font-size="11.25" font-weight="400" transform="translate(106.656516 150.139542)" stroke-width="0"><tspan y="0" font-weight="400" stroke-width="0"><![CDATA[
Células de cubierta
]]></tspan></text><line x1="0" y1="-19.116114" x2="0" y2="22.507397" transform="translate(279.909101 100.248901)" fill="none" stroke="#000"/><line x1="0" y1="-22.507397" x2="0" y2="22.507397" transform="translate(288.197629 123.756298)" fill="none" stroke="#000"/><line x1="-4.144264" y1="0" x2="4.144264" y2="0" transform="translate(284.053365 101.123144)" fill="none" stroke="#000"/><line x1="-4.144264" y1="0" x2="4.144264" y2="0" transform="translate(284.053365 146.263695)" fill="none" stroke="#000"/></g><g transform="translate(0 0.000001)"><text dx="0" dy="0" font-family="&quot;Linux Libertine&quot;" font-size="11.25" font-weight="400" transform="translate(6.403034 50.377635)" stroke-width="0"><tspan y="0" font-weight="400" stroke-width="0"><![CDATA[
Pared tangencial
]]></tspan><tspan x="0" y="11.25" font-weight="400" stroke-width="0"><![CDATA[
       externa 
]]></tspan></text><line x1="-32.25207" y1="0" x2="32.25207" y2="0" transform="translate(43.839561 74.10836)" fill="none" stroke="#000" stroke-miterlimit="1"/><line x1="0" y1="-5.113636" x2="0" y2="5.113637" transform="translate(43.839561 68.994723)" fill="none" stroke="#000"/></g><g transform="translate(.000001 0)"><text dx="0" dy="0" font-family="&quot;Linux Libertine&quot;" font-size="11.25" font-weight="400" transform="translate(117.632229 38.539632)" stroke-width="0"><tspan y="0" font-weight="400" stroke-width="0"><![CDATA[
Cutina (cera)
]]></tspan></text><line x1="0" y1="-16.881702" x2="0" y2="22.507397" transform="translate(108.343701 51.600963)" fill="none" stroke="#000"/><line x1="-4.144264" y1="0" x2="4.144264" y2="0" transform="translate(112.487965 35.066567)" fill="none" stroke="#000"/></g><g transform="translate(0 0.000001)"><text dx="0" dy="0" font-family="&quot;Linux Libertine&quot;" font-size="11.25" font-weight="400" transform="translate(240.351981 38.42874)" stroke-width="0"><tspan y="0" font-weight="400" stroke-width="0"><![CDATA[
Cutícula
]]></tspan></text><line x1="0" y1="5.883809" x2="0" y2="22.507397" transform="translate(279.909101 57.519566)" fill="none" stroke="#000"/><line x1="0" y1="-13.87093" x2="0" y2="22.507397" transform="translate(288.197629 49.207772)" fill="none" stroke="#000"/><line x1="-4.144264" y1="0" x2="4.144264" y2="0" transform="translate(284.053365 70.837338)" fill="none" stroke="#000"/><line x1="-4.144264" y1="0" x2="4.144264" y2="0" transform="translate(284.053365 35.684148)" fill="none" stroke="#000"/></g><g transform="translate(.000001 0)"><text dx="0" dy="0" font-family="&quot;Linux Libertine&quot;" font-size="11.25" font-weight="400" transform="translate(133.386775 53.821114)" stroke-width="0"><tspan y="0" font-weight="400" stroke-width="0"><![CDATA[
Cera epicuticular 
]]></tspan></text><line x1="0" y1="-8.902765" x2="0" y2="22.507397" transform="matrix(1 0 0 0.547395 123.625182 54.874072)" fill="none" stroke="#000"/><line x1="-4.144264" y1="0" x2="4.144264" y2="0" transform="translate(127.769446 50.000743)" fill="none" stroke="#000"/></g><line x1="-20.828149" y1="-17.380352" x2="20.828149" y2="17.380352" transform="translate(129.171851 121.629254)" fill="none" stroke="#000"/><line x1="45.67599" y1="-17.380352" x2="20.828149" y2="17.380352" transform="translate(129.171851 121.629254)" fill="none" stroke="#000"/><line x1="-85.33229" y1="-17.380353" x2="20.828149" y2="17.380352" transform="translate(129.171851 121.629254)" fill="none" stroke="#000"/><line x1="112.18013" y1="-17.380352" x2="20.828149" y2="17.380352" transform="translate(129.171851 121.629254)" fill="none" stroke="#000"/></svg>
