<svg id="eKHsnVtmiuj1" xmlns="http://www.w3.org/2000/svg" xmlns:xlink="http://www.w3.org/1999/xlink" viewBox="0 0 300 300" shape-rendering="geometricPrecision" text-rendering="geometricPrecision"><g transform="translate(17 11.000001)"><path d="M85.518254,100.926296l12.424354,13.810829v99.671322c-6.801677-2.481632-12.551469-10.472615-12.118374-15.768591l-.30598-97.71356Z" transform="translate(0 0.000001)" fill="#e8d6b7" stroke="#8e6a2c"/><rect width="183.711453" height="78.940662" rx="0" ry="0" transform="matrix(.516307-.18792 0 1.268574 97.942628 114.561642)" fill="#e8d6b7" stroke="#8e6a2c"/><path d="M85.518254,99.614318c0-10.416801,19.572369-25.907844,64.481746-25.907844q24.546014,0,42.794137,6.400145L97.942608,114.737125c-7.820774-4.562118-12.040995-8.665571-12.424354-15.122807Z" fill="#e8d6b7" stroke="#8e6a2c"/></g><g transform="translate(17.000001 11)"><path d="M151.2005,95.306753v99.870842l-13.433029,4.930785v-99.902886L151.2005,95.306753Z" transform="translate(.084878 0.048025)" fill="#b5945a" stroke="#b5945a" stroke-linecap="round" stroke-linejoin="round"/><path d="M120.422411,114.737125c-5.967252-3.480896-9.187281-6.611832-9.479784-11.538703c0-7.94802,14.93372-19.767688,49.199579-19.767688q18.728611,0,32.651931,4.883312" transform="translate(-11.999999-3.999999)" fill="none" stroke="#b5945a" stroke-linecap="round"/><path d="M139.946405,114.737125c-4.357443-2.541842-6.708792-4.828133-6.922386-8.425864c0-5.803852,10.904994-14.434883,35.926822-14.434883q13.676123,0,23.843296,3.565922" transform="translate(-20.999999-7.734056)" fill="rgba(191,155,96,0.52)" stroke="#b5945a" stroke-linecap="round"/><path d="M137.11801,114.737125c-2.57705-1.503279-3.967669-2.855422-4.093991-4.983168c0-3.432474,6.449358-8.53698,21.247598-8.53698q8.08824,0,14.101241,2.108933" transform="translate(-7.734057-11.999999)" fill="none" stroke="#b5945a" stroke-linecap="round"/><path d="M148.216605,109.832696l-13.433029,4.904429c-1.10759-.646095-1.705265-1.227232-1.759557-2.141717c0-1.475244,2.771871-3.669111,9.132011-3.669111q3.476246,0,6.060575.906399Z" transform="translate(2.983894-14.531631)" fill="#9a7c47" stroke="#9a7c47" stroke-linecap="round" stroke-linejoin="round"/><path d="M108.422412,110.737126v99.975077" transform="translate(0 0.000001)" fill="none" stroke="#b5945a" stroke-linecap="round"/><path d="M108.422412,110.737126v99.975077" transform="translate(10.599536-3.76461)" fill="none" stroke="#b5945a" stroke-linecap="round"/><path d="M108.422412,110.737126v99.975077" transform="translate(21.143988-7.703718)" fill="none" stroke="#b5945a" stroke-linecap="round"/><path d="M108.422412,110.737126v99.975077" transform="translate(51.950447-19.034598)" fill="none" stroke="#b5945a" stroke-linecap="round"/><path d="M108.422412,110.737126v99.975077" transform="translate(63.371726-22.978526)" fill="none" stroke="#b5945a" stroke-linecap="round"/><path d="M108.422412,110.737126v99.975077" transform="translate(72.371726-26.269753)" fill="none" stroke="#b5945a" stroke-linecap="round"/><rect width="171.761385" height="78.940662" rx="0" ry="0" transform="matrix(.307241-.111827 0 1.268574 119.021998 106.889379)" fill="rgba(191,155,96,0.52)"/></g><line x1="-10.897069" y1="15.937311" x2="10.89707" y2="-15.937311" transform="translate(177.89707 81.530062)" fill="none" stroke="#000" stroke-linecap="round"/><line x1="-10.897069" y1="15.937311" x2="-1.89707" y2="15.937311" transform="translate(199.691209 49.65544)" fill="none" stroke="#000" stroke-linecap="round"/><text dx="0" dy="0" font-family="&quot;Linux Libertine&quot;" font-size="15" font-weight="400" transform="translate(199.794139 70.377193)" stroke-width="0"><tspan y="0" font-weight="400" stroke-width="0"><![CDATA[
Duramen
]]></tspan></text><text dx="0" dy="0" font-family="&quot;Linux Libertine&quot;" font-size="15" font-weight="400" transform="translate(223.765907 113.208408)" stroke-width="0"><tspan y="0" font-weight="400" stroke-width="0"><![CDATA[
Médula
]]></tspan></text><text dx="0" dy="0" font-family="&quot;Linux Libertine&quot;" font-size="15" font-weight="400" transform="translate(145.47697 231.343162)" stroke-width="0"><tspan y="0" font-weight="400" stroke-width="0"><![CDATA[
Dirección de transporte
]]></tspan><tspan x="0" y="15" font-weight="400" stroke-width="0"><![CDATA[
de células iniciales
]]></tspan><tspan x="0" y="30" font-weight="400" stroke-width="0"><![CDATA[
fusiformes 
]]></tspan></text><line x1="-66.79459" y1="15.937311" x2="-1.89707" y2="15.937311" transform="translate(223.662976 92.486655)" fill="none" stroke="#000" stroke-linecap="round"/><text dx="0" dy="0" font-family="&quot;Linux Libertine&quot;" font-size="15" font-weight="400" transform="translate(175.084101 54.439882)" stroke-width="0"><tspan y="0" font-weight="400" stroke-width="0"><![CDATA[
Albura
]]></tspan></text><text dx="0" dy="0" font-family="&quot;Linux Libertine&quot;" font-size="15" font-weight="400" transform="translate(24.234553 45.456219)" stroke-width="0"><tspan y="0" font-weight="400" stroke-width="0"><![CDATA[
Anillo de
]]></tspan><tspan x="0" y="15" font-weight="400" stroke-width="0"><![CDATA[
crecimiento
]]></tspan><tspan x="0" y="30" font-weight="400" stroke-width="0"><![CDATA[
anual
]]></tspan></text><line x1="-10.897069" y1="15.937311" x2="-1.89707" y2="15.937311" transform="translate(174.981171 33.718129)" fill="none" stroke="#000" stroke-linecap="round"/><line x1="-19.885366" y1="24.925617" x2="10.89707" y2="-15.937311" transform="translate(153.187032 65.592751)" fill="none" stroke="#000" stroke-linecap="round"/><line x1="-19.885366" y1="24.925617" x2="10.89707" y2="-15.937311" transform="matrix(-1 0 0 1 109.187032 71.592751)" fill="none" stroke="#000" stroke-linecap="round"/><line x1="0" y1="-36.645605" x2="0" y2="36.645605" transform="matrix(1-.36397 0 1 204.356566 154.534984)" fill="none" stroke="#cd474e" stroke-width="3"/><line x1="0" y1="-36.645605" x2="0" y2="36.645605" transform="matrix(.000808-1.064177-.506763 0.184011 134.401478 148)" fill="none" stroke="#cd474e" stroke-width="3"/><line x1="-15.410135" y1="-16.194815" x2="-1.89707" y2="15.937311" transform="translate(219.766702 202.010282)" fill="none" stroke="#000" stroke-linecap="round"/><line x1="42.381668" y1="-62.896919" x2="-28.741053" y2="-12.341172" transform="translate(79.408462 215.018777)" fill="none" stroke="#000" stroke-linecap="round"/><text dx="0" dy="0" font-family="&quot;Linux Libertine&quot;" font-size="15" font-weight="400" transform="translate(2.909974 216.077926)" stroke-width="0"><tspan y="0" font-weight="400" stroke-width="0"><![CDATA[
Dirección de
]]></tspan><tspan x="0" y="15" font-weight="400" stroke-width="0"><![CDATA[
transporte de
]]></tspan><tspan x="0" y="30" font-weight="400" stroke-width="0"><![CDATA[
células iniciales
]]></tspan><tspan x="0" y="45" font-weight="400" stroke-width="0"><![CDATA[
radiales
]]></tspan></text></svg>
