<svg id="e91Q8vYpCsM1" xmlns="http://www.w3.org/2000/svg" xmlns:xlink="http://www.w3.org/1999/xlink" viewBox="0 50 300 200" shape-rendering="geometricPrecision" text-rendering="geometricPrecision"><path d="M283.25145,137.33519c0,0,0,22.17068,0,66.51203-12.09775-8.0487-22.49799-14.96804-31.20071-20.75801v-51.26108c10.46365,3.67137,20.86389,5.50705,31.20071,5.50705v.00001Zm-64.66321,23.49123c0,0-5.46915-19.98952-16.40746-59.96855c10.46127,9.2699,20.86151,16.77299,31.20071,22.50928v47.3013c-9.86217-6.56136-14.79325-9.84204-14.79325-9.84204v.00001Z" fill="#5c8a4d" stroke-width="0.6"/><path d="M-32.988802,0.461447c0-2.593932.864829-8.142723,2.243735-8.597417.000001,0-1.916987-.38985-2.659135-.751916-1.286477-.627624-1.899366-1.790439-1.899369-1.790441s-3.725459-1.130159-3.186881-2.086679C-32.055669,-24.193253,-17.243868,-32.190183,0,-32.190183c23.149186,0,41.91531,14.412036,41.91531,32.190183s-18.766124,32.190183-41.91531,32.190183c-18.442277,0-34.102693-9.14709-39.708683-21.856073-.310401-.703689,2.627149-1.545061,2.627149-1.545061s1.261843-1.438973,2.521301-1.85428c1.339406-.44167,2.436007-.393626,2.436007-.393626s-.864576-4.056866-.864576-6.079696Z" transform="matrix(.413008-1.252484 1.252484 0.413008 178.270553 150.705751)" fill="#6d9f5d" stroke-width="0"/><ellipse rx="41.91531" ry="32.190183" transform="matrix(.313164-.949699 0.949699 0.313164 178.350261 150.745605)" fill="#f8eaaa" stroke-width="0"/><text dx="0" dy="0" font-family="&quot;Linux Libertine&quot;" font-size="15" font-weight="400" transform="translate(65.154641 168.15416)" stroke-width="0"><tspan y="0" font-weight="400" stroke-width="0"><![CDATA[
Testa 
]]></tspan></text><text dx="0" dy="0" font-family="&quot;Linux Libertine&quot;" font-size="15" font-weight="400" transform="translate(103.672469 104.069933)" stroke-width="0"><tspan y="0" font-weight="400" stroke-width="0"><![CDATA[
Embrión
]]></tspan></text><text dx="0" dy="0" font-family="&quot;Linux Libertine&quot;" font-size="15" font-weight="400" transform="translate(68.54535 222.136807)" stroke-width="0"><tspan y="0" font-weight="400" stroke-width="0"><![CDATA[
Micropilo
]]></tspan></text><text dx="0" dy="0" font-family="&quot;Linux Libertine&quot;" font-size="15" font-weight="400" transform="translate(213.798487 225.106101)" stroke-width="0"><tspan y="0" font-weight="400" stroke-width="0"><![CDATA[
Hilo
]]></tspan></text><path d="M65.957083,112.164038l31.966115-39.63255" transform="matrix(.778371-.627804 0.627804 0.778371 105.306104 165.846629)" fill="none" stroke="#000"/><path d="M65.957083,112.164038h39.949095" transform="translate(31.671698 51.127687)" fill="none" stroke="#000"/><path d="M46.957084,106.060522l58.949094,6.103516" transform="translate(50.671698 23.127687)" fill="none" stroke="#000"/><path d="M49.977854,84.782792l46.305021,39.645029" transform="translate(79.005648 22.127688)" fill="none" stroke="#000"/><text dx="0" dy="0" font-family="&quot;Linux Libertine&quot;" font-size="15" font-weight="400" transform="translate(21.158529 133.981353)" stroke-width="0"><tspan y="0" font-size="15" font-weight="400" stroke-width="0"><![CDATA[
Endosperma
]]></tspan><tspan y="0" font-size="10" font-weight="400" stroke-width="0"><![CDATA[
 
]]></tspan></text><path d="M65.957083,112.164038h39.949095" transform="matrix(.778371-.627804 0.627804 0.778371 7.22733 171.397403)" fill="none" stroke="#000"/><path d="M181.26182,153.88694c0-5.05661-1.88694-1.46346-3.96832-1.87973-.85298-.1706,3.92173-16.03106-3.13289-14.62014-6.80017,1.36003-3.5985,25.36775-6.68349,31.53774-1.0752,2.1504-4.45677,8.07479-2.08859,10.44296c10.67266,10.67265,13.62385-10.44582,16.29102-15.24672c3.01721-5.43098,11.33171-6.11463,12.74041-13.15813c1.87632-9.38159-10.047836.02652-12.220966,2.92402-.519444.717939-.837145.27286-.937174,0Z" transform="translate(1.127913-7.33143)" fill="#bca438" stroke="#9e8a2b"/></svg>
