<svg id="e3pBlwgh64T1" xmlns="http://www.w3.org/2000/svg" xmlns:xlink="http://www.w3.org/1999/xlink" viewBox="0 0 300 300" shape-rendering="geometricPrecision" text-rendering="geometricPrecision"><g transform="translate(0-.000007)"><ellipse rx="103.827846" ry="103.827846" transform="translate(150 150)" fill="#edc6c6" stroke="#b6ba41" stroke-width="3"/><path d="M136.528118,253.827846C79.537353,247.122965,35.687985,183.560003,47.30785,127.77263c18.9065,3.7813,59.080658,17.700462,76.435528,38.174515c17.168246,20.253887,18.12947,61.157091,12.78474,87.880701Z" fill="#96cd96" stroke="#7b39aa" stroke-width="0"/><path d="M204.800877,62.357139c-17.246714,38.19451-54.798675,56.679058-95.391081,38.597527C92.417453,93.385576,78.10622,80.649313,78.10622,75.027863C103.498054,48.2491,163.172585,33.42831,204.800877,62.357139Z" transform="translate(0 0.151832)" fill="#96cd96" stroke="#9a76b5"/><path d="M219.4827,224.76706c-36.11469-36.11471-24.09667-98.65229,23.37215-117.63983c19.700528,32.772324,12.468243,91.862166-23.37215,117.63983Z" transform="translate(.000001 0)" fill="#96cd96" stroke="#7b39aa" stroke-width="0"/><ellipse rx="103.827846" ry="103.827846" transform="translate(150 150)" fill="none" stroke="#b6ba41" stroke-width="2.5"/><path d="M204.800877,62.357139c-17.246714,38.19451-54.798675,56.679058-95.391081,38.597527C92.417453,93.385576,78.10622,80.649313,78.10622,75.027863" transform="translate(0 0.151832)" fill="none" stroke="#9a76b5" stroke-width="3" stroke-linecap="round"/><path d="M220.645772,226.170782c-36.11469-36.11471-23.772997-100.714233,23.695823-119.701773" transform="translate(.000001 0)" fill="none" stroke="#9a76b5" stroke-width="3" stroke-linecap="round"/><path d="M48.662601,128.317127c18.9065,3.7813,57.725907,17.155965,75.080777,37.630018c17.168246,20.253887,18.237122,60.370531,12.892392,87.094141" fill="none" stroke="#9a76b5" stroke-width="3" stroke-linecap="round"/><path d="M136.655822,253.041286c40.420589,3.478285,64.19621-9.69824,83.98995-26.870504" transform="translate(.000001 0)" fill="none" stroke="#9a76b5" stroke-width="3" stroke-linecap="round"/><path d="M244.341595,106.469008c-9.239769-19.24418-22.315481-34.116021-39.293335-44.464045" transform="translate(.000001 0.000001)" fill="none" stroke="#9a76b5" stroke-width="3" stroke-linecap="round"/><path d="M48.578338,128.317127c2.677981-18.268151,15.374156-39.842596,29.527882-53.137432" fill="none" stroke="#9a76b5" stroke-width="3" stroke-linecap="round"/></g><text dx="0" dy="0" font-family="&quot;Linux Libertine&quot;" font-size="15" font-weight="400" transform="translate(78.10622 28.428456)" stroke-width="0"><tspan y="0" font-weight="400" stroke-width="0"><![CDATA[
Metafloema
]]></tspan></text><text dx="0" dy="0" font-family="&quot;Linux Libertine&quot;" font-size="15" font-weight="400" transform="translate(56.462863 280.220186)" stroke-width="0"><tspan y="0" font-weight="400" stroke-width="0"><![CDATA[
Xilema
]]></tspan></text><text dx="0" dy="0" font-family="&quot;Linux Libertine&quot;" font-size="15" font-weight="400" transform="translate(172.01102 28.368965)" stroke-width="0"><tspan y="0" font-weight="400" stroke-width="0"><![CDATA[
Periciclo
]]></tspan></text><text dx="0" dy="0" font-family="&quot;Linux Libertine&quot;" font-size="15" font-weight="400" transform="translate(171.750123 271.505518)" stroke-width="0"><tspan y="0" font-weight="400" stroke-width="0"><![CDATA[
Cambium vascular
]]></tspan></text><path d="M114.042113,32.164084l22.486005,38.234149" transform="translate(.000001 0.000001)" fill="none" stroke="#000"/><path d="M154.314012,51.281158L136.528118,70.398233" transform="translate(44.12268-19.117073)" fill="none" stroke="#000"/><path d="M153.716229,112.617318L136.528118,70.398233" transform="translate(78.630351 149.068019)" fill="none" stroke="#000"/><path d="M64.634338,111.849699l71.89378-41.451466" transform="translate(13.471882 155.772542)" fill="none" stroke="#000"/></svg>
