<svg id="ek8KadL6X2A1" xmlns="http://www.w3.org/2000/svg" xmlns:xlink="http://www.w3.org/1999/xlink" viewBox="0 50 300 200" shape-rendering="geometricPrecision" text-rendering="geometricPrecision"><g transform="translate(47.173065 33.661744)"><path d="M154.180783,67.857865q41.165424,36.47732,81.07067,36.47732q0,0,0,66.512035-64.663212-43.020807-64.663212-43.020807t-16.407458-59.96855" transform="translate(0 0.000003)" fill="#5c8a4d" stroke-width="0.6"/><path d="M-19.299164,-0.19702c0-2.593932-7.174987-3.668034-11.445903-7.93895-.000001-.000001-1.916987-.38985-2.659135-.751916-1.286477-.627624-1.899366-1.790439-1.899369-1.790441s-3.725459-1.130159-3.186881-2.086679C-32.055669,-24.193253,-17.243868,-32.190183,0,-32.190183c23.149186,0,41.91531,14.412036,41.91531,32.190183s-18.766124,32.190183-41.91531,32.190183c-18.442277,0-34.102693-9.14709-39.708683-21.856073-.310401-.703689,2.627149-1.545061,2.627149-1.545061s1.261843-1.438973,2.521301-1.85428c1.339406-.44167,2.436007-.393626,2.436007-.393626s12.825062-4.715333,12.825062-6.738163Z" transform="matrix(.413008-1.252484 1.252484 0.413008 130.270553 117.705751)" fill="#6d9f5d" stroke-width="0"/><ellipse rx="41.91531" ry="32.190183" transform="matrix(.313164-.949699 0.949699 0.313164 130.350261 117.745605)" fill="#f8eaaa" stroke-width="0"/><ellipse rx="4.702768" ry="5.595331" transform="matrix(.924719 0.380649-.380649 0.924719 136.828861 100.700577)" fill="#bca438" stroke-width="0"/></g><text dx="0" dy="0" font-family="&quot;Linux Libertine&quot;" font-size="15" font-weight="400" transform="translate(21.165674 168.134039)" stroke-width="0"><tspan y="0" font-weight="400" stroke-width="0"><![CDATA[
Tegumentos 
]]></tspan></text><text dx="0" dy="0" font-family="&quot;Linux Libertine&quot;" font-size="15" font-weight="400" transform="translate(19.525997 89.122054)" stroke-width="0"><tspan y="0" font-weight="400" stroke-width="0"><![CDATA[
Célula madre de la megaspora
]]></tspan></text><text dx="0" dy="0" font-family="&quot;Linux Libertine&quot;" font-size="15" font-weight="400" transform="translate(68.54535 222.136807)" stroke-width="0"><tspan y="0" font-weight="400" stroke-width="0"><![CDATA[
Micropilo
]]></tspan></text><text dx="0" dy="0" font-family="&quot;Linux Libertine&quot;" font-size="15" font-weight="400" transform="translate(168.31519 230.896009)" stroke-width="0"><tspan y="0" font-weight="400" stroke-width="0"><![CDATA[
Funículo
]]></tspan></text><path d="M65.957083,112.164038l63.725681-14.016489" transform="matrix(.778371-.627804 0.627804 0.778371 101.46451 180.478223)" fill="none" stroke="#000"/><path d="M65.957083,112.164038h39.949095" transform="translate(31.671698 51.127687)" fill="none" stroke="#000"/><path d="M46.957084,106.060522l58.949094,6.103516" transform="translate(50.671698 23.127687)" fill="none" stroke="#000"/><path d="M31.996647,69.061041l73.909531,43.102997" transform="translate(79.005648 22.127688)" fill="none" stroke="#000"/><path d="M144.215036,49.542285L115.96229,84.782791" transform="translate(79.005648 22.127688)" fill="none" stroke="#000"/><text dx="0" dy="0" font-family="&quot;Linux Libertine&quot;" font-size="15" font-weight="400" transform="translate(52.193739 132.979394)" stroke-width="0"><tspan y="0" font-size="15" font-weight="400" stroke-width="0"><![CDATA[
Nucela
]]></tspan><tspan x="0" y="10" font-size="10" font-weight="400" stroke-width="0"><![CDATA[
(megasporangio) 
]]></tspan></text><path d="M65.957083,112.164038h39.949095" transform="matrix(.778371-.627804 0.627804 0.778371 7.22733 171.397403)" fill="none" stroke="#000"/><text dx="0" dy="0" font-family="&quot;Linux Libertine&quot;" font-size="15" font-weight="400" transform="translate(202.817224 68.116309)" stroke-width="0"><tspan y="0" font-weight="400" stroke-width="0"><![CDATA[
Cálaza
]]></tspan></text></svg>
