<svg id="eHEoI3DAkRq1" xmlns="http://www.w3.org/2000/svg" xmlns:xlink="http://www.w3.org/1999/xlink" viewBox="0 0 300 200" shape-rendering="geometricPrecision" text-rendering="geometricPrecision"><g transform="translate(20.83502 12.58132)"><path d="M46.766949,124.591172h129.25291c27.160527.101168,75.597674-38.861258,46.222323-49.059192h-132.239715L46.766949,124.591172Z" transform="translate(.40107 0)" fill="#f3c07f" stroke="#c6a072" stroke-width="1.5"/><ellipse rx="16.957557" ry="37.187624" transform="matrix(.540229 0.841518-.841518 0.540229 66.997224 100)" fill="#ffd39a" stroke="#c6a072" stroke-width="1.5"/><ellipse rx="2.501394" ry="2.501394" transform="translate(113.082802 91.678844)" fill="#c6a072" stroke-width="0"/><ellipse rx="2.501394" ry="2.501394" transform="translate(118.082802 98.678844)" fill="#c6a072" stroke-width="0"/><ellipse rx="2.501394" ry="2.501394" transform="translate(124.082802 89.678844)" fill="#c6a072" stroke-width="0"/><ellipse rx="2.501394" ry="2.501394" transform="translate(129.082802 98.678844)" fill="#c6a072" stroke-width="0"/><ellipse rx="2.501394" ry="2.501394" transform="translate(134.082802 88.678844)" fill="#c6a072" stroke-width="0"/><ellipse rx="2.501394" ry="2.501394" transform="translate(110.082802 101.678844)" fill="#c6a072" stroke-width="0"/><ellipse rx="2.501394" ry="2.501394" transform="translate(117.082802 84.678844)" fill="#c6a072" stroke-width="0"/><ellipse rx="2.501394" ry="2.501394" transform="translate(124.082802 106.678844)" fill="#c6a072" stroke-width="0"/><ellipse rx="2.501394" ry="2.501394" transform="translate(138.082802 94.678844)" fill="#c6a072" stroke-width="0"/><ellipse rx="2.501394" ry="2.501394" transform="translate(143.082802 88.678844)" fill="#c6a072" stroke-width="0"/><ellipse rx="2.501394" ry="2.501394" transform="translate(147.082802 97.678844)" fill="#c6a072" stroke-width="0"/><ellipse rx="2.501394" ry="2.501394" transform="translate(137.082802 104.678844)" fill="#c6a072" stroke-width="0"/><ellipse rx="2.501394" ry="2.501394" transform="translate(150.082802 105.678844)" fill="#c6a072" stroke-width="0"/></g><text dx="0" dy="0" font-family="&quot;Linux Libertine&quot;" font-size="18" font-weight="400" transform="translate(48.617378 25.469987)" stroke-width="0"><tspan y="0" font-weight="400" stroke-width="0"><![CDATA[
Elemento de vaso o tráquea
]]></tspan></text><path d="M87.832244,111.260164v-41.363562" transform="translate(.000001 0.000001)" fill="none" stroke="#000"/><path d="M87.832244,111.260164v35.681089" transform="translate(51.000001 0.000001)" fill="none" stroke="#000"/><text dx="0" dy="0" font-family="&quot;Linux Libertine&quot;" font-size="15" font-weight="400" transform="translate(26.15415 65.244601)" stroke-width="0"><tspan y="0" font-weight="400" stroke-width="0"><![CDATA[
Placa de perforación
]]></tspan></text><text dx="0" dy="0" font-family="&quot;Linux Libertine&quot;" font-size="15" font-weight="400" transform="translate(100.766653 160.42124)" stroke-width="0"><tspan y="0" font-weight="400" stroke-width="0"><![CDATA[
Punteaduras
]]></tspan></text></svg>
