<svg id="eY1tigzSLRV1" xmlns="http://www.w3.org/2000/svg" xmlns:xlink="http://www.w3.org/1999/xlink" viewBox="0 0 225 225" shape-rendering="geometricPrecision" text-rendering="geometricPrecision"><path d="M157.070748,236.774194c4.342371,3.655362,29.06898,10.448598,46.765964,13.810411h-107.673424c19.28509-2.842257,44.003185-9.580575,46.765964-13.810413l14.141496.000002Z" transform="translate(-32-27.999997)" fill="#604e2b" stroke="#403325" stroke-width="2"/><path d="M149.999996,188.244101l-4.387093,48.530093h14.141496l-4.499456-48.530093h-5.254947Z" transform="translate(-34.683651-28)" fill="#785419" stroke="#4c3919" stroke-width="2"/><path d="M150,62.66956c0,0-122.512231,157.832605,0,157.832605s0-157.832605,0-157.832605v0Z" transform="translate(-32.000004-60.258064)" fill="#406c2d" stroke="#1b3e18" stroke-width="2"/><text dx="0" dy="0" font-family="&quot;Linux Libertine&quot;" font-size="15" font-weight="400" transform="translate(174.358871 47.4026)" stroke-width="0"><tspan y="0" font-weight="400" stroke-width="0"><![CDATA[
Lámina
]]></tspan></text><text dx="0" dy="0" font-family="&quot;Linux Libertine&quot;" font-size="15" font-weight="400" transform="translate(148.967742 184.258065)" stroke-width="0"><tspan y="0" font-weight="400" stroke-width="0"><![CDATA[
Peciolo
]]></tspan></text><text dx="0" dy="0" font-family="&quot;Linux Libertine&quot;" font-size="15" font-weight="400" transform="translate(1.000001 178.638178)" stroke-width="0"><tspan y="0" font-weight="400" stroke-width="0"><![CDATA[
Base
]]></tspan></text><line x1="-42.522354" y1="-20.332018" x2="42.522354" y2="20.332018" transform="translate(75.477646 195.347383)" fill="none" stroke="#000" stroke-width="2"/><line x1="13.248036" y1="0" x2="-13.248037" y2="0" transform="translate(131.248037 179.015365)" fill="none" stroke="#000" stroke-width="2"/><line x1="26.918356" y1="-25.893395" x2="-26.918356" y2="25.893395" transform="translate(144.918356 68.786051)" fill="none" stroke="#000" stroke-width="2"/></svg>
